<svg width="360" height="270" viewBox="0 0 360 270" fill="none" xmlns="http://www.w3.org/2000/svg">
<path d="M50.3282 152.446C48.7982 150.304 47.5022 148.108 46.4582 145.867C44.3252 141.313 43.2002 136.588 43.2002 131.737C43.2002 98.7245 95.2742 71.4725 162.621 67.4225M267.846 82.0151C297.807 93.9131 316.86 111.769 316.86 131.74C316.86 141.01 312.747 149.83 305.349 157.813M176.573 66.9203C177.725 66.9113 178.877 66.9023 180.029 66.9023C202.268 66.9023 223.274 69.4133 241.832 73.8773" stroke="#111827" stroke-width="1.9134"/>
<path d="M283.979 106.599C295.103 113.439 303.41 121.359 308.072 129.972M181.116 99.25C256.689 99.25 317.943 128.275 317.943 164.086C317.943 199.897 256.689 228.922 181.116 228.922C149.049 228.922 119.547 223.693 96.2281 214.936C81.8551 209.545 69.8311 202.813 60.9841 195.145C50.3371 185.92 44.2891 175.336 44.2891 164.086C44.2891 143.953 63.6571 125.962 94.0411 114.073C95.9311 113.326 97.8661 112.615 99.8371 111.922" stroke="#111827" stroke-width="1.9134"/>
<path fill-rule="evenodd" clip-rule="evenodd" d="M114.287 181.06H230.171C236.075 181.06 240.863 176.263 240.863 170.359V52.0904C240.863 46.1864 236.075 41.3984 230.171 41.3984H114.287C111.452 41.3984 108.725 42.5234 106.718 44.5304C104.712 46.5387 103.586 49.2611 103.586 52.0994V170.359C103.586 173.194 104.711 175.921 106.718 177.928C108.725 179.935 111.452 181.06 114.287 181.06Z" fill="#D1D5DB"/>
<path fill-rule="evenodd" clip-rule="evenodd" d="M114.277 41.3984H230.17C236.074 41.3984 240.871 46.1864 240.871 52.0994V60.4154H103.585V52.0994C103.585 46.1864 108.373 41.3984 114.277 41.3984Z" fill="#9CA3AF"/>
<path d="M122.458 89.1094C133.744 86.6254 145.867 84.8434 158.575 83.8984M57.9727 118.605C66.4957 110.658 78.3757 103.656 92.7307 98.0131" stroke="#111827" stroke-width="1.9134"/>
<path fill-rule="evenodd" clip-rule="evenodd" d="M55.9736 114.363C53.4896 114.363 51.4736 116.379 51.4736 118.863C51.4736 121.347 53.4896 123.363 55.9736 123.363C58.4576 123.363 60.4736 121.347 60.4736 118.863C60.4736 116.379 58.4576 114.363 55.9736 114.363Z" fill="#111827"/>
<path fill-rule="evenodd" clip-rule="evenodd" d="M132.924 66.2148C130.44 66.2148 128.424 68.2308 128.424 70.7148C128.424 73.1988 130.44 75.2148 132.924 75.2148C135.408 75.2148 137.424 73.1988 137.424 70.7148C137.424 68.2308 135.408 66.2148 132.924 66.2148Z" fill="white"/>
<path d="M132.924 66.2148C130.44 66.2148 128.424 68.2308 128.424 70.7148C128.424 73.1988 130.44 75.2148 132.924 75.2148C135.408 75.2148 137.424 73.1988 137.424 70.7148C137.424 68.2308 135.408 66.2148 132.924 66.2148Z" stroke="#111827" stroke-width="1.9134"/>
<path fill-rule="evenodd" clip-rule="evenodd" d="M80.9333 142.914L87.1703 153.714H74.6963L80.9333 142.914Z" fill="#67C16B"/>
<path d="M87.1703 153.714L80.9333 142.914L74.6963 153.714H87.1703Z" stroke="#2E7D32" stroke-width="1.9134"/>
<path d="M233.228 213.386C219.296 215.654 195.878 217.832 180.326 217.832C163.64 217.832 144.983 215.978 130.196 213.386M101.396 205.871C99.4609 205.214 97.5709 204.539 95.7079 203.846C95.3299 203.702 94.9519 203.558 94.5829 203.414C80.7049 198.104 69.0769 191.525 60.4639 184.055M299.036 181.879C291.458 188.395 281.873 194.416 270.704 199.69C269.129 200.437 267.518 201.166 265.88 201.877" stroke="#111827" stroke-width="1.9134"/>
<path fill-rule="evenodd" clip-rule="evenodd" d="M123.759 201.841L121.896 205.918C121.779 206.17 121.797 206.467 121.941 206.71L124.245 210.562C124.605 211.165 124.119 211.921 123.417 211.84L118.962 211.327C118.825 211.311 118.686 211.329 118.557 211.379C118.428 211.43 118.314 211.511 118.224 211.615L115.272 214.999C114.813 215.53 113.94 215.296 113.805 214.603L112.914 210.211C112.886 210.076 112.825 209.949 112.737 209.843C112.65 209.736 112.537 209.653 112.41 209.599L108.279 207.835C108.133 207.773 108.008 207.671 107.917 207.541C107.827 207.411 107.774 207.258 107.766 207.1C107.757 206.942 107.793 206.784 107.87 206.645C107.946 206.506 108.06 206.392 108.198 206.314L112.104 204.109C112.223 204.04 112.325 203.944 112.4 203.828C112.475 203.712 112.521 203.58 112.536 203.443L112.932 198.97C112.995 198.268 113.832 197.944 114.354 198.421L117.657 201.454C117.864 201.643 118.152 201.724 118.422 201.661L122.796 200.653C123.489 200.5 124.056 201.193 123.759 201.841Z" fill="white"/>
<path d="M121.896 205.917L123.759 201.84C123.826 201.696 123.852 201.535 123.832 201.377C123.813 201.219 123.749 201.069 123.649 200.945C123.548 200.821 123.415 200.728 123.264 200.676C123.113 200.624 122.951 200.616 122.796 200.652L118.422 201.66C118.287 201.69 118.147 201.687 118.014 201.651C117.881 201.615 117.758 201.547 117.657 201.453L114.354 198.42C114.237 198.313 114.093 198.24 113.937 198.21C113.781 198.181 113.62 198.195 113.472 198.252C113.324 198.309 113.195 198.407 113.099 198.534C113.004 198.66 112.946 198.811 112.932 198.969L112.536 203.442C112.521 203.579 112.475 203.711 112.4 203.827C112.325 203.943 112.223 204.039 112.104 204.108L108.198 206.313C108.06 206.391 107.946 206.506 107.87 206.644C107.793 206.783 107.757 206.941 107.766 207.099C107.774 207.257 107.827 207.41 107.917 207.54C108.008 207.67 108.133 207.772 108.279 207.834L112.41 209.598C112.671 209.706 112.851 209.931 112.914 210.21L113.805 214.602C113.94 215.295 114.813 215.529 115.272 214.998L118.224 211.614C118.404 211.398 118.683 211.299 118.962 211.326L123.417 211.839C124.119 211.92 124.605 211.164 124.245 210.561L121.941 206.709C121.87 206.591 121.828 206.457 121.82 206.319C121.813 206.181 121.838 206.043 121.896 205.917Z" stroke="#111827" stroke-width="1.9134"/>
<path fill-rule="evenodd" clip-rule="evenodd" d="M302.249 176.655L309.879 175.256L308.481 167.625L300.85 169.024L302.249 176.655Z" fill="#67C16B"/>
<path d="M309.59 168.395L301.963 169.792L303.016 175.538L310.643 174.139L309.59 168.395Z" stroke="#2E7D32" stroke-width="1.9134"/>
<path fill-rule="evenodd" clip-rule="evenodd" d="M123.177 188.588H239.061C244.965 188.588 249.753 183.791 249.753 177.887V59.6178C249.753 53.7138 244.965 48.9258 239.061 48.9258H123.177C120.342 48.9258 117.615 50.0508 115.608 52.0578C113.602 54.066 112.475 56.7884 112.476 59.6268V177.887C112.476 180.722 113.601 183.449 115.608 185.456C117.615 187.463 120.342 188.588 123.177 188.588Z" fill="white"/>
<path d="M250.713 59.8828C250.713 54.36 246.236 49.8828 240.713 49.8828H125.433C118.805 49.8828 113.433 55.2554 113.433 61.8828V187.628H250.713V59.8828Z" stroke="#111827" stroke-width="1.9134"/>
<path fill-rule="evenodd" clip-rule="evenodd" d="M123.168 48.9258H239.061C244.965 48.9258 249.753 53.7138 249.753 59.6268V67.9428H112.476V59.6268C112.476 53.7138 117.264 48.9258 123.168 48.9258Z" fill="#67C16B"/>
<path d="M239.061 48.9258H123.168C117.264 48.9258 112.476 53.7138 112.476 59.6268V67.9428H249.753V59.6268C249.753 53.7138 244.965 48.9258 239.061 48.9258Z" stroke="#2E7D32" stroke-width="1.9134"/>
<path fill-rule="evenodd" clip-rule="evenodd" d="M119.243 58.4296C119.244 57.7565 119.377 57.0901 119.635 56.4685C119.893 55.8469 120.271 55.2822 120.748 54.8066C121.224 54.3311 121.789 53.9541 122.411 53.697C123.033 53.44 123.7 53.308 124.373 53.3086C125.046 53.3092 125.713 53.4423 126.334 53.7005C126.956 53.9586 127.521 54.3366 127.996 54.813C128.472 55.2894 128.849 55.8547 129.106 56.4768C129.363 57.0989 129.495 57.7655 129.494 58.4386C129.493 59.798 128.952 61.1012 127.99 62.0616C127.028 63.0219 125.724 63.5608 124.364 63.5596C123.005 63.5584 121.702 63.0173 120.741 62.0552C119.781 61.0931 119.242 59.789 119.243 58.4296ZM133.95 58.4296C133.951 57.7565 134.084 57.0901 134.342 56.4685C134.6 55.8469 134.978 55.2822 135.454 54.8066C135.931 54.3311 136.496 53.9541 137.118 53.697C137.74 53.44 138.407 53.308 139.08 53.3086C139.753 53.3092 140.42 53.4423 141.041 53.7005C141.663 53.9586 142.227 54.3366 142.703 54.813C143.179 55.2894 143.556 55.8547 143.813 56.4768C144.07 57.0989 144.202 57.7655 144.201 58.4386C144.2 59.798 143.659 61.1012 142.697 62.0616C141.735 63.0219 140.43 63.5608 139.071 63.5596C137.712 63.5584 136.408 63.0173 135.448 62.0552C134.488 61.0931 133.949 59.789 133.95 58.4296ZM148.659 58.4296C148.659 57.7565 148.793 57.0901 149.051 56.4685C149.309 55.8469 149.687 55.2823 150.163 54.8068C150.64 54.3313 151.205 53.9543 151.827 53.6973C152.449 53.4403 153.116 53.3084 153.789 53.309C154.462 53.3097 155.129 53.4429 155.75 53.7011C156.372 53.9593 156.937 54.3374 157.412 54.8138C157.888 55.2902 158.265 55.8556 158.522 56.4777C158.778 57.0998 158.91 57.7664 158.91 58.4395C158.909 59.7989 158.367 61.1021 157.405 62.0625C156.443 63.0228 155.139 63.5617 153.78 63.5605C152.42 63.5593 151.117 63.0182 150.157 62.0561C149.196 61.094 148.658 59.789 148.659 58.4296Z" fill="white"/>
<path fill-rule="evenodd" clip-rule="evenodd" d="M131.195 146.075H231.032V139.91H131.195V146.075ZM131.195 155.882H231.032V149.717H131.195V155.882ZM131.195 165.688H187.355V159.523H131.195V165.688Z" fill="#D1D5DB"/>
<path fill-rule="evenodd" clip-rule="evenodd" d="M191.594 96.8172C191.837 96.5472 192.26 96.5292 192.539 96.7722C195.757 99.6554 197.994 103.472 198.937 107.688C199.881 111.904 199.485 116.309 197.804 120.289C193.61 124.357 187.391 126.544 180.803 125.671C179.039 125.437 177.365 124.996 175.79 124.384C175.556 124.285 175.313 124.195 175.079 124.087C175.061 124.087 175.043 124.078 175.025 124.069C170.798 122.177 167.322 118.931 165.143 114.844C165.107 114.79 165.089 114.736 165.053 114.682C163.604 111.694 162.992 108.337 163.442 104.89C163.604 103.702 163.883 102.55 164.279 101.461C166.601 102.478 169.058 103.162 171.578 103.486C177.032 104.215 182.198 103.279 186.212 101.182C188.278 100.13 190.1 98.6554 191.558 96.8532L191.594 96.8172Z" fill="white"/>
<path d="M192.539 96.7724C192.407 96.655 192.234 96.5939 192.057 96.6023C191.881 96.6107 191.715 96.6879 191.594 96.8174L191.558 96.8534C190.1 98.6534 188.282 100.129 186.212 101.182C182.198 103.279 177.032 104.215 171.578 103.486C169.058 103.162 166.601 102.478 164.279 101.461C163.879 102.571 163.598 103.721 163.442 104.89C162.992 108.337 163.604 111.694 165.053 114.682C165.089 114.736 165.107 114.79 165.143 114.844C167.294 118.876 170.741 122.152 175.025 124.069C175.043 124.078 175.061 124.087 175.079 124.087C175.313 124.195 175.556 124.285 175.79 124.384C177.365 124.996 179.039 125.437 180.803 125.671C187.391 126.544 193.61 124.357 197.804 120.289C199.485 116.309 199.881 111.904 198.937 107.688C197.994 103.472 195.757 99.6557 192.539 96.7724Z" stroke="#111827" stroke-width="0.8928"/>
<path fill-rule="evenodd" clip-rule="evenodd" d="M192.849 97.4718C192.354 97.0488 191.607 97.1118 191.193 97.6068C189.78 99.2268 188.079 100.559 186.171 101.54C182.148 103.646 176.982 104.573 171.528 103.844C170.511 103.709 169.503 103.52 168.504 103.268C167.217 105.729 166.373 108.398 166.011 111.152C165.777 112.889 165.741 114.653 165.894 116.399C163.108 112.225 161.94 107.179 162.609 102.206C162.654 101.837 162.717 101.477 162.78 101.117C162.321 100.874 161.862 100.622 161.43 100.361C160.899 100.037 160.386 99.6948 159.891 99.3348C159.459 99.0198 159.153 98.5698 159.009 98.0568C158.92 97.7489 158.892 97.4264 158.927 97.1077C158.962 96.789 159.06 96.4804 159.215 96.1995C159.369 95.9187 159.578 95.671 159.828 95.4708C160.079 95.2706 160.366 95.1218 160.674 95.0328C162.402 94.5288 164.175 94.2138 165.975 94.0968C172.077 84.8268 184.335 81.9017 193.974 87.3917C197.576 89.4368 200.486 92.5103 202.332 96.2187C204.177 99.9272 204.874 104.102 204.333 108.209C203.694 113.087 201.327 117.569 197.673 120.863C201.147 112.853 199.248 103.52 192.903 97.5167C192.887 97.4992 192.869 97.484 192.849 97.4718Z" fill="#111827"/>
<path d="M191.193 97.6068C191.607 97.1118 192.354 97.0488 192.849 97.4718C192.867 97.4808 192.885 97.4987 192.903 97.5167C199.248 103.52 201.147 112.853 197.673 120.863C201.327 117.569 203.694 113.087 204.333 108.209C204.874 104.102 204.177 99.9272 202.332 96.2187C200.486 92.5103 197.576 89.4368 193.974 87.3917C184.335 81.9017 172.077 84.8268 165.975 94.0968C164.175 94.2138 162.402 94.5288 160.674 95.0328C160.366 95.1218 160.079 95.2706 159.828 95.4708C159.578 95.671 159.369 95.9187 159.215 96.1995C159.06 96.4804 158.962 96.789 158.927 97.1077C158.892 97.4264 158.92 97.7489 159.009 98.0568C159.153 98.5698 159.459 99.0198 159.891 99.3348C160.386 99.6948 160.899 100.037 161.43 100.361C161.862 100.622 162.321 100.874 162.78 101.117C162.717 101.477 162.654 101.837 162.609 102.206C161.943 107.174 163.104 112.223 165.894 116.399C165.741 114.653 165.777 112.889 166.011 111.152C166.371 108.398 167.217 105.734 168.504 103.268C169.503 103.52 170.511 103.709 171.528 103.844C176.982 104.573 182.148 103.646 186.171 101.54C188.079 100.559 189.78 99.2268 191.193 97.6068Z" stroke="#111827" stroke-width="0.9"/>
<path d="M174.655 113.543L177.661 110.303M174.538 110.419L177.778 113.425M187.32 113.673L190.326 110.433M187.202 110.55L190.442 113.556M163.446 104.891C162.115 114.91 169.885 124.214 180.805 125.665C191.716 127.115 201.647 120.164 202.978 110.145C204.311 100.117 196.54 90.8134 185.629 89.3635C174.71 87.9118 164.779 94.8634 163.446 104.891Z" stroke="#111827" stroke-width="1.9134"/>
<path fill-rule="evenodd" clip-rule="evenodd" d="M152.938 92.8701L144.757 92.7891V92.8521L130.069 112.283L130.51 116.63L144.514 116.774L144.451 123.182L152.623 123.263L152.686 116.855L156.25 116.891L156.304 111.428L152.749 111.392L152.938 92.8701ZM144.666 101.844L144.522 101.826L143.613 103.383L137.097 111.231L144.576 111.303L144.666 101.844ZM222.387 123.183L230.568 123.264L230.631 116.856L234.186 116.892L234.249 111.429L230.694 111.393L230.883 92.871L222.702 92.79V92.853L208.014 112.284L208.455 116.631L222.459 116.775L222.387 123.183ZM222.61 101.853L222.466 101.826L221.557 103.383L215.041 111.231L222.511 111.303L222.61 101.853Z" fill="#111827"/>
<path fill-rule="evenodd" clip-rule="evenodd" d="M238.294 198.047C233.011 201.008 226.594 202.052 220.213 200.468C206.974 197.192 198.865 183.935 202.105 170.858C205.345 157.772 218.692 149.825 231.931 153.101C245.17 156.377 253.27 169.634 250.039 182.711C249.112 186.473 247.339 189.803 244.99 192.566L259.651 209.171L260.38 206.219L262.495 207.335L261.523 211.286L254.908 216.236L238.294 198.047Z" fill="#2E7D32"/>
<path d="M220.213 200.468C226.594 202.052 233.011 201.008 238.294 198.047L254.908 216.236L261.523 211.286L262.495 207.335L260.38 206.219L259.651 209.171L244.99 192.566C247.339 189.803 249.112 186.473 250.039 182.711C253.27 169.634 245.17 156.377 231.931 153.101C218.692 149.825 205.345 157.772 202.105 170.858C198.865 183.935 206.974 197.192 220.213 200.468Z" stroke="#2E7D32" stroke-width="0.8928"/>
<path fill-rule="evenodd" clip-rule="evenodd" d="M249.4 180.46C248.68 183.367 247.375 185.995 245.647 188.254L262.495 207.334L255.889 212.284L239.14 193.951C233.929 196.984 227.422 198.064 220.906 196.453C208.135 193.294 200.188 181.009 203.158 169.021C206.119 157.024 218.881 149.869 231.652 153.028C244.414 156.187 252.361 168.472 249.4 180.46Z" fill="#67C16B"/>
<path d="M245.647 188.254C247.375 185.995 248.68 183.367 249.4 180.46C252.361 168.472 244.414 156.187 231.652 153.028C218.881 149.869 206.119 157.024 203.158 169.021C200.188 181.009 208.135 193.294 220.906 196.453C227.422 198.064 233.929 196.984 239.14 193.951L255.889 212.284L262.495 207.334L245.647 188.254Z" stroke="#2E7D32" stroke-width="0.8928"/>
<path d="M232.325 152.993C232.271 152.984 232.226 152.966 232.181 152.957C222.137 150.473 212.102 154.37 206.828 161.984C204.846 164.599 203.419 167.591 202.634 170.777C199.394 183.863 207.503 197.12 220.742 200.396C227.123 201.971 233.54 200.936 238.823 197.975L255.437 216.164L262.052 211.214L263.024 207.263L247.535 189.731C248.885 187.598 249.929 185.222 250.568 182.639C253.808 169.562 245.699 156.296 232.46 153.029C232.416 153.013 232.371 153.001 232.325 152.993Z" stroke="#111827" stroke-width="1.8"/>
<path fill-rule="evenodd" clip-rule="evenodd" d="M209.361 170.552C207.165 179.427 212.96 188.5 222.299 190.811C231.647 193.124 241.003 187.798 243.199 178.922C245.395 170.046 239.599 160.981 230.25 158.669C220.911 156.359 211.557 161.675 209.361 170.552Z" fill="white"/>
<path fill-rule="evenodd" clip-rule="evenodd" d="M212.104 184.939C209.2 181.09 207.981 176.135 209.191 171.239C211.387 162.362 220.741 157.046 230.08 159.356C235.837 160.78 240.247 164.765 242.272 169.69C239.91 166.56 236.43 164.163 232.236 163.126C222.895 160.815 213.543 166.132 211.347 175.008C210.502 178.421 210.839 181.864 212.104 184.939Z" fill="#E5E7EB"/>
<path d="M209.361 170.552C207.165 179.427 212.96 188.5 222.299 190.811C231.647 193.124 241.003 187.798 243.199 178.922C245.395 170.046 239.599 160.981 230.25 158.669C220.911 156.359 211.557 161.675 209.361 170.552Z" stroke="#111827" stroke-width="1.8"/>
<path d="M225.273 184.483C225.273 184.483 221.628 184.555 219.297 183.043C216.966 181.54 216.642 179.461 216.642 179.461" stroke="#111827" stroke-width="1.9134"/>
<path fill-rule="evenodd" clip-rule="evenodd" d="M258.828 224.27L243.591 207.314C242.367 205.946 243.402 202.994 245.922 200.735L248.964 198.008C251.475 195.74 254.517 195.02 255.75 196.388L270.987 213.344C272.22 214.721 271.176 217.664 268.656 219.923L265.614 222.659C263.103 224.918 260.061 225.638 258.828 224.27Z" fill="#D1D5DB"/>
<path d="M243.591 207.314L258.828 224.27C260.061 225.638 263.103 224.918 265.614 222.659L268.656 219.923C271.176 217.664 272.22 214.721 270.987 213.344L255.75 196.388C254.517 195.02 251.475 195.74 248.964 198.008L245.922 200.735C243.402 202.994 242.367 205.946 243.591 207.314Z" stroke="#111827" stroke-width="1.9134"/>
<path fill-rule="evenodd" clip-rule="evenodd" d="M258.828 224.27L243.591 207.314C242.367 205.946 243.402 202.994 245.922 200.735L246.687 200.051L266.379 221.975L265.614 222.659C263.103 224.918 260.061 225.638 258.828 224.27Z" fill="#D1D5DB"/>
<path fill-rule="evenodd" clip-rule="evenodd" d="M253.658 198.267C254.396 197.601 255.287 197.394 255.647 197.79L269.579 213.306C269.939 213.702 269.633 214.566 268.895 215.223C268.166 215.88 267.275 216.096 266.915 215.691L252.983 200.184C252.623 199.788 252.929 198.924 253.658 198.267Z" fill="white"/>
<path fill-rule="evenodd" clip-rule="evenodd" d="M162.387 98.0078C161.968 98.0079 161.552 98.0907 161.164 98.2514C160.777 98.4121 160.424 98.6477 160.128 98.9445C159.831 99.2414 159.596 99.5937 159.435 99.9815C159.275 100.369 159.192 100.785 159.192 101.205C159.193 101.624 159.275 102.04 159.436 102.428C159.597 102.815 159.832 103.168 160.129 103.464C160.426 103.761 160.778 103.996 161.166 104.157C161.554 104.317 161.969 104.4 162.389 104.4C163.237 104.399 164.05 104.062 164.649 103.463C165.248 102.863 165.584 102.05 165.584 101.203C165.584 100.355 165.247 99.5424 164.647 98.9432C164.048 98.3441 163.235 98.0076 162.387 98.0078Z" fill="#111827"/>
</svg>
