<svg width="360" height="270" viewBox="0 0 360 270" fill="none" xmlns="http://www.w3.org/2000/svg">
<path d="M271.154 118.038C292.466 126.939 307.883 138.927 314.282 152.526M76.4395 124.736C101.54 110.741 138.953 101.867 180.731 101.867C204.122 101.867 226.145 104.648 245.396 109.544" stroke="#111827" stroke-width="1.9134"/>
<path fill-rule="evenodd" clip-rule="evenodd" d="M100.631 92.419L119.907 77.9497L101.401 53.2969L82.126 67.7662L100.631 92.419Z" fill="white"/>
<path d="M102.295 53.4219L83.0186 67.8921L100.758 91.5243L120.035 77.055L102.295 53.4219Z" stroke="#111827" stroke-width="1.2753"/>
<path fill-rule="evenodd" clip-rule="evenodd" d="M96.737 91.9481L118.512 81.6134L105.294 53.7656L83.5205 64.1003L96.737 91.9481Z" fill="#E5E7EB"/>
<path d="M106.145 54.0664L84.3701 64.4011L97.0403 91.096L118.815 80.7613L106.145 54.0664Z" stroke="#111827" stroke-width="1.2753"/>
<path fill-rule="evenodd" clip-rule="evenodd" d="M250.854 166.863L252.528 166.008L253.869 179.13C253.869 179.13 251.142 185.097 236.346 187.014C232.215 187.554 223.593 185.664 222.585 183.585C220.434 179.139 220.875 174.531 220.875 174.531C220.875 174.531 226.437 176.565 235.32 175.071C244.212 173.577 250.854 166.863 250.854 166.863Z" fill="#D1D5DB"/>
<path d="M252.528 166.008L250.854 166.863C250.854 166.863 244.212 173.577 235.32 175.071C226.437 176.565 220.875 174.531 220.875 174.531C220.875 174.531 220.434 179.139 222.585 183.585C223.593 185.664 232.215 187.554 236.346 187.014C251.142 185.097 253.869 179.13 253.869 179.13L252.528 166.008Z" stroke="#111827" stroke-width="1.9134"/>
<path fill-rule="evenodd" clip-rule="evenodd" d="M246.178 127.01L260.2 80.1562C260.992 77.5012 263.809 75.9802 266.473 76.7722L302.365 87.5092C305.02 88.3102 306.541 91.1272 305.749 93.7822L293.914 133.355L278.182 141.842L249.562 133.283C246.907 132.491 245.386 129.665 246.178 127.01Z" fill="white"/>
<path d="M260.2 80.1562L246.178 127.01C245.386 129.665 246.907 132.491 249.562 133.283L278.182 141.842L293.914 133.355L305.749 93.7822C306.541 91.1272 305.02 88.3102 302.365 87.5092L266.473 76.7722C263.809 75.9802 260.992 77.5012 260.2 80.1562Z" stroke="#111827" stroke-width="1.2753"/>
<path fill-rule="evenodd" clip-rule="evenodd" d="M280.717 133.375C281.028 132.333 281.741 131.458 282.698 130.941C283.655 130.425 284.778 130.31 285.82 130.621L294 133.069L278.269 141.556L280.717 133.375Z" fill="#E5E7EB"/>
<path d="M285.82 130.622C283.651 129.974 281.365 131.207 280.717 133.376L278.269 141.557L294 133.07L285.82 130.622Z" stroke="#111827" stroke-width="1.2753"/>
<path fill-rule="evenodd" clip-rule="evenodd" d="M266.607 89.7031L295.156 98.2432C295.389 98.3125 295.633 98.2819 295.845 98.1676C296.002 98.0823 296.129 97.9527 296.212 97.7951C296.295 97.6375 296.329 97.4589 296.311 97.2818C296.293 97.1047 296.223 96.937 296.109 96.7996C295.996 96.6623 295.845 96.5615 295.674 96.5098L267.125 87.9706C266.955 87.9202 266.773 87.9213 266.603 87.9738C266.433 88.0263 266.282 88.1278 266.17 88.2657C266.057 88.4035 265.988 88.5715 265.97 88.7486C265.953 88.9257 265.988 89.1041 266.071 89.2612C266.187 89.4745 266.374 89.6338 266.607 89.7031Z" fill="#F3F4F6"/>
<path fill-rule="evenodd" clip-rule="evenodd" d="M266.607 89.7031L280.015 93.7135C280.129 93.7473 280.249 93.7581 280.367 93.7453C280.486 93.7325 280.6 93.6963 280.705 93.6388C280.809 93.5823 280.901 93.5057 280.975 93.4133C281.05 93.3209 281.105 93.2146 281.137 93.1006C281.205 92.8721 281.18 92.626 281.067 92.4162C280.953 92.2064 280.762 92.0499 280.534 91.981L267.125 87.9706C266.955 87.9202 266.773 87.9213 266.603 87.9738C266.433 88.0263 266.282 88.1278 266.17 88.2657C266.057 88.4035 265.988 88.5715 265.97 88.7486C265.953 88.9257 265.988 89.1041 266.071 89.2612C266.187 89.4745 266.374 89.6338 266.607 89.7031Z" fill="#D1D5DB"/>
<path fill-rule="evenodd" clip-rule="evenodd" d="M263.415 100.369L291.964 108.908C292.197 108.978 292.441 108.948 292.653 108.833C292.81 108.747 292.937 108.618 293.02 108.46C293.103 108.302 293.137 108.124 293.119 107.947C293.101 107.77 293.031 107.602 292.917 107.465C292.804 107.327 292.653 107.226 292.482 107.175L263.933 98.6356C263.704 98.5668 263.456 98.5922 263.245 98.7062C263.033 98.8201 262.876 99.0132 262.807 99.2431C262.739 99.4729 262.764 99.7207 262.878 99.9319C262.992 100.143 263.185 100.3 263.415 100.369Z" fill="#F3F4F6"/>
<path fill-rule="evenodd" clip-rule="evenodd" d="M263.415 100.369L270.493 102.487C270.72 102.544 270.96 102.512 271.163 102.397C271.366 102.282 271.517 102.093 271.584 101.869C271.651 101.645 271.629 101.404 271.522 101.196C271.416 100.988 271.233 100.829 271.012 100.753L263.933 98.6356C263.704 98.5668 263.456 98.5922 263.245 98.7062C263.033 98.8201 262.876 99.0132 262.807 99.2431C262.739 99.4729 262.764 99.7207 262.878 99.9319C262.992 100.143 263.185 100.3 263.415 100.369Z" fill="#D1D5DB"/>
<path fill-rule="evenodd" clip-rule="evenodd" d="M261.173 107.865L289.722 116.404C289.955 116.474 290.199 116.444 290.411 116.329C290.516 116.273 290.608 116.196 290.682 116.104C290.756 116.012 290.811 115.905 290.844 115.791C290.912 115.563 290.887 115.317 290.773 115.107C290.66 114.897 290.468 114.74 290.24 114.672L261.691 106.132C261.461 106.063 261.214 106.088 261.002 106.202C260.791 106.316 260.634 106.509 260.565 106.739C260.497 106.969 260.522 107.217 260.636 107.428C260.75 107.639 260.943 107.796 261.173 107.865Z" fill="#F3F4F6"/>
<path fill-rule="evenodd" clip-rule="evenodd" d="M261.173 107.865L285.108 115.025C285.341 115.094 285.585 115.064 285.799 114.949C285.955 114.864 286.082 114.734 286.165 114.576C286.248 114.419 286.282 114.24 286.264 114.063C286.246 113.886 286.175 113.718 286.062 113.581C285.949 113.443 285.797 113.343 285.627 113.291L261.691 106.132C261.461 106.063 261.214 106.088 261.002 106.202C260.791 106.316 260.634 106.509 260.565 106.739C260.497 106.969 260.522 107.217 260.636 107.428C260.75 107.639 260.943 107.796 261.173 107.865Z" fill="#D1D5DB"/>
<path fill-rule="evenodd" clip-rule="evenodd" d="M257.982 118.533L286.531 127.072C286.764 127.141 287.008 127.111 287.221 126.996C287.377 126.911 287.505 126.782 287.587 126.624C287.67 126.466 287.705 126.288 287.687 126.111C287.668 125.934 287.598 125.766 287.485 125.628C287.372 125.491 287.22 125.39 287.05 125.339L258.501 116.799C258.33 116.748 258.148 116.749 257.977 116.802C257.807 116.854 257.656 116.956 257.543 117.094C257.43 117.232 257.361 117.4 257.344 117.578C257.327 117.755 257.363 117.934 257.447 118.091C257.562 118.303 257.749 118.463 257.982 118.533Z" fill="#F3F4F6"/>
<path fill-rule="evenodd" clip-rule="evenodd" d="M257.839 118.489L274.006 123.325C274.239 123.394 274.483 123.364 274.695 123.249C274.851 123.164 274.979 123.034 275.062 122.877C275.145 122.719 275.179 122.541 275.161 122.364C275.143 122.187 275.072 122.019 274.959 121.881C274.846 121.744 274.694 121.643 274.524 121.592L258.357 116.756C258.187 116.705 258.005 116.706 257.834 116.759C257.664 116.811 257.513 116.913 257.401 117.051C257.288 117.189 257.219 117.357 257.202 117.535C257.184 117.712 257.22 117.89 257.303 118.047C257.419 118.26 257.606 118.419 257.839 118.489Z" fill="#D1D5DB"/>
<path fill-rule="evenodd" clip-rule="evenodd" d="M249.475 173.789C248.332 173.789 247.396 174.725 247.396 175.868C247.396 176.42 247.615 176.95 248.005 177.341C248.394 177.733 248.923 177.954 249.475 177.956C250.627 177.956 251.563 177.02 251.563 175.868C251.561 175.316 251.34 174.787 250.949 174.397C250.557 174.008 250.028 173.789 249.475 173.789Z" fill="#9CA3AF"/>
<path fill-rule="evenodd" clip-rule="evenodd" d="M138.745 173.476C138.745 173.476 140.113 180.037 138.556 184.726C137.827 186.913 129.178 187.849 125.011 187.849C110.098 187.849 106.264 179.515 106.264 179.515V169.102L108.028 169.732C108.028 169.732 115.48 175.537 124.489 175.87C133.498 176.212 138.745 173.476 138.745 173.476Z" fill="#D1D5DB"/>
<path d="M138.556 184.726C140.113 180.037 138.745 173.476 138.745 173.476C138.745 173.476 133.498 176.212 124.489 175.87C115.48 175.537 108.028 169.732 108.028 169.732L106.264 169.102V179.515C106.264 179.515 110.098 187.849 125.011 187.849C129.178 187.849 137.827 186.913 138.556 184.726Z" stroke="#111827" stroke-width="1.9134"/>
<path d="M115.711 175.174C116.314 174.481 116.953 173.806 117.61 173.149C126.871 163.906 139.615 158.164 153.655 158.164H210.94C224.188 158.164 236.293 163.276 245.401 171.637" stroke="#111827" stroke-width="1.9134"/>
<path fill-rule="evenodd" clip-rule="evenodd" d="M178.87 168.534H181.561C183.829 168.534 186.007 167.634 187.609 166.032C189.212 164.427 190.112 162.252 190.111 159.984V153.171C190.111 150.903 189.211 148.725 187.609 147.123C186.005 145.521 183.829 144.621 181.561 144.621H178.87C176.602 144.621 174.424 145.521 172.822 147.123C171.22 148.728 170.32 150.903 170.32 153.171V159.984C170.32 162.252 171.22 164.43 172.822 166.032C174.427 167.635 176.602 168.535 178.87 168.534Z" fill="white"/>
<path d="M101.016 208.488C99.081 207.831 97.182 207.156 95.328 206.463C94.95 206.319 94.572 206.175 94.203 206.031C80.325 200.721 68.697 194.142 60.084 186.672M233.117 216.003C219.185 218.271 195.776 220.449 180.215 220.449C163.529 220.449 144.872 218.595 130.085 216.003M294.88 191.006C286.789 196.883 276.745 202.094 265.18 206.441C263.542 207.053 261.886 207.647 260.194 208.223M191.066 145.582H171.277V167.581H191.066V145.582Z" stroke="#111827" stroke-width="1.9134"/>
<path d="M317.56 166.706C317.56 202.517 256.306 231.542 180.733 231.542C148.666 231.542 119.164 226.313 95.8453 217.556C81.4723 212.165 69.4482 205.433 60.6012 197.765C49.9542 188.54 43.9062 177.956 43.9062 166.706C43.9062 160.766 45.5893 155.006 48.7483 149.543" stroke="#111827" stroke-width="1.9134"/>
<path d="M176.618 169.267C174.107 173.191 171.308 176.926 168.23 180.418C168.014 180.67 167.717 180.949 167.393 180.877C167.222 180.841 167.087 180.724 166.961 180.607C161.111 175.117 157.448 167.35 156.935 159.34M181.931 169.267C184.433 173.191 187.241 176.926 190.31 180.418C190.535 180.67 190.823 180.949 191.156 180.877C191.318 180.841 191.462 180.724 191.588 180.607C197.438 175.117 201.101 167.35 201.614 159.34" stroke="#111827" stroke-width="1.8"/>
<path fill-rule="evenodd" clip-rule="evenodd" d="M94.9102 111.371C92.4262 111.371 90.4102 113.387 90.4102 115.871C90.4102 118.355 92.4262 120.371 94.9102 120.371C97.3942 120.371 99.4102 118.355 99.4102 115.871C99.4102 113.387 97.3942 111.371 94.9102 111.371Z" fill="#111827"/>
<path fill-rule="evenodd" clip-rule="evenodd" d="M110.947 175.867C109.804 175.867 108.868 176.803 108.868 177.946C108.868 178.498 109.087 179.028 109.477 179.419C109.866 179.811 110.395 180.032 110.947 180.034C112.099 180.034 113.035 179.098 113.035 177.946C113.033 177.394 112.812 176.865 112.42 176.476C112.029 176.086 111.499 175.867 110.947 175.867Z" fill="#9CA3AF"/>
<path fill-rule="evenodd" clip-rule="evenodd" d="M66.7985 181.055L58.9685 190.766L54.4775 179.129L66.7985 181.055Z" fill="#67C16B"/>
<path d="M58.9685 190.766L66.7985 181.055L54.4775 179.129L58.9685 190.766Z" stroke="#2E7D32" stroke-width="1.9134"/>
<path fill-rule="evenodd" clip-rule="evenodd" d="M314.282 149.082C311.798 149.082 309.782 151.098 309.782 153.582C309.782 156.066 311.798 158.082 314.282 158.082C316.766 158.082 318.782 156.066 318.782 153.582C318.782 151.098 316.766 149.082 314.282 149.082Z" fill="white"/>
<path d="M314.282 149.082C311.798 149.082 309.782 151.098 309.782 153.582C309.782 156.066 311.798 158.082 314.282 158.082C316.766 158.082 318.782 156.066 318.782 153.582C318.782 151.098 316.766 149.082 314.282 149.082Z" stroke="#111827" stroke-width="1.9134"/>
<path fill-rule="evenodd" clip-rule="evenodd" d="M178.633 237.31L177.337 230.911C177.256 230.506 176.986 230.173 176.608 230.02L170.605 227.455C169.66 227.05 169.588 225.745 170.479 225.241L176.167 222.028C176.518 221.83 176.752 221.461 176.788 221.056L177.373 214.558C177.463 213.532 178.687 213.055 179.443 213.748L184.249 218.167C184.546 218.446 184.969 218.554 185.365 218.464L191.728 217.006C192.727 216.772 193.555 217.789 193.132 218.725L190.423 224.665C190.252 225.034 190.27 225.466 190.486 225.817L193.834 231.415C194.365 232.297 193.654 233.404 192.637 233.287L186.148 232.54C185.743 232.495 185.338 232.648 185.068 232.954L180.775 237.877C180.109 238.651 178.84 238.318 178.633 237.31Z" fill="white"/>
<path d="M177.337 230.911L178.633 237.31C178.84 238.318 180.109 238.651 180.775 237.877L185.068 232.954C185.338 232.648 185.743 232.495 186.148 232.54L192.637 233.287C193.654 233.404 194.365 232.297 193.834 231.415L190.486 225.817C190.27 225.466 190.252 225.034 190.423 224.665L193.132 218.725C193.555 217.789 192.727 216.772 191.728 217.006L185.365 218.464C184.969 218.554 184.546 218.446 184.249 218.167L179.443 213.748C178.687 213.055 177.463 213.532 177.373 214.558L176.788 221.056C176.752 221.461 176.518 221.83 176.167 222.028L170.479 225.241C169.588 225.745 169.66 227.05 170.605 227.455L176.608 230.02C176.986 230.173 177.256 230.506 177.337 230.911Z" stroke="#111827" stroke-width="1.9134"/>
<path fill-rule="evenodd" clip-rule="evenodd" d="M218.038 133.991C209.389 144.953 195.322 152.09 179.437 152.09C175.198 152.09 171.085 151.577 167.17 150.623C166.576 150.479 165.982 150.317 165.397 150.155C165.352 150.146 165.307 150.128 165.262 150.119C154.516 146.933 145.3 140.246 138.928 131.39C138.847 131.265 138.763 131.142 138.676 131.021C134.302 124.406 131.782 116.63 131.782 108.332C131.782 105.461 132.088 102.653 132.664 99.9348C138.496 101.623 144.539 102.469 150.61 102.446C163.759 102.446 175.711 98.6118 184.558 92.3658C189.13 89.2338 192.973 85.1658 195.862 80.4408C195.88 80.4138 195.898 80.3868 195.925 80.3508C196.42 79.6218 197.41 79.4418 198.148 79.9458C215.653 91.8708 223.627 113.597 218.038 133.991Z" fill="white"/>
<path d="M179.437 152.09C195.322 152.09 209.389 144.953 218.038 133.991C223.627 113.597 215.653 91.8708 198.148 79.9458C197.41 79.4418 196.42 79.6218 195.925 80.3508C195.898 80.3868 195.88 80.4138 195.862 80.4408C192.977 85.1685 189.125 89.2324 184.558 92.3658C175.711 98.6118 163.759 102.446 150.61 102.446C144.535 102.473 138.487 101.618 132.664 99.9348C132.088 102.653 131.782 105.461 131.782 108.332C131.782 116.63 134.302 124.406 138.676 131.021C138.766 131.147 138.847 131.264 138.928 131.39C145.3 140.246 154.516 146.933 165.262 150.119C165.307 150.128 165.352 150.146 165.397 150.155C165.982 150.317 166.576 150.479 167.17 150.623C171.085 151.577 175.198 152.09 179.437 152.09Z" stroke="#111827" stroke-width="1.9134"/>
<path fill-rule="evenodd" clip-rule="evenodd" d="M130.531 131.217C130.531 131.217 118.498 135.141 118.759 127.734C119.029 120.318 122.422 116.313 125.653 114.387C128.875 112.47 130.009 113.172 130.009 113.172L130.531 131.217Z" fill="white"/>
<path d="M118.759 127.734C118.498 135.141 130.531 131.217 130.531 131.217L130.009 113.172C130.009 113.172 128.875 112.47 125.653 114.387C122.422 116.313 119.029 120.318 118.759 127.734Z" stroke="#111827" stroke-width="1.9134"/>
<path fill-rule="evenodd" clip-rule="evenodd" d="M199.028 57.6259H199.037C216.875 64.8979 229.43 82.3219 229.43 102.662C229.43 114.605 225.101 125.549 217.892 134.018C219.107 129.788 219.755 125.324 219.755 120.707C219.755 104.561 211.844 90.2599 199.658 81.4129C199.355 81.1918 199.009 81.0351 198.643 80.9523C198.277 80.8696 197.897 80.8625 197.528 80.9316C197.159 81.0007 196.808 81.1445 196.496 81.3542C196.185 81.5639 195.919 81.835 195.716 82.1509C193.133 86.1739 189.587 89.7739 185.294 92.7979C176.627 98.9089 164.954 102.662 152.102 102.662C149.697 102.657 147.293 102.519 144.902 102.248C142.685 108.349 141.555 114.791 141.563 121.283C141.563 125.486 142.022 129.572 142.886 133.478C135.434 124.937 130.916 113.795 130.916 101.6C130.916 100.745 130.943 99.8809 130.988 99.0349C129.849 98.6245 128.724 98.1772 127.613 97.6939C126.281 97.0999 124.985 96.4699 123.734 95.7949C119.594 93.5449 119.927 87.5059 124.229 85.5889C127.937 83.9419 131.951 82.6459 136.208 81.7819C140.213 73.4493 146.494 66.4197 154.325 61.505C162.155 56.5904 171.216 53.9913 180.461 54.0079C187.031 54.0079 193.304 55.2949 199.028 57.6259Z" fill="#111827"/>
<path fill-rule="evenodd" clip-rule="evenodd" d="M126.667 177.732C114.121 178.407 103.402 168.786 102.727 156.231C102.052 143.685 111.673 132.966 124.228 132.291C134.119 131.76 142.876 137.628 146.467 146.295L147.214 145.683C150.733 142.848 153.946 145.764 156.79 149.283C159.625 152.793 158.266 156.204 154.756 159.048L143.263 169.164C139.348 174.078 133.435 177.372 126.667 177.732Z" fill="white"/>
<path d="M102.727 156.231C103.402 168.786 114.121 178.407 126.667 177.732C133.435 177.372 139.348 174.078 143.263 169.164L154.756 159.048C158.266 156.204 159.625 152.793 156.79 149.283C153.946 145.764 150.733 142.848 147.214 145.683L146.467 146.295C142.876 137.628 134.119 131.76 124.228 132.291C111.673 132.966 102.052 143.685 102.727 156.231Z" stroke="#111827" stroke-width="1.2915"/>
<path fill-rule="evenodd" clip-rule="evenodd" d="M158.304 152.848C158.385 154.306 157.827 155.719 156.774 157.042C156.72 157.114 156.657 157.186 156.603 157.258L156.423 157.465C156.315 157.591 156.198 157.708 156.09 157.825C155.685 158.239 155.244 158.653 154.758 159.049L143.265 169.165C139.35 174.079 133.437 177.373 126.669 177.733C114.123 178.408 103.404 168.787 102.729 156.232C102.054 143.686 111.675 132.967 124.23 132.292C134.031 131.761 142.707 137.521 146.361 146.044C146.811 145.747 150.285 144.505 151.545 144.802C153.597 145.27 155.613 146.143 156.918 147.997C157.917 149.41 158.406 151.12 158.304 152.848Z" fill="white"/>
<path d="M156.774 157.042C157.827 155.719 158.385 154.306 158.304 152.848C158.403 151.183 157.953 149.464 156.918 147.997C155.613 146.143 153.597 145.27 151.545 144.802C150.285 144.505 146.811 145.747 146.361 146.044C142.707 137.521 134.031 131.761 124.23 132.292C111.675 132.967 102.054 143.686 102.729 156.232C103.404 168.787 114.123 178.408 126.669 177.733C133.437 177.373 139.35 174.079 143.265 169.165L154.758 159.049C155.244 158.653 155.685 158.239 156.09 157.825C156.198 157.708 156.315 157.591 156.423 157.465L156.603 157.258C156.657 157.186 156.72 157.114 156.774 157.042Z" stroke="#111827" stroke-width="1.9134"/>
<path fill-rule="evenodd" clip-rule="evenodd" d="M126.303 146.03C126.591 147.72 126.197 149.455 125.206 150.854C124.216 152.254 122.71 153.202 121.02 153.491C119.331 153.778 117.597 153.383 116.2 152.392C114.802 151.402 113.856 149.896 113.568 148.208L111.21 134.42C110.616 130.901 112.974 127.562 116.493 126.959C120.012 126.365 123.351 128.723 123.954 132.242L126.303 146.03Z" fill="white"/>
<path d="M121.02 153.491C122.71 153.202 124.216 152.254 125.206 150.854C126.197 149.455 126.591 147.72 126.303 146.03L123.954 132.242C123.351 128.723 120.012 126.365 116.493 126.959C112.974 127.562 110.616 130.901 111.21 134.42L113.568 148.208C113.856 149.896 114.802 151.402 116.2 152.392C117.597 153.383 119.331 153.778 121.02 153.491Z" stroke="#111827" stroke-width="1.9134"/>
<path fill-rule="evenodd" clip-rule="evenodd" d="M240.362 127.734C240.623 135.141 228.59 131.217 228.59 131.217L229.112 113.172C229.112 113.172 230.246 112.47 233.477 114.387C236.699 116.313 240.101 120.318 240.362 127.734Z" fill="white"/>
<path d="M228.59 131.217C228.59 131.217 240.623 135.141 240.362 127.734C240.101 120.318 236.699 116.313 233.477 114.387C230.246 112.47 229.112 113.172 229.112 113.172L228.59 131.217Z" stroke="#111827" stroke-width="1.9134"/>
<path fill-rule="evenodd" clip-rule="evenodd" d="M212.659 146.295C216.25 137.628 225.007 131.76 234.898 132.291C247.444 132.966 257.074 143.685 256.399 156.231C255.724 168.786 245.005 178.407 232.459 177.732C225.691 177.372 219.769 174.078 215.863 169.164L201.625 158.418C198.106 155.583 197.557 150.426 200.401 146.916C203.236 143.397 208.393 142.848 211.903 145.683L212.659 146.295Z" fill="white"/>
<path d="M234.898 132.291C225.007 131.76 216.25 137.628 212.659 146.295L211.903 145.683C208.393 142.848 203.236 143.397 200.401 146.916C197.557 150.426 198.106 155.583 201.625 158.418L215.863 169.164C219.769 174.078 225.691 177.372 232.459 177.732C245.005 178.407 255.724 168.786 256.399 156.231C257.074 143.685 247.444 132.966 234.898 132.291Z" stroke="#111827" stroke-width="1.9134"/>
<path fill-rule="evenodd" clip-rule="evenodd" d="M242.624 126.959C246.143 127.562 248.51 130.901 247.907 134.42L245.558 148.208C245.018 151.358 242.291 153.581 239.195 153.581C238.835 153.581 238.466 153.554 238.097 153.491C234.578 152.888 232.22 149.549 232.814 146.03L235.172 132.242C235.766 128.723 239.114 126.365 242.624 126.959Z" fill="white"/>
<path d="M247.907 134.42C248.196 132.73 247.802 130.994 246.811 129.595C245.82 128.196 244.314 127.248 242.624 126.959C239.114 126.365 235.766 128.723 235.172 132.242L232.814 146.03C232.22 149.549 234.578 152.888 238.097 153.491C238.466 153.554 238.835 153.581 239.195 153.581C242.291 153.581 245.018 151.358 245.558 148.208L247.907 134.42Z" stroke="#111827" stroke-width="1.9134"/>
<path fill-rule="evenodd" clip-rule="evenodd" d="M251.72 135.569C254.663 136.073 256.643 138.863 256.139 141.806L254.168 153.344C253.718 155.981 251.432 157.844 248.849 157.844C248.543 157.844 248.237 157.817 247.931 157.763C247.231 157.643 246.562 157.388 245.961 157.01C245.36 156.632 244.839 156.139 244.429 155.56C244.019 154.981 243.726 154.326 243.569 153.634C243.412 152.942 243.392 152.225 243.512 151.526L245.474 139.988C245.718 138.574 246.513 137.316 247.683 136.487C248.854 135.659 250.306 135.329 251.72 135.569Z" fill="white"/>
<path d="M256.139 141.806C256.258 141.106 256.239 140.39 256.081 139.697C255.924 139.005 255.632 138.351 255.221 137.772C254.811 137.192 254.291 136.7 253.69 136.322C253.089 135.944 252.42 135.688 251.72 135.569C250.306 135.329 248.854 135.659 247.683 136.487C246.513 137.316 245.718 138.574 245.474 139.988L243.512 151.526C243.392 152.225 243.412 152.942 243.569 153.634C243.726 154.326 244.019 154.981 244.429 155.56C244.839 156.139 245.36 156.632 245.961 157.01C246.562 157.388 247.231 157.643 247.931 157.763C248.237 157.817 248.543 157.844 248.849 157.844C251.432 157.844 253.718 155.981 254.168 153.344L256.139 141.806Z" stroke="#111827" stroke-width="1.9134"/>
<path fill-rule="evenodd" clip-rule="evenodd" d="M230.093 160.37L211.904 145.691C208.394 142.847 203.237 143.396 200.402 146.915C199.726 147.751 199.221 148.712 198.917 149.743C198.612 150.775 198.514 151.856 198.628 152.925C198.742 153.994 199.065 155.03 199.579 155.974C200.094 156.918 200.789 157.751 201.626 158.426L215.864 169.163H232.766C233.729 166.058 232.775 162.539 230.093 160.37Z" fill="white"/>
<path d="M230.093 160.37L211.904 145.691C208.394 142.847 203.237 143.396 200.402 146.915C199.726 147.751 199.221 148.712 198.917 149.743C198.612 150.775 198.514 151.856 198.628 152.925C198.742 153.994 199.065 155.03 199.579 155.974C200.094 156.918 200.789 157.751 201.626 158.426L215.864 169.163H232.766C233.729 166.058 232.775 162.539 230.093 160.37Z" stroke="#111827" stroke-width="1.9134"/>
<path d="M232.761 169.16C233.733 166.055 232.77 162.536 230.088 160.367" stroke="#111827" stroke-width="1.2915"/>
<path fill-rule="evenodd" clip-rule="evenodd" d="M115.614 151.522C115.734 152.222 115.714 152.938 115.557 153.631C115.399 154.323 115.107 154.977 114.697 155.556C114.286 156.136 113.766 156.628 113.165 157.006C112.564 157.384 111.895 157.64 111.195 157.759C110.889 157.813 110.583 157.84 110.277 157.84C109.001 157.839 107.766 157.387 106.791 156.564C105.816 155.74 105.164 154.598 104.949 153.34L102.987 141.802C102.868 141.103 102.887 140.386 103.045 139.694C103.202 139.002 103.495 138.348 103.905 137.769C104.734 136.599 105.993 135.806 107.406 135.565C108.819 135.324 110.27 135.654 111.44 136.483C112.61 137.312 113.402 138.571 113.643 139.984L115.614 151.522Z" fill="white"/>
<path d="M111.195 157.759C111.895 157.64 112.564 157.384 113.165 157.006C113.766 156.628 114.286 156.136 114.697 155.556C115.107 154.977 115.399 154.323 115.557 153.631C115.714 152.938 115.734 152.222 115.614 151.522L113.643 139.984C113.524 139.285 113.268 138.615 112.89 138.015C112.512 137.414 112.019 136.893 111.44 136.483C110.861 136.073 110.206 135.78 109.514 135.623C108.822 135.466 108.106 135.446 107.406 135.565C106.706 135.685 106.037 135.941 105.436 136.319C104.836 136.697 104.315 137.189 103.905 137.769C103.495 138.348 103.202 139.002 103.045 139.694C102.887 140.386 102.868 141.103 102.987 141.802L104.949 153.34C105.399 155.977 107.685 157.84 110.277 157.84C110.583 157.84 110.889 157.813 111.195 157.759Z" stroke="#111827" stroke-width="1.9134"/>
<path fill-rule="evenodd" clip-rule="evenodd" d="M188.143 134.255C183.778 129.737 174.94 129.737 170.575 134.255H143.854V114.59H217.618V134.255H188.143Z" fill="#111827"/>
<path fill-rule="evenodd" clip-rule="evenodd" d="M211.699 105.258C197.794 105.258 186.526 116.526 186.526 130.431C186.526 144.336 197.794 155.613 211.699 155.613C225.604 155.613 236.881 144.336 236.881 130.431C236.881 116.526 225.604 105.258 211.699 105.258Z" fill="#111827"/>
<path fill-rule="evenodd" clip-rule="evenodd" d="M211.699 110.621C200.764 110.621 191.89 119.495 191.89 130.43C191.89 141.374 200.764 150.248 211.699 150.248C222.643 150.248 231.517 141.374 231.517 130.43C231.517 119.495 222.643 110.621 211.699 110.621Z" fill="#67C16B"/>
<path d="M211.699 110.621C200.764 110.621 191.89 119.495 191.89 130.43C191.89 141.374 200.764 150.248 211.699 150.248C222.643 150.248 231.517 141.374 231.517 130.43C231.517 119.495 222.643 110.621 211.699 110.621Z" stroke="#2E7D32" stroke-width="1.9134"/>
<path fill-rule="evenodd" clip-rule="evenodd" d="M147.579 105.258C133.674 105.258 122.406 116.526 122.406 130.431C122.406 144.336 133.674 155.613 147.579 155.613C161.484 155.613 172.761 144.336 172.761 130.431C172.761 116.526 161.484 105.258 147.579 105.258Z" fill="#111827"/>
<path fill-rule="evenodd" clip-rule="evenodd" d="M147.579 110.621C136.644 110.621 127.77 119.495 127.77 130.43C127.77 141.374 136.644 150.248 147.579 150.248C158.523 150.248 167.397 141.374 167.397 130.43C167.397 119.495 158.523 110.621 147.579 110.621Z" fill="#67C16B"/>
<path d="M147.579 110.621C136.644 110.621 127.77 119.495 127.77 130.43C127.77 141.374 136.644 150.248 147.579 150.248C158.523 150.248 167.397 141.374 167.397 130.43C167.397 119.495 158.523 110.621 147.579 110.621Z" stroke="#2E7D32" stroke-width="1.9134"/>
<path fill-rule="evenodd" clip-rule="evenodd" d="M143.267 169.161L150.998 162.285L155.057 158.703C156.724 157.529 157.856 155.742 158.206 153.733C158.555 151.725 158.093 149.66 156.92 147.993C154.472 144.528 149.675 143.691 146.21 146.139L128.273 158.775C127.015 159.661 126.052 160.904 125.508 162.343C124.964 163.782 124.865 165.351 125.222 166.848L143.267 169.161Z" fill="white"/>
<path d="M106.918 169.16C106.918 169.16 102.553 197.753 102.904 202.109C103.255 206.474 107.62 213.098 114.937 214.664C122.263 216.239 131.866 212.405 131.866 212.405M252.605 168.58C252.605 168.58 256.763 196.192 256.412 200.548C256.061 204.913 251.705 211.537 244.379 213.103C237.053 214.678 224.624 210.223 224.624 210.223M176.543 142.488C176.543 142.488 179.09 141.804 180.989 142.461M143.267 169.159L150.998 162.283L155.057 158.701C156.724 157.528 157.857 155.741 158.206 153.732C158.555 151.724 158.093 149.659 156.92 147.991C154.472 144.526 149.675 143.689 146.21 146.137L128.273 158.773C127.015 159.66 126.052 160.903 125.509 162.342C124.965 163.781 124.865 165.35 125.222 166.846L143.267 169.159Z" stroke="#111827" stroke-width="1.9134"/>
<path fill-rule="evenodd" clip-rule="evenodd" d="M140.111 127.957C138.968 127.957 138.032 128.893 138.032 130.036C138.032 130.588 138.251 131.118 138.641 131.509C139.03 131.901 139.559 132.122 140.111 132.124C141.263 132.124 142.199 131.188 142.199 130.036C142.197 129.484 141.976 128.955 141.584 128.565C141.193 128.176 140.663 127.957 140.111 127.957ZM146.882 127.957C145.739 127.957 144.803 128.893 144.803 130.036C144.803 130.588 145.022 131.118 145.411 131.509C145.801 131.901 146.33 132.122 146.882 132.124C148.034 132.124 148.97 131.188 148.97 130.036C148.968 129.484 148.747 128.955 148.355 128.565C147.964 128.176 147.434 127.957 146.882 127.957ZM153.652 127.957C152.509 127.957 151.573 128.893 151.573 130.036C151.573 130.588 151.791 131.118 152.181 131.509C152.571 131.901 153.1 132.122 153.652 132.124C154.804 132.124 155.74 131.188 155.74 130.036C155.737 129.484 155.516 128.955 155.125 128.565C154.734 128.176 154.204 127.957 153.652 127.957ZM205.729 127.957C204.586 127.957 203.65 128.893 203.65 130.036C203.65 130.588 203.869 131.118 204.259 131.509C204.648 131.901 205.177 132.122 205.729 132.124C206.881 132.124 207.817 131.188 207.817 130.036C207.815 129.484 207.594 128.955 207.203 128.565C206.811 128.176 206.282 127.957 205.729 127.957ZM212.5 127.957C211.357 127.957 210.421 128.893 210.421 130.036C210.421 130.588 210.64 131.118 211.029 131.509C211.419 131.901 211.948 132.122 212.5 132.124C213.652 132.124 214.588 131.188 214.588 130.036C214.586 129.484 214.365 128.955 213.973 128.565C213.582 128.176 213.052 127.957 212.5 127.957ZM219.27 127.957C218.127 127.957 217.191 128.893 217.191 130.036C217.191 130.588 217.41 131.118 217.799 131.509C218.189 131.901 218.718 132.122 219.27 132.124C220.422 132.124 221.358 131.188 221.358 130.036C221.355 129.484 221.134 128.955 220.743 128.565C220.352 128.176 219.822 127.957 219.27 127.957Z" fill="white"/>
<path fill-rule="evenodd" clip-rule="evenodd" d="M279.99 216.824L283.066 209.702L275.944 206.625L272.868 213.747L279.99 216.824Z" fill="#67C16B"/>
<path d="M277.2 206.129L274.125 213.247L279.487 215.565L282.562 208.446L277.2 206.129Z" stroke="#2E7D32" stroke-width="1.9134"/>
<path d="M133.653 208.488C132.78 210.612 132.177 212.781 131.862 214.968M224.35 209.523C225.223 211.647 225.817 213.816 226.132 216.003" stroke="#111827" stroke-width="1.8"/>
<path fill-rule="evenodd" clip-rule="evenodd" d="M84.6866 157.188L79.9076 160.761L67.8926 147.621C63.9186 149.848 59.2439 150.473 54.8246 149.367C45.2486 147 39.3896 137.415 41.7296 127.956C44.0696 118.506 53.7266 112.755 63.2936 115.122C72.8606 117.489 78.7196 127.074 76.3796 136.533C75.7136 139.251 74.4356 141.654 72.7346 143.652L83.3366 155.658L83.8586 153.525L85.3886 154.335L84.6866 157.188Z" fill="#9CA3AF"/>
<path fill-rule="evenodd" clip-rule="evenodd" d="M75.9191 134.895C75.3971 137.001 74.4611 138.9 73.2101 140.538L85.3871 154.326L80.6171 157.908L68.5031 144.651C64.7411 146.847 60.0341 147.621 55.3271 146.46C46.0931 144.174 40.3511 135.3 42.4931 126.624C44.6351 117.957 53.8601 112.782 63.0851 115.068C72.3191 117.354 78.0701 126.228 75.9191 134.895Z" fill="#E5E7EB"/>
<path d="M45.1464 121.551C43.7111 123.439 42.6788 125.602 42.1134 127.905C39.7734 137.364 45.6324 146.949 55.2084 149.316C59.6288 150.419 64.3035 149.791 68.2764 147.561L80.2914 160.71L85.0704 157.137L85.7724 154.275L74.5764 141.603C75.5484 140.055 76.3044 138.345 76.7634 136.473C79.1034 127.023 73.2444 117.438 63.6774 115.071L63.5784 115.044L63.4704 115.017C56.2074 113.217 48.9534 116.043 45.1464 121.551Z" stroke="#111827" stroke-width="1.8"/>
<path fill-rule="evenodd" clip-rule="evenodd" d="M46.9769 127.738C45.3884 134.159 49.5797 140.712 56.3333 142.384C63.0869 144.054 69.8513 140.211 71.4389 133.789C73.0256 127.377 68.8361 120.814 62.0825 119.144C55.3289 117.473 48.5627 121.325 46.9769 127.738Z" fill="white"/>
<path fill-rule="evenodd" clip-rule="evenodd" d="M48.96 138.14C46.8612 135.36 45.9801 131.778 46.8558 128.238C48.4425 121.825 55.2078 117.973 61.9614 119.644C66.1194 120.672 69.3054 123.554 70.7697 127.114C69.0624 124.851 66.5487 123.119 63.5193 122.369C56.7666 120.699 50.0004 124.551 48.4137 130.963C47.8242 133.352 48.015 135.867 48.96 138.14Z" fill="#E5E7EB"/>
<path d="M46.9769 127.738C45.3884 134.159 49.5797 140.712 56.3333 142.384C63.0869 144.054 69.8513 140.211 71.4389 133.789C73.0256 127.377 68.8361 120.814 62.0825 119.144C55.3289 117.473 48.5627 121.325 46.9769 127.738Z" stroke="#111827" stroke-width="1.8"/>
<path d="M58.4862 137.816C58.4862 137.816 55.8402 137.861 54.1572 136.772C52.4742 135.683 52.2402 134.18 52.2402 134.18" stroke="#111827" stroke-width="1.9134"/>
<path fill-rule="evenodd" clip-rule="evenodd" d="M179.15 118.621C178.178 118.621 177.395 119.404 177.395 120.376C177.395 121.348 178.178 122.131 179.15 122.131C180.122 122.131 180.905 121.348 180.905 120.376C180.905 119.404 180.122 118.621 179.15 118.621Z" fill="#4B5563"/>
<path fill-rule="evenodd" clip-rule="evenodd" d="M133.908 94.0156C128.994 94.0156 125.016 96.7876 125.016 100.208C125.016 103.637 128.994 106.409 133.908 106.409C138.813 106.409 142.791 103.637 142.791 100.208C142.791 96.7876 138.813 94.0156 133.908 94.0156Z" fill="#111827"/>
</svg>
