<svg width="360" height="270" viewBox="0 0 360 270" fill="none" xmlns="http://www.w3.org/2000/svg">
<path fill-rule="evenodd" clip-rule="evenodd" d="M112.125 133.624L117.687 128.215C118.992 127.045 119.424 125.479 118.542 124.093C118.443 123.931 118.317 123.778 118.182 123.634C116.904 122.239 114.681 122.167 113.223 123.472L106.473 129.592L112.125 133.624Z" fill="white"/>
<path d="M112.125 133.624L117.687 128.215C118.992 127.045 119.424 125.479 118.542 124.093C118.443 123.931 118.317 123.778 118.182 123.634C116.904 122.239 114.681 122.167 113.223 123.472L106.473 129.592L112.125 133.624Z" stroke="#111827" stroke-width="1.9134"/>
<path fill-rule="evenodd" clip-rule="evenodd" d="M93.5163 108.17C97.6815 107.056 100.144 102.784 99.0306 98.6185L98.1918 95.4802C97.0785 91.315 92.8116 88.8409 88.6464 89.9542C87.656 90.2176 86.7274 90.6742 85.914 91.2977C85.1007 91.9213 84.4186 92.6994 83.907 93.5875C83.3928 94.474 83.0589 95.4534 82.9246 96.4694C82.7902 97.4854 82.858 98.518 83.124 99.5077L83.9628 102.647C84.2262 103.637 84.6828 104.566 85.3064 105.379C85.9299 106.193 86.7081 106.875 87.5961 107.386C88.4826 107.901 89.462 108.235 90.478 108.369C91.494 108.504 92.5265 108.436 93.5163 108.17Z" fill="white"/>
<path d="M97.3507 88.6172L82.2793 92.6456L86.6533 109.009L101.726 104.98L97.3507 88.6172Z" stroke="#111827" stroke-width="1.9134"/>
<path d="M92.387 109.035C91.1462 111.66 89.708 114.187 88.085 116.595C87.968 116.775 87.806 116.964 87.599 116.946C87.491 116.946 87.392 116.874 87.311 116.811C83.252 113.877 80.372 109.359 79.418 104.445M96.4541 107.406C98.8391 109.062 101.35 110.538 103.96 111.816C104.149 111.906 104.383 111.996 104.554 111.879C104.644 111.816 104.689 111.708 104.734 111.618C106.786 107.046 107.029 101.691 105.4 96.957" stroke="#111827" stroke-width="1.8"/>
<path d="M68.4551 167.473C73.8011 156.304 83.3231 144.829 96.1202 133.921M235.5 213.409C226.293 216.973 218.679 219.349 208.545 222.067C177.576 230.365 147.723 232.948 122.937 230.527C120.633 230.302 118.383 230.041 116.178 229.726C103.704 227.989 92.7155 224.884 83.7695 220.537C78.9545 218.197 74.7335 215.497 71.1875 212.455M324.969 130.68C325.095 133.236 324.915 135.819 324.456 138.438C323.52 143.757 321.396 149.184 318.219 154.611C314.268 161.334 308.697 168.048 301.722 174.564C288.717 186.714 271.851 197.712 250.638 207.162" stroke="#111827" stroke-width="1.9134"/>
<path d="M53.6484 168.793C58.1484 136.897 105.758 101.041 169.757 83.887C242.756 64.33 309.437 76.507 318.707 111.103C322.982 127.06 314.288 145.015 296.495 161.638C275.75 181.024 242.63 198.61 203.318 209.14C172.349 217.438 142.496 220.03 117.701 217.6C115.406 217.375 113.156 217.114 110.951 216.808C98.4774 215.062 87.4884 211.957 78.5424 207.61C73.4934 205.153 69.0924 202.309 65.4384 199.078" stroke="#111827" stroke-width="1.9134"/>
<path d="M128.504 204.628C119.252 204.232 111.188 202.972 104.717 200.902C95.5461 197.959 89.5521 193.378 87.9051 187.24C86.2401 181.03 89.2371 173.965 95.8791 166.747M235.923 94.3039C270.915 91.9639 297.447 99.5329 301.686 115.364C304.431 125.615 297.357 137.54 283.47 148.88" stroke="#111827" stroke-width="1.9134"/>
<path fill-rule="evenodd" clip-rule="evenodd" d="M53.6484 185.688C51.1644 185.688 49.1484 187.704 49.1484 190.188C49.1484 192.671 51.1644 194.688 53.6484 194.688C56.1324 194.688 58.1484 192.671 58.1484 190.188C58.1484 187.704 56.1324 185.688 53.6484 185.688Z" fill="#111827"/>
<path fill-rule="evenodd" clip-rule="evenodd" d="M265.895 166.75L258.065 176.461L253.574 164.824L265.895 166.75Z" fill="#67C16B"/>
<path d="M258.065 176.461L265.895 166.75L253.574 164.824L258.065 176.461Z" stroke="#2E7D32" stroke-width="1.9134"/>
<path fill-rule="evenodd" clip-rule="evenodd" d="M319.779 113.109C317.295 113.109 315.279 115.125 315.279 117.609C315.279 120.093 317.295 122.109 319.779 122.109C322.263 122.109 324.279 120.093 324.279 117.609C324.279 115.125 322.263 113.109 319.779 113.109Z" fill="white"/>
<path d="M319.779 113.109C317.295 113.109 315.279 115.125 315.279 117.609C315.279 120.093 317.295 122.109 319.779 122.109C322.263 122.109 324.279 120.093 324.279 117.609C324.279 115.125 322.263 113.109 319.779 113.109Z" stroke="#111827" stroke-width="1.9134"/>
<path fill-rule="evenodd" clip-rule="evenodd" d="M192.078 216.466C191.709 216.646 191.448 216.997 191.394 217.393L190.413 223.855C190.26 224.872 189.018 225.268 188.298 224.53L183.771 219.832C183.483 219.535 183.078 219.4 182.673 219.463L176.229 220.534C175.221 220.705 174.456 219.634 174.933 218.734L178.011 212.965C178.2 212.605 178.2 212.173 178.011 211.813L175.005 206.017C174.537 205.108 175.311 204.046 176.319 204.226L182.754 205.369C183.15 205.441 183.564 205.306 183.852 205.018L188.433 200.365C189.153 199.636 190.395 200.05 190.539 201.067L191.448 207.529C191.502 207.934 191.754 208.285 192.114 208.465L197.955 211.39C198.873 211.849 198.864 213.163 197.946 213.613L192.078 216.466Z" fill="white"/>
<path d="M191.394 217.393C191.448 216.997 191.709 216.646 192.078 216.466L197.946 213.613C198.864 213.163 198.873 211.849 197.955 211.39L192.114 208.465C191.754 208.285 191.502 207.934 191.448 207.529L190.539 201.067C190.395 200.05 189.153 199.636 188.433 200.365L183.852 205.018C183.564 205.306 183.15 205.441 182.754 205.369L176.319 204.226C175.311 204.046 174.537 205.108 175.005 206.017L178.011 211.813C178.2 212.173 178.2 212.605 178.011 212.965L174.933 218.734C174.456 219.634 175.221 220.705 176.229 220.534L182.673 219.463C183.078 219.4 183.483 219.535 183.771 219.832L188.298 224.53C189.018 225.268 190.26 224.872 190.413 223.855L191.394 217.393Z" stroke="#111827" stroke-width="1.9134"/>
<path fill-rule="evenodd" clip-rule="evenodd" d="M101.999 155.796L105.076 148.674L97.9541 145.598L94.877 152.719L101.999 155.796Z" fill="#67C16B"/>
<path d="M99.2081 145.102L96.1328 152.221L101.495 154.537L104.57 147.418L99.2081 145.102Z" stroke="#2E7D32" stroke-width="1.9134"/>
<path fill-rule="evenodd" clip-rule="evenodd" d="M119.391 117.585L224.499 91.6831L222.582 83.9062L117.475 109.808L119.391 117.585Z" fill="#6B7280"/>
<path d="M223.124 84.2344L118.02 110.135L119.721 117.038L224.826 91.1374L223.124 84.2344Z" stroke="#111827" stroke-width="0.9"/>
<path fill-rule="evenodd" clip-rule="evenodd" d="M129.127 158.899L234.234 132.997L232.318 125.219L127.211 151.121L129.127 158.899Z" fill="#6B7280"/>
<path d="M232.861 125.547L127.756 151.448L129.457 158.352L234.562 132.45L232.861 125.547Z" stroke="#111827" stroke-width="0.9"/>
<path fill-rule="evenodd" clip-rule="evenodd" d="M117.869 109.89L224.496 83.6138C225.24 83.4299 225.88 82.9584 226.277 82.3029C226.673 81.6473 226.793 80.8613 226.61 80.1173L219.892 52.8527C219.708 52.1093 219.236 51.4694 218.58 51.0733C217.925 50.6771 217.139 50.5571 216.395 50.7395L109.767 77.0159C109.023 77.2 108.383 77.6716 107.987 78.3271C107.591 78.9826 107.471 79.7685 107.654 80.5124L114.372 107.776C114.556 108.52 115.028 109.16 115.683 109.556C116.339 109.953 117.125 110.073 117.869 109.89Z" fill="#67C16B"/>
<path d="M220.362 50.7461L108.121 78.4058L115.764 109.419L228.005 81.7592L220.362 50.7461Z" stroke="#111827" stroke-width="1.9134"/>
<path fill-rule="evenodd" clip-rule="evenodd" d="M117.869 109.89L204.599 88.5171C205.342 88.3328 205.982 87.8612 206.379 87.2058C206.775 86.5504 206.895 85.7646 206.713 85.0206L199.994 57.7569C199.81 57.0131 199.339 56.3726 198.683 55.976C198.028 55.5795 197.241 55.4593 196.497 55.6419L109.767 77.016C109.023 77.2001 108.383 77.6717 107.987 78.3272C107.591 78.9827 107.471 79.7687 107.654 80.5125L114.372 107.776C114.556 108.52 115.028 109.16 115.683 109.557C116.339 109.953 117.125 110.073 117.869 109.89Z" fill="white"/>
<path d="M200.46 55.6523L108.121 78.407L115.764 109.42L208.103 86.6645L200.46 55.6523Z" stroke="#111827" stroke-width="1.9134"/>
<path fill-rule="evenodd" clip-rule="evenodd" d="M192.107 70.3008C190.737 70.3008 189.423 70.8451 188.454 71.8139C187.486 72.7827 186.941 74.0967 186.941 75.4668C186.941 78.3198 189.254 80.6418 192.107 80.6418C194.96 80.6418 197.282 78.3198 197.282 75.4668C197.282 72.6138 194.96 70.3008 192.107 70.3008Z" fill="#67C16B"/>
<path d="M171.869 80.4589L187.088 76.7059M208.819 64.7863L211.582 75.9913M215.845 63.0547L218.608 74.2597M192.107 70.3006C190.737 70.3006 189.423 70.8449 188.455 71.8137C187.486 72.7825 186.941 74.0965 186.941 75.4666C186.941 78.3196 189.254 80.6416 192.107 80.6416C194.96 80.6416 197.282 78.3196 197.282 75.4666C197.282 72.6136 194.96 70.3006 192.107 70.3006Z" stroke="#2E7D32" stroke-width="1.9134"/>
<path fill-rule="evenodd" clip-rule="evenodd" d="M127.845 150.371L234.473 124.094C235.217 123.91 235.857 123.439 236.253 122.783C236.65 122.128 236.77 121.342 236.587 120.598L229.868 93.334C229.684 92.5905 229.212 91.9503 228.557 91.554C227.901 91.1577 227.115 91.0375 226.371 91.2199L119.744 117.496C119.001 117.681 118.361 118.152 117.964 118.808C117.568 119.463 117.448 120.249 117.63 120.993L124.349 148.257C124.533 149.001 125.005 149.641 125.66 150.037C126.315 150.433 127.101 150.553 127.845 150.371Z" fill="#67C16B"/>
<path d="M230.338 91.2266L118.098 118.886L125.74 149.898L237.98 122.239L230.338 91.2266Z" stroke="#111827" stroke-width="1.9134"/>
<path fill-rule="evenodd" clip-rule="evenodd" d="M127.845 150.37L214.575 128.997C215.319 128.813 215.959 128.342 216.355 127.686C216.752 127.031 216.872 126.245 216.689 125.501L209.971 98.2362C209.786 97.4928 209.315 96.8528 208.659 96.4565C208.004 96.0602 207.218 95.9399 206.474 96.1221L119.744 117.495C119.001 117.68 118.361 118.151 117.964 118.807C117.568 119.462 117.448 120.248 117.63 120.992L124.349 148.256C124.533 149 125.005 149.64 125.66 150.036C126.315 150.432 127.101 150.552 127.845 150.37Z" fill="white"/>
<path d="M210.436 96.1328L118.098 118.888L125.74 149.901L218.079 127.146L210.436 96.1328Z" stroke="#111827" stroke-width="1.9134"/>
<path fill-rule="evenodd" clip-rule="evenodd" d="M202.084 110.781C200.714 110.781 199.4 111.326 198.431 112.294C197.462 113.263 196.918 114.577 196.918 115.947C196.918 118.8 199.231 121.122 202.084 121.122C204.937 121.122 207.259 118.8 207.259 115.947C207.259 113.094 204.937 110.781 202.084 110.781Z" fill="#67C16B"/>
<path d="M181.846 120.938L197.065 117.185M218.794 105.267L221.557 116.472M225.821 103.535L228.584 114.74M202.084 110.78C200.714 110.78 199.4 111.324 198.431 112.293C197.462 113.262 196.918 114.576 196.918 115.946C196.918 118.799 199.231 121.121 202.084 121.121C204.937 121.121 207.259 118.799 207.259 115.946C207.259 113.093 204.937 110.78 202.084 110.78Z" stroke="#2E7D32" stroke-width="1.9134"/>
<g opacity="0.3">
<path d="M131.334 138.566L135.384 124.589M140.511 136.304L144.561 122.327M149.688 134.042L153.738 120.065M158.864 131.782L162.914 117.805M168.041 129.52L172.091 115.543" stroke="#2E7D32" stroke-width="1.9134"/>
</g>
<path fill-rule="evenodd" clip-rule="evenodd" d="M137.643 190.12L244.27 163.844C245.014 163.66 245.654 163.188 246.05 162.533C246.446 161.877 246.567 161.091 246.384 160.348L239.666 133.084C239.481 132.34 239.01 131.7 238.354 131.304C237.699 130.908 236.913 130.788 236.169 130.97L129.541 157.246C128.797 157.43 128.157 157.902 127.761 158.557C127.365 159.213 127.245 159.999 127.427 160.743L134.146 188.007C134.33 188.751 134.802 189.391 135.457 189.787C136.113 190.183 136.899 190.303 137.643 190.12Z" fill="#67C16B"/>
<path d="M240.132 130.98L127.893 158.64L135.534 189.652L247.775 161.993L240.132 130.98Z" stroke="#111827" stroke-width="1.9134"/>
<path fill-rule="evenodd" clip-rule="evenodd" d="M138.349 189.947L223.664 168.922C224.126 168.81 224.561 168.607 224.943 168.325C225.325 168.043 225.648 167.688 225.892 167.28C226.395 166.461 226.542 165.479 226.312 164.544L219.942 138.695C219.829 138.233 219.626 137.799 219.344 137.416C219.062 137.034 218.707 136.711 218.299 136.467C217.894 136.22 217.443 136.055 216.973 135.983C216.504 135.911 216.024 135.933 215.563 136.048L130.249 157.072C129.787 157.184 129.352 157.388 128.969 157.67C128.587 157.952 128.264 158.307 128.02 158.715C127.772 159.121 127.607 159.572 127.535 160.041C127.463 160.511 127.486 160.99 127.601 161.451L133.971 187.299C134.083 187.761 134.286 188.196 134.568 188.578C134.85 188.961 135.206 189.283 135.613 189.527C136.432 190.03 137.414 190.178 138.349 189.947Z" fill="white"/>
<path d="M220.232 135.883L127.893 158.638L135.535 189.651L227.874 166.896L220.232 135.883Z" stroke="#111827" stroke-width="1.9134"/>
<path fill-rule="evenodd" clip-rule="evenodd" d="M211.879 150.531C210.509 150.531 209.195 151.076 208.226 152.044C207.257 153.013 206.713 154.327 206.713 155.697C206.713 158.55 209.026 160.872 211.879 160.872C214.732 160.872 217.054 158.55 217.054 155.697C217.054 152.844 214.732 150.531 211.879 150.531Z" fill="#67C16B"/>
<path d="M191.641 160.693L206.86 156.94M228.59 145.021L231.353 156.226M235.616 143.289L238.379 154.494M211.879 150.535C210.509 150.535 209.195 151.079 208.226 152.048C207.257 153.017 206.713 154.331 206.713 155.701C206.713 158.554 209.026 160.876 211.879 160.876C214.732 160.876 217.054 158.554 217.054 155.701C217.054 152.848 214.732 150.535 211.879 150.535Z" stroke="#2E7D32" stroke-width="1.9134"/>
<g opacity="0.3">
<path d="M141.129 178.32L145.179 164.343M150.305 176.058L154.355 162.081M159.482 173.796L163.532 159.819M168.658 171.535L172.708 157.558M177.835 169.274L181.885 155.297" stroke="#2E7D32" stroke-width="1.9134"/>
</g>
<path fill-rule="evenodd" clip-rule="evenodd" d="M204.359 173.695L144.473 188.455C144.032 186.655 145.13 184.828 146.93 184.387L200.291 171.238C202.091 170.797 203.918 171.895 204.359 173.695ZM194.501 133.695L134.615 148.455C134.174 146.655 135.272 144.828 137.072 144.387L190.433 131.238C192.233 130.797 194.06 131.895 194.501 133.695Z" fill="#111827"/>
<path fill-rule="evenodd" clip-rule="evenodd" d="M121.106 93.6332L127.922 91.9538L126.242 85.1381L119.426 86.8175L121.106 93.6332ZM131.33 91.1141L138.147 89.4338L136.467 82.6181L129.651 84.2975L131.33 91.1141ZM141.556 88.5941L148.372 86.9138L146.692 80.0981L139.876 81.7775L141.556 88.5941ZM151.781 86.0741L158.597 84.3947L156.917 77.5781L150.101 79.2584L151.781 86.0741Z" fill="#2E7D32"/>
<path d="M266.491 112.664C269.326 118.091 267.814 124.481 263.098 126.947" stroke="#111827" stroke-width="5.1021"/>
<path fill-rule="evenodd" clip-rule="evenodd" d="M251.802 134.229L265.36 141.356C266.594 142.003 268.035 142.134 269.366 141.721C270.696 141.307 271.809 140.383 272.459 139.15L273.693 136.8C274.016 136.189 274.214 135.52 274.278 134.832C274.342 134.144 274.269 133.45 274.065 132.79C273.86 132.13 273.528 131.517 273.086 130.986C272.645 130.455 272.103 130.015 271.491 129.694L257.933 122.566C256.696 121.918 255.253 121.785 253.919 122.194C252.587 122.614 251.475 123.541 250.823 124.776L249.587 127.126C249.266 127.738 249.068 128.407 249.006 129.095C248.943 129.783 249.017 130.477 249.223 131.136C249.429 131.796 249.762 132.408 250.205 132.939C250.647 133.47 251.19 133.908 251.802 134.229Z" fill="#6B7280"/>
<path d="M276.547 133.436L253.672 121.41L248.43 131.383L271.304 143.408L276.547 133.436Z" stroke="#111827" stroke-width="1.9134"/>
<path fill-rule="evenodd" clip-rule="evenodd" d="M248.504 128.492C233.771 128.492 221.828 140.435 221.828 155.168C221.828 169.91 233.771 181.853 248.504 181.853C263.246 181.853 275.189 169.91 275.189 155.168C275.189 140.435 263.246 128.492 248.504 128.492Z" fill="#9CA3AF"/>
<path d="M248.504 128.492C233.771 128.492 221.828 140.435 221.828 155.168C221.828 169.91 233.771 181.853 248.504 181.853C263.246 181.853 275.189 169.91 275.189 155.168C275.189 140.435 263.246 128.492 248.504 128.492Z" stroke="#111827" stroke-width="1.9134"/>
<path d="M232.52 168.623C230.456 166.175 228.986 163.282 228.227 160.172M242.861 175.289C241.196 174.821 239.612 174.146 238.127 173.3" stroke="white" stroke-width="1.9134"/>
<path fill-rule="evenodd" clip-rule="evenodd" d="M263.471 115.129C257.972 117.28 247.91 121.222 244.319 122.626C243.896 122.797 243.518 122.32 243.761 121.933C244.814 120.322 246.704 117.478 247.793 115.831C249.161 113.752 250.529 111.682 251.906 109.603C251.96 109.513 252.041 109.441 252.041 109.306L239.81 109.639C239.018 109.657 238.703 108.622 239.378 108.199L247.937 102.898C247.937 102.889 247.937 102.88 247.928 102.88C247.91 102.862 247.892 102.844 247.874 102.835C243.743 100.774 236.399 97.0927 233.348 95.5627C232.925 95.3557 233.042 94.7257 233.501 94.6807C235.49 94.4557 238.919 94.1137 240.989 93.9157C243.5 93.6817 246.002 93.4297 248.531 93.1687C249.305 93.0967 249.782 92.2867 249.476 91.5757L247.451 86.8057C247.235 86.2837 247.685 85.7257 248.243 85.8337C249.026 85.9867 249.989 86.1847 250.61 86.3107C251.807 86.5627 252.995 86.8057 254.192 87.0487C255.056 87.2287 255.767 86.6527 255.767 85.7707V78.1117C255.767 77.4997 255.776 76.8877 255.776 76.2757V76.1767C255.875 76.1947 255.929 76.2757 255.983 76.3297C258.863 79.0657 261.734 81.7927 264.605 84.5287C265.307 85.1947 266.279 85.0687 266.774 84.2497C268.187 81.9367 270.527 78.0937 271.751 76.0957C271.835 75.9583 271.953 75.845 272.094 75.7666C272.235 75.6882 272.393 75.6475 272.554 75.6485C272.716 75.6494 272.874 75.6918 273.014 75.7718C273.153 75.8517 273.27 75.9664 273.353 76.1047C274.694 78.3547 277.412 82.9897 279.005 85.6987C279.401 86.3647 280.238 86.6257 280.94 86.3017C286.286 83.8447 291.623 81.3877 296.969 78.9307C297.392 78.7417 297.806 79.2007 297.572 79.5967C296.213 81.8827 293.369 86.6527 291.614 89.4607L291.641 89.4877C291.65 89.4967 291.659 89.4967 291.668 89.4967C291.677 89.4967 291.695 89.4967 291.713 89.4877C295.016 88.4257 298.328 87.3547 301.64 86.2927C301.639 86.2978 301.638 86.3029 301.636 86.308C301.636 86.308 301.643 86.2927 301.649 86.3107C301.658 86.3197 301.658 86.3287 301.658 86.3377C301.649 86.3467 301.64 86.3647 301.64 86.3827C301.631 86.3827 301.631 86.3917 301.631 86.4007L301.586 86.4547L298.076 91.9627C298.067 91.9807 298.058 91.9897 298.058 92.0077C298.049 92.0077 298.049 92.0167 298.049 92.0257V92.0527C298.049 92.0527 298.058 92.0617 298.058 92.0707C298.067 92.0707 298.076 92.0797 298.076 92.0797C298.121 92.0797 298.157 92.0797 298.193 92.0707C302.396 91.4137 310.325 90.1897 312.116 89.9197C312.251 89.9017 312.341 90.0457 312.251 90.1537C311.153 91.5307 306.383 97.4527 303.881 100.549C303.404 101.152 303.611 101.818 304.34 102.043C305.897 102.511 308.84 103.393 309.812 103.69C309.92 103.726 309.911 103.87 309.812 103.906C308.489 104.365 303.359 106.048 300.668 106.93C300.508 106.984 300.428 106.997 300.41 107.038C300.392 107.079 300.437 107.148 300.524 107.317C302.891 111.754 307.13 119.746 308.957 123.22C309.236 123.751 308.669 124.327 308.138 124.057C302.54 121.204 296.942 118.36 291.308 115.489C290.543 115.102 289.625 115.642 289.598 116.506L289.436 121.033C289.409 121.915 288.437 122.455 287.663 122.005C284.369 120.097 281.084 118.198 277.79 116.281C277.07 115.867 276.161 116.299 276.026 117.118L273.929 130.546C273.857 130.978 273.281 131.095 273.056 130.708L272.803 130.264C270.396 126.036 264.06 114.904 263.471 115.129Z" fill="#E5E7EB"/>
<path d="M301.586 86.4547L301.631 86.4007C301.631 86.3917 301.631 86.3827 301.64 86.3827C301.64 86.3647 301.649 86.3467 301.658 86.3377C301.658 86.3287 301.658 86.3197 301.649 86.3107C301.64 86.2837 301.631 86.3287 301.64 86.2927C298.328 87.3547 295.016 88.4257 291.713 89.4877C291.695 89.4967 291.677 89.4967 291.668 89.4967C291.659 89.4967 291.65 89.4967 291.641 89.4877L291.614 89.4607C293.369 86.6527 296.213 81.8827 297.572 79.5967C297.806 79.2007 297.392 78.7417 296.969 78.9307C291.623 81.3877 286.286 83.8447 280.94 86.3017C280.238 86.6257 279.401 86.3647 279.005 85.6987C277.412 82.9897 274.694 78.3547 273.353 76.1047C273.27 75.9664 273.153 75.8517 273.014 75.7718C272.874 75.6918 272.716 75.6494 272.554 75.6485C272.393 75.6475 272.235 75.6882 272.094 75.7666C271.953 75.845 271.835 75.9583 271.751 76.0957C270.527 78.0937 268.187 81.9367 266.774 84.2497C266.279 85.0687 265.307 85.1947 264.605 84.5287C261.734 81.7927 258.863 79.0657 255.983 76.3297C255.929 76.2757 255.875 76.1947 255.776 76.1767V76.2757C255.776 76.8877 255.767 77.4997 255.767 78.1117V85.7707C255.767 86.6527 255.056 87.2287 254.192 87.0487C252.995 86.8057 251.807 86.5627 250.61 86.3107C249.989 86.1847 249.026 85.9867 248.243 85.8337C248.117 85.8094 247.986 85.8198 247.865 85.8637C247.744 85.9076 247.638 85.9834 247.556 86.0831C247.475 86.1828 247.423 86.3026 247.404 86.4298C247.385 86.5571 247.402 86.687 247.451 86.8057L249.476 91.5757C249.782 92.2867 249.305 93.0967 248.531 93.1687C246.002 93.4297 243.5 93.6817 240.989 93.9157C238.919 94.1137 235.49 94.4557 233.501 94.6807C233.042 94.7257 232.925 95.3557 233.348 95.5627C236.399 97.0927 243.743 100.774 247.874 102.835C247.892 102.844 247.91 102.862 247.928 102.88C247.937 102.88 247.937 102.889 247.937 102.898L239.378 108.199C238.703 108.622 239.018 109.657 239.81 109.639L252.041 109.306C252.041 109.441 251.96 109.513 251.906 109.603C250.529 111.682 249.161 113.752 247.793 115.831C246.704 117.478 244.814 120.322 243.761 121.933C243.518 122.32 243.896 122.797 244.319 122.626C247.91 121.222 257.972 117.28 263.471 115.129C264.083 114.895 270.878 126.883 273.056 130.708C273.281 131.095 273.857 130.978 273.929 130.546L276.026 117.118C276.161 116.299 277.07 115.867 277.79 116.281C281.084 118.198 284.369 120.097 287.663 122.005C288.437 122.455 289.409 121.915 289.436 121.033L289.598 116.506C289.625 115.642 290.543 115.102 291.308 115.489C296.942 118.36 302.54 121.204 308.138 124.057C308.669 124.327 309.236 123.751 308.957 123.22C307.13 119.746 302.891 111.754 300.524 107.317C300.353 106.984 300.344 107.038 300.668 106.93C303.359 106.048 308.489 104.365 309.812 103.906C309.911 103.87 309.92 103.726 309.812 103.69C308.84 103.393 305.897 102.511 304.34 102.043C303.611 101.818 303.404 101.152 303.881 100.549C306.383 97.4527 311.153 91.5307 312.251 90.1537C312.341 90.0457 312.251 89.9017 312.116 89.9197C310.325 90.1897 302.396 91.4137 298.193 92.0707C298.157 92.0797 298.121 92.0797 298.076 92.0797C298.076 92.0797 298.067 92.0707 298.058 92.0707C298.058 92.0617 298.049 92.0527 298.049 92.0527V92.0257C298.049 92.0167 298.049 92.0077 298.058 92.0077C298.058 91.9897 298.067 91.9807 298.076 91.9627L301.586 86.4547Z" stroke="#111827" stroke-width="1.9134"/>
<path fill-rule="evenodd" clip-rule="evenodd" d="M107.772 55.1568C105.915 56.8065 105.932 59.8611 107.814 61.9806C109.702 64.1073 112.733 64.4853 114.591 62.8356C116.448 61.1859 116.425 58.1376 114.537 56.0109C112.654 53.8914 109.63 53.508 107.772 55.1568Z" fill="#111827"/>
<path d="M107.772 55.1568C105.915 56.8065 105.932 59.8611 107.814 61.9806C109.702 64.1073 112.733 64.4853 114.591 62.8356C116.448 61.1859 116.425 58.1376 114.537 56.0109C112.654 53.8914 109.63 53.508 107.772 55.1568Z" stroke="#111827" stroke-width="0.9"/>
<path fill-rule="evenodd" clip-rule="evenodd" d="M69.8941 64.8794C69.9211 64.8884 69.9391 64.8974 69.9571 64.9154C72.8281 66.6884 76.0411 67.8314 79.3891 68.2724C85.9231 69.2264 93.4741 68.0114 100.611 64.3844C103.923 62.7194 106.974 60.5954 109.674 58.0664C110.736 59.3894 111.681 60.8294 112.473 62.3864C114.759 66.8954 115.533 71.8184 114.984 76.6244C114.975 76.7144 114.966 76.7954 114.948 76.8854C113.919 83.5553 110.703 89.694 105.804 94.3364L105.75 94.3904C105.471 94.6424 105.192 94.8854 104.913 95.1374C102.997 96.7707 100.894 98.1724 98.6491 99.3134C90.0181 103.696 80.4061 103.705 72.6841 100.132C64.0171 90.5924 62.3521 76.5884 68.5711 65.2754C68.8321 64.7984 69.4261 64.6184 69.8941 64.8794Z" fill="white"/>
<path d="M69.9571 64.9154C69.9395 64.8983 69.9179 64.8859 69.8941 64.8794C69.4261 64.6184 68.8321 64.7984 68.5711 65.2754C62.3521 76.5884 64.0171 90.5924 72.6841 100.132C80.4061 103.705 90.0181 103.696 98.6491 99.3134C100.894 98.1724 102.997 96.7707 104.913 95.1374C105.192 94.8854 105.471 94.6424 105.75 94.3904L105.804 94.3364C110.703 89.694 113.919 83.5553 114.948 76.8854C114.966 76.7954 114.975 76.7144 114.984 76.6244C115.533 71.8184 114.759 66.8954 112.473 62.3864C111.681 60.8294 110.736 59.3894 109.674 58.0664C106.974 60.5954 103.923 62.7194 100.611 64.3844C93.4741 68.0114 85.9231 69.2264 79.3891 68.2724C76.0411 67.8314 72.8281 66.6884 69.9571 64.9154Z" stroke="#111827" stroke-width="0.8928"/>
<path fill-rule="evenodd" clip-rule="evenodd" d="M112.328 58.288C115.647 64.8016 116.479 72.3014 114.668 79.384C114.029 76.909 114.605 63.229 104.741 62.59C103.49 63.418 102.194 64.174 100.853 64.858C93.7159 68.485 86.1649 69.691 79.6219 68.737C76.5259 68.323 73.5379 67.315 70.8289 65.767C70.0099 65.29 68.9569 65.56 68.4799 66.379C68.4619 66.406 68.4439 66.442 68.4259 66.469C62.6119 77.782 64.4929 91.525 73.1419 100.849C66.5248 98.0978 61.1104 93.0698 57.8779 86.674C55.1547 81.2928 54.0984 75.2217 54.8439 69.2369C55.5894 63.2522 58.1028 57.6257 62.0629 53.077C72.6649 40.864 90.9259 38.983 103.787 48.775C106.316 48.073 108.908 47.641 111.518 47.506C111.984 47.4774 112.451 47.5412 112.892 47.6938C113.333 47.8463 113.74 48.0846 114.089 48.395C114.438 48.7053 114.722 49.0815 114.924 49.502C115.127 49.9224 115.245 50.3789 115.271 50.845C115.325 51.619 115.109 52.393 114.677 53.032C113.738 54.3927 112.697 55.6804 111.563 56.884C111.824 57.343 112.085 57.811 112.328 58.288Z" fill="#111827"/>
<path d="M114.668 79.384C116.477 72.301 115.649 64.804 112.328 58.288C112.085 57.811 111.824 57.343 111.563 56.884C112.697 55.6804 113.738 54.3927 114.677 53.032C115.109 52.393 115.325 51.619 115.271 50.845C115.246 50.3789 115.128 49.9224 114.925 49.502C114.722 49.0815 114.438 48.7053 114.089 48.395C113.741 48.0846 113.334 47.8463 112.893 47.6938C112.451 47.5412 111.984 47.4774 111.518 47.506C108.908 47.641 106.316 48.073 103.787 48.775C90.9265 38.983 72.6655 40.864 62.0635 53.077C53.9635 62.383 52.3075 75.667 57.8785 86.674C61.111 93.0698 66.5254 98.0978 73.1425 100.849C64.4935 91.525 62.6125 77.782 68.4265 66.469C68.4445 66.442 68.4625 66.406 68.4805 66.379C68.9575 65.56 70.0105 65.29 70.8295 65.767C73.5385 67.315 76.5265 68.323 79.6225 68.737C86.1655 69.691 93.7165 68.485 100.853 64.858C102.194 64.174 103.49 63.418 104.741 62.59C114.605 63.229 114.029 76.909 114.668 79.384Z" stroke="#111827" stroke-width="0.9"/>
<path d="M74.4964 51.7561C60.1963 59.0173 54.0079 75.5539 60.6742 88.6831C67.3441 101.819 84.3478 106.58 98.6479 99.3184C112.956 92.0536 119.145 75.5161 112.474 62.3797C105.807 49.2514 88.8046 44.4904 74.4964 51.7561Z" stroke="#111827" stroke-width="1.9134"/>
<path d="M98.3027 79.9297L100.229 81.2167C100.787 81.5857 101.381 81.9907 101.633 82.6117C101.894 83.2327 101.633 84.1057 100.976 84.2407" stroke="#111827" stroke-width="1.8"/>
<path fill-rule="evenodd" clip-rule="evenodd" d="M89.2164 88.6987C93.7173 87.5017 100.683 88.5097 99.9363 93.2527C99.4035 96.6421 96.0366 96.3253 93.4032 96.0778C92.6526 96.0076 91.9623 95.9428 91.4133 95.9707C90.6384 96.0076 89.7393 96.2182 88.8123 96.4351C86.376 97.0048 83.748 97.6186 82.6923 95.2597C81.0633 91.5967 84.7074 89.8867 89.2164 88.6987Z" fill="white"/>
<path d="M99.9363 93.2527C100.683 88.5097 93.7173 87.5017 89.2173 88.6987C84.7083 89.8867 81.0633 91.5967 82.6923 95.2597C84.1503 98.5177 88.6053 96.1057 91.4133 95.9707C93.8883 95.8447 99.2523 97.6087 99.9363 93.2527Z" stroke="#111827" stroke-width="1.9134"/>
<path fill-rule="evenodd" clip-rule="evenodd" d="M104.196 72.2305C102.837 72.2305 101.739 73.3285 101.739 74.6875C101.739 76.0465 102.837 77.1445 104.196 77.1445C105.555 77.1445 106.653 76.0465 106.653 74.6875C106.653 73.3285 105.555 72.2305 104.196 72.2305ZM87.541 77.2993C86.182 77.2993 85.084 78.3973 85.084 79.7563C85.084 81.1153 86.182 82.2133 87.541 82.2133C88.9 82.2133 89.998 81.1153 89.998 79.7563C89.998 78.3973 88.9 77.2993 87.541 77.2993Z" fill="#111827"/>
<path fill-rule="evenodd" clip-rule="evenodd" d="M60.9274 72.8398C57.4894 72.9748 54.8074 75.8638 54.9424 79.3108C55.0684 82.7488 57.9664 85.4308 61.4044 85.2958L60.9274 72.8398Z" fill="white"/>
<path d="M60.9274 72.8398C57.4894 72.9748 54.8074 75.8638 54.9424 79.3108C55.0684 82.7488 57.9664 85.4308 61.4044 85.2958L60.9274 72.8398Z" stroke="#111827" stroke-width="1.9134"/>
<path fill-rule="evenodd" clip-rule="evenodd" d="M60.0723 78.9988C58.0923 66.9748 62.2233 64.3828 62.2233 64.3828L70.1433 65.2288C70.1433 65.2288 67.1013 72.5638 66.6873 81.9418C66.4803 86.6578 66.4353 90.1858 68.2713 95.5768C69.9543 100.536 62.0433 91.0228 60.0723 78.9988Z" fill="#111827"/>
<path d="M62.2233 64.3828C62.2233 64.3828 58.0923 66.9748 60.0723 78.9988C62.0433 91.0228 69.9543 100.536 68.2713 95.5768C66.4353 90.1858 66.4803 86.6578 66.6873 81.9418C67.1013 72.5638 70.1433 65.2288 70.1433 65.2288L62.2233 64.3828Z" stroke="#111827" stroke-width="0.9"/>
<path fill-rule="evenodd" clip-rule="evenodd" d="M53.6447 144.441C65.3177 163.845 110.309 149.814 110.309 149.814L106.475 129.582C106.475 129.582 81.2927 136.053 75.6317 130.32L79.4207 104.445C79.4207 104.445 41.9807 125.046 53.6447 144.441Z" fill="white"/>
<path d="M53.6447 144.441C65.3177 163.845 110.309 149.814 110.309 149.814L106.475 129.582C106.475 129.582 81.2927 136.053 75.6317 130.32L79.4207 104.445C79.4207 104.445 41.9807 125.046 53.6447 144.441Z" stroke="#111827" stroke-width="1.9134"/>
<path fill-rule="evenodd" clip-rule="evenodd" d="M91.1322 139.77C90.2448 145.971 93.4443 151.566 98.2827 152.259C103.129 152.952 107.77 148.48 108.657 142.279C109.544 136.078 106.345 130.483 101.497 129.789C96.66 129.097 92.0196 133.57 91.1322 139.77Z" fill="white"/>
<path d="M91.1322 139.77C90.2448 145.971 93.4443 151.566 98.2827 152.259C103.129 152.952 107.77 148.48 108.657 142.279C109.544 136.078 106.345 130.483 101.497 129.789C96.66 129.097 92.0196 133.57 91.1322 139.77Z" stroke="#111827" stroke-width="1.9134"/>
<path fill-rule="evenodd" clip-rule="evenodd" d="M118.543 149.674C116.743 150.799 112.297 151.906 110.326 152.365C109.588 152.536 108.841 152.671 108.085 152.716C102.658 153.058 98.5899 150.151 97.2489 145.417L96.9969 144.499C95.2149 138.19 99.1299 131.584 105.691 129.82L117.274 126.715C119.65 126.076 120.199 127.516 120.838 129.748C120.874 129.901 120.901 130.054 120.91 130.216L121.783 143.968C121.792 144.112 121.792 144.256 121.774 144.391C121.45 147.028 120.829 148.243 118.543 149.674Z" fill="white"/>
<path d="M110.326 152.365C112.297 151.906 116.743 150.799 118.543 149.674C120.829 148.243 121.45 147.028 121.774 144.391C121.792 144.256 121.792 144.112 121.783 143.968L120.91 130.216C120.901 130.054 120.874 129.901 120.838 129.748C120.199 127.516 119.65 126.076 117.274 126.715L105.691 129.82C99.1299 131.584 95.2149 138.19 96.9969 144.499L97.2489 145.417C98.5899 150.151 102.658 153.058 108.085 152.716C108.841 152.671 109.588 152.536 110.326 152.365Z" stroke="#111827" stroke-width="1.9134"/>
<path fill-rule="evenodd" clip-rule="evenodd" d="M115.19 134.289L122.597 131.976C124.298 131.526 125.387 130.32 125.225 128.691C125.205 128.497 125.172 128.305 125.126 128.115C124.613 126.297 122.66 125.226 120.761 125.73L111.977 128.133L115.19 134.289Z" fill="white"/>
<path d="M115.19 134.289L122.597 131.976C124.298 131.526 125.387 130.32 125.225 128.691C125.205 128.497 125.172 128.305 125.126 128.115C124.613 126.297 122.66 125.226 120.761 125.73L111.977 128.133L115.19 134.289Z" stroke="#111827" stroke-width="1.9134"/>
<path fill-rule="evenodd" clip-rule="evenodd" d="M117.026 139.34L125.917 137.063C127.321 136.685 128.204 135.398 128.078 134.057C128.06 133.904 128.032 133.742 127.987 133.589C127.564 132.086 125.962 131.204 124.396 131.618L113.812 134.66L117.026 139.34Z" fill="white"/>
<path d="M117.026 139.34L125.917 137.063C127.321 136.685 128.204 135.398 128.078 134.057C128.06 133.904 128.032 133.742 127.987 133.589C127.564 132.086 125.962 131.204 124.396 131.618L113.812 134.66L117.026 139.34Z" stroke="#111827" stroke-width="1.9134"/>
<path fill-rule="evenodd" clip-rule="evenodd" d="M117.665 144.709L126.233 141.865C127.556 141.505 128.402 140.29 128.276 139.021C128.258 138.868 128.231 138.715 128.195 138.571C127.79 137.149 126.269 136.312 124.793 136.708L116 139.615L117.665 144.709Z" fill="white"/>
<path d="M117.665 144.709L126.233 141.865C127.556 141.505 128.402 140.29 128.276 139.021C128.258 138.868 128.231 138.715 128.195 138.571C127.79 137.149 126.269 136.312 124.793 136.708L116 139.615L117.665 144.709Z" stroke="#111827" stroke-width="1.9134"/>
<path fill-rule="evenodd" clip-rule="evenodd" d="M114.932 151.175L126.335 147.332C127.667 146.981 128.504 145.766 128.378 144.497C128.369 144.344 128.342 144.191 128.297 144.047C127.901 142.625 126.38 141.788 124.895 142.184L116.84 144.704L114.932 151.175Z" fill="white"/>
<path d="M114.932 151.175L126.335 147.332C127.667 146.981 128.504 145.766 128.378 144.497C128.369 144.344 128.342 144.191 128.297 144.047C127.901 142.625 126.38 141.788 124.895 142.184L116.84 144.704L114.932 151.175Z" stroke="#111827" stroke-width="1.9134"/>
<path fill-rule="evenodd" clip-rule="evenodd" d="M143.899 68.5831C144.226 69.5783 144.149 70.6617 143.685 71.6009C143.222 72.5401 142.409 73.2601 141.42 73.6064C140.432 73.9528 139.347 73.8978 138.399 73.4534C137.451 73.0089 136.714 72.2103 136.348 71.2291L134.647 67.2151C133.918 65.1271 135.016 62.8411 137.095 62.1121C139.183 61.3831 141.469 62.4811 142.198 64.5601L143.899 68.5831Z" fill="white"/>
<path d="M141.451 73.6768C142.45 73.3248 143.269 72.5908 143.728 71.6359C144.187 70.6809 144.248 69.583 143.899 68.5828L142.198 64.5598C141.845 63.5594 141.109 62.7399 140.152 62.281C139.196 61.8221 138.096 61.7612 137.095 62.1118C136.095 62.4651 135.275 63.2007 134.816 64.1573C134.357 65.1139 134.296 66.2134 134.647 67.2148L136.348 71.2288C136.522 71.725 136.791 72.1822 137.142 72.574C137.493 72.9658 137.917 73.2845 138.391 73.5119C138.865 73.7393 139.38 73.8709 139.905 73.8992C140.43 73.9275 140.955 73.8519 141.451 73.6768Z" stroke="#111827" stroke-width="1.9134"/>
<path fill-rule="evenodd" clip-rule="evenodd" d="M136.09 70.7571C136.783 72.7101 135.748 74.8521 133.795 75.5361C133.597 75.6081 133.39 75.6621 133.183 75.6981C131.41 75.9951 129.628 74.9871 129.016 73.2411L126.919 67.7601C126.226 65.8071 127.261 63.6651 129.214 62.9811C131.158 62.2881 133.309 63.3231 133.993 65.2761L136.09 70.7571Z" fill="white"/>
<path d="M133.794 75.5361C134.259 75.3736 134.688 75.121 135.055 74.7927C135.422 74.4644 135.721 74.0669 135.934 73.6229C136.147 73.179 136.27 72.6973 136.297 72.2055C136.324 71.7138 136.253 71.2215 136.089 70.7571L133.992 65.2761C133.308 63.3231 131.157 62.2881 129.213 62.9811C128.748 63.1436 128.32 63.3962 127.953 63.7245C127.586 64.0528 127.287 64.4503 127.074 64.8943C126.861 65.3382 126.737 65.8199 126.711 66.3117C126.684 66.8035 126.754 67.2957 126.918 67.7601L129.015 73.2411C129.31 74.0755 129.889 74.7792 130.651 75.2286C131.413 75.678 132.31 75.8443 133.182 75.6981C133.389 75.6621 133.596 75.6081 133.794 75.5361Z" stroke="#111827" stroke-width="1.9134"/>
<path fill-rule="evenodd" clip-rule="evenodd" d="M128.428 70.1886C128.41 72.2586 126.718 73.9236 124.648 73.9056C124.432 73.9056 124.225 73.8876 124.018 73.8516C123.147 73.6941 122.359 73.2339 121.795 72.5521C121.23 71.8704 120.924 71.0109 120.931 70.1256L120.652 66.6156C120.67 64.5456 122.362 62.8806 124.432 62.8986C126.493 62.9166 128.167 64.6086 128.149 66.6786L128.428 70.1886Z" fill="white"/>
<path d="M124.648 73.9056C126.718 73.9236 128.41 72.2586 128.428 70.1886L128.149 66.6786C128.167 64.6086 126.493 62.9166 124.432 62.8986C123.94 62.8944 123.452 62.9873 122.995 63.1718C122.539 63.3564 122.124 63.629 121.772 63.9742C121.421 64.3193 121.142 64.7302 120.95 65.1835C120.758 65.6367 120.656 66.1233 120.652 66.6156L120.931 70.1256C120.924 71.0109 121.23 71.8703 121.795 72.5521C122.359 73.2339 123.147 73.6941 124.018 73.8516C124.225 73.8876 124.432 73.9056 124.648 73.9056Z" stroke="#111827" stroke-width="1.9134"/>
<path fill-rule="evenodd" clip-rule="evenodd" d="M149.926 64.7941C150.288 65.7203 150.267 66.7523 149.869 67.6636C149.471 68.5748 148.727 69.2907 147.802 69.6541C146.875 70.0162 145.843 69.9959 144.932 69.5977C144.021 69.1994 143.305 68.4558 142.942 67.5301L141.376 64.3801C141.013 63.454 141.033 62.4216 141.431 61.5102C141.829 60.5988 142.573 59.8829 143.5 59.5201C144.426 59.1573 145.458 59.1773 146.369 59.5756C147.281 59.9739 147.997 60.718 148.36 61.6441L149.926 64.7941Z" fill="white"/>
<path d="M147.802 69.6541C148.727 69.2907 149.471 68.5748 149.869 67.6636C150.267 66.7523 150.288 65.7203 149.926 64.7941L148.36 61.6441C148.18 61.1855 147.912 60.7668 147.57 60.4119C147.229 60.057 146.821 59.7728 146.369 59.5756C145.918 59.3783 145.432 59.2719 144.94 59.2624C144.448 59.2529 143.958 59.3405 143.5 59.5201C143.041 59.6998 142.622 59.968 142.267 60.3094C141.912 60.6509 141.628 61.0589 141.431 61.5102C141.234 61.9615 141.127 62.4472 141.118 62.9397C141.108 63.4321 141.196 63.9215 141.376 64.3801L142.942 67.5301C143.305 68.4558 144.021 69.1994 144.932 69.5977C145.843 69.9959 146.875 70.0162 147.802 69.6541Z" stroke="#111827" stroke-width="1.9134"/>
</svg>
