<svg width="360" height="270" viewBox="0 0 360 270" fill="none" xmlns="http://www.w3.org/2000/svg">
<path fill-rule="evenodd" clip-rule="evenodd" d="M63.5939 176.953L66.3298 189.121L54.4229 185.404L63.5939 176.953Z" fill="#67C16B"/>
<path d="M66.3298 189.121L63.5939 176.953L54.4229 185.404L66.3298 189.121Z" stroke="#2E7D32" stroke-width="1.9134"/>
<path d="M59.2562 182.95C49.0052 173.86 43.2002 163.474 43.2002 152.449C43.2002 116.638 104.463 87.6133 180.027 87.6133C255.6 87.6133 316.854 116.638 316.854 152.449C316.854 163.987 310.491 174.832 299.331 184.219" stroke="#111827" stroke-width="1.9134"/>
<path d="M112.906 227.484C106.66 225.81 100.72 223.92 95.1402 221.823C80.7672 216.432 68.7432 209.7 59.8962 202.032C49.2492 192.807 43.2012 182.223 43.2012 170.973C43.2012 135.162 104.464 106.137 180.028 106.137C255.601 106.137 316.855 135.162 316.855 170.973C316.855 206.784 255.601 235.809 180.028 235.809C164.782 235.809 150.121 234.63 136.423 232.443" stroke="#111827" stroke-width="1.9134"/>
<path d="M214.779 215.176C203.682 216.553 192.036 217.282 180.03 217.282C134.805 217.282 94.7099 206.887 69.7979 190.867" stroke="#111827" stroke-width="1.9134"/>
<path fill-rule="evenodd" clip-rule="evenodd" d="M224.273 208.871C221.789 208.871 219.773 210.887 219.773 213.371C219.773 215.855 221.789 217.871 224.273 217.871C226.757 217.871 228.773 215.855 228.773 213.371C228.773 210.887 226.757 208.871 224.273 208.871Z" fill="#111827"/>
<path fill-rule="evenodd" clip-rule="evenodd" d="M91.9385 178.062V104.028C91.9385 100.329 97.4645 97.332 104.286 97.332H238.089C244.911 97.332 250.446 100.329 250.446 104.028V178.062C250.446 181.761 244.911 184.758 238.089 184.758H104.286C97.4645 184.758 91.9385 181.761 91.9385 178.062Z" fill="white"/>
<path d="M91.9385 104.028V178.062C91.9385 181.761 97.4645 184.758 104.286 184.758H238.089C244.911 184.758 250.446 181.761 250.446 178.062V104.028C250.446 100.329 244.911 97.332 238.089 97.332H104.286C97.4645 97.332 91.9385 100.329 91.9385 104.028Z" stroke="#111827" stroke-width="1.9134"/>
<path fill-rule="evenodd" clip-rule="evenodd" d="M101.082 87.7422H241.311C246.351 87.7422 250.446 91.8372 250.446 96.8862V109.702H91.9385V96.8862C91.9385 91.8372 96.0335 87.7422 101.082 87.7422Z" fill="#67C16B"/>
<path d="M241.311 87.7422H101.082C96.0335 87.7422 91.9385 91.8372 91.9385 96.8862V109.702H250.446V96.8862C250.446 91.8372 246.351 87.7422 241.311 87.7422Z" stroke="#2E7D32" stroke-width="1.9134"/>
<path fill-rule="evenodd" clip-rule="evenodd" d="M239.141 175.907C240.257 180.866 245.189 183.989 250.148 182.882L264.872 179.57C269.831 178.463 272.954 173.522 271.838 168.572L269.327 157.349C267.356 148.565 258.599 143.021 249.806 144.992L248.978 145.181C240.194 147.152 234.65 155.909 236.621 164.693L239.141 175.907ZM264.491 170.216L261.971 159.002C260.909 154.277 256.193 151.289 251.459 152.351L250.631 152.531C245.906 153.593 242.918 158.309 243.98 163.043L246.5 174.257C246.698 175.139 247.607 175.724 248.498 175.526L263.222 172.214C264.104 172.016 264.689 171.107 264.491 170.216Z" fill="#9CA3AF"/>
<path d="M239.141 175.907C240.257 180.866 245.189 183.989 250.148 182.882L264.872 179.57C269.831 178.463 272.954 173.522 271.838 168.572L269.327 157.349C267.356 148.565 258.599 143.021 249.806 144.992L248.978 145.181C240.194 147.152 234.65 155.909 236.621 164.693L239.141 175.907ZM264.491 170.216L261.971 159.002C260.909 154.277 256.193 151.289 251.459 152.351L250.631 152.531C245.906 153.593 242.918 158.309 243.98 163.043L246.5 174.257C246.698 175.139 247.607 175.724 248.498 175.526L263.222 172.214C264.104 172.016 264.689 171.107 264.491 170.216Z" stroke="#111827" stroke-width="1.9134"/>
<path fill-rule="evenodd" clip-rule="evenodd" d="M256.874 206.031L268.686 203.379C278.485 201.179 284.642 191.458 282.441 181.658L279.34 167.845C279.224 167.329 279.008 166.842 278.704 166.41C278.4 165.978 278.014 165.61 277.568 165.327C277.121 165.044 276.624 164.853 276.103 164.762C275.583 164.672 275.049 164.685 274.534 164.801L235.096 173.655C234.58 173.771 234.093 173.987 233.661 174.291C233.229 174.595 232.861 174.981 232.578 175.428C232.295 175.874 232.103 176.372 232.013 176.892C231.923 177.413 231.936 177.946 232.052 178.461L235.153 192.274C237.354 202.075 247.074 208.231 256.874 206.031Z" fill="#67C16B"/>
<path fill-rule="evenodd" clip-rule="evenodd" d="M258.088 175.25C254.65 175.25 251.86 178.04 251.86 181.478C251.86 184.916 254.65 187.706 258.088 187.706C261.526 187.706 264.316 184.916 264.316 181.478C264.316 178.04 261.526 175.25 258.088 175.25Z" fill="#111827"/>
<path fill-rule="evenodd" clip-rule="evenodd" d="M260.002 182.703L262.891 192.108C263.179 193.377 262.378 194.646 261.109 194.925C259.831 195.213 258.571 194.412 258.283 193.143L256.879 183.405L260.002 182.703Z" fill="#111827"/>
<path d="M130.033 150.891L128.998 152.7C128.692 153.222 128.386 153.78 128.422 154.383C128.467 154.986 129.025 155.589 129.61 155.427" stroke="#111827" stroke-width="0.3825"/>
<path fill-rule="evenodd" clip-rule="evenodd" d="M168.154 128.246H228.679V119.633H168.154V128.246Z" fill="#D1D5DB"/>
<path fill-rule="evenodd" clip-rule="evenodd" d="M168.154 140.068H228.679V134.398H168.154V140.068ZM168.154 151.677H228.679V146.007H168.154V151.677ZM168.154 163.284H210.949V157.614H168.154V163.284Z" fill="#E5E7EB"/>
<path fill-rule="evenodd" clip-rule="evenodd" d="M181.056 104.932H161.337C158.826 104.932 156.792 102.898 156.792 100.387V86.5H185.592V100.387C185.592 102.898 183.558 104.932 181.056 104.932Z" fill="#2E7D32"/>
<path fill-rule="evenodd" clip-rule="evenodd" d="M165.841 68.3566H176.416C177.1 68.3566 177.766 68.0866 178.252 67.6006C178.738 67.1146 179.008 66.4486 179.008 65.7646V60.1936C179.008 59.5096 178.738 58.8436 178.252 58.3576C177.766 57.8716 177.1 57.6016 176.416 57.6016H165.841C165.157 57.6016 164.491 57.8716 164.005 58.3576C163.519 58.8436 163.249 59.5096 163.249 60.1936V65.7646C163.249 66.4486 163.519 67.1146 164.005 67.6006C164.491 68.0866 165.157 68.3566 165.841 68.3566Z" fill="#9CA3AF"/>
<path d="M179.962 58.5586H164.206V67.3984H179.962V58.5586Z" stroke="#111827" stroke-width="1.9134"/>
<path fill-rule="evenodd" clip-rule="evenodd" d="M163.203 100.729H179.061C179.68 100.727 180.273 100.479 180.71 100.041C181.147 99.6022 181.392 99.0084 181.392 98.3893V68.4103C181.392 67.7913 181.147 67.1974 180.71 66.7589C180.273 66.3203 179.68 66.0727 179.061 66.0703H163.203C162.896 66.0697 162.591 66.1298 162.307 66.2472C162.023 66.3646 161.765 66.537 161.547 66.7544C161.33 66.9718 161.158 67.23 161.04 67.5141C160.923 67.7983 160.863 68.1029 160.863 68.4103V98.3893C160.863 98.6968 160.923 99.0013 161.04 99.2855C161.158 99.5697 161.33 99.8279 161.547 100.045C161.765 100.263 162.023 100.435 162.307 100.552C162.591 100.67 162.896 100.73 163.203 100.729Z" fill="#E5E7EB"/>
<path d="M182.351 67.0273H161.819V99.7702H182.351V67.0273Z" stroke="#111827" stroke-width="1.9134"/>
<path fill-rule="evenodd" clip-rule="evenodd" d="M129.23 113.836C113.543 113.836 100.826 126.553 100.826 142.24C100.826 157.918 113.543 170.635 129.23 170.635C144.908 170.635 157.625 157.918 157.625 142.24C157.625 126.553 144.908 113.836 129.23 113.836Z" fill="#E5E7EB"/>
<path fill-rule="evenodd" clip-rule="evenodd" d="M165.183 90.4178C165.183 88.84 165.809 87.3268 166.925 86.2112C168.041 85.0955 169.554 84.4688 171.132 84.4688V96.3668C169.554 96.3668 168.041 95.74 166.925 94.6243C165.809 93.5087 165.183 91.9955 165.183 90.4178Z" fill="#67C16B"/>
<path d="M171.131 84.4688C169.553 84.4688 168.04 85.0956 166.924 86.2113C165.808 87.327 165.182 88.8403 165.182 90.4182C165.182 91.9961 165.808 93.5094 166.924 94.6251C168.04 95.7408 169.553 96.3677 171.131 96.3677V84.4688Z" stroke="#2E7D32" stroke-width="1.9134"/>
<path fill-rule="evenodd" clip-rule="evenodd" d="M171.129 84.4688C172.707 84.4688 174.22 85.0956 175.336 86.2113C176.452 87.327 177.078 88.8403 177.078 90.4182C177.078 91.9961 176.452 93.5094 175.336 94.6251C174.22 95.7408 172.707 96.3677 171.129 96.3677V84.4688Z" fill="#67C16B"/>
<path d="M177.078 90.4178C177.078 88.84 176.451 87.3268 175.335 86.2112C174.22 85.0955 172.707 84.4688 171.129 84.4688V96.3668C172.707 96.3668 174.22 95.74 175.335 94.6243C176.451 93.5087 177.078 91.9955 177.078 90.4178Z" stroke="#2E7D32" stroke-width="1.9134"/>
<path fill-rule="evenodd" clip-rule="evenodd" d="M144.226 154.332C140.95 158.481 135.613 161.19 129.592 161.19C127.99 161.19 126.433 160.992 124.948 160.632C124.714 160.578 124.498 160.515 124.273 160.452C124.255 160.452 124.237 160.443 124.219 160.443C120.197 159.249 116.685 156.751 114.238 153.342C114.202 153.297 114.175 153.252 114.139 153.198C112.483 150.696 111.529 147.744 111.529 144.603C111.529 143.514 111.646 142.452 111.862 141.417C114.067 142.056 116.362 142.38 118.666 142.371C123.652 142.371 128.179 140.913 131.536 138.546C133.264 137.358 134.722 135.819 135.82 134.028C135.829 134.019 135.829 134.01 135.838 133.992C136.027 133.713 136.405 133.65 136.684 133.839C143.326 138.357 146.341 146.592 144.226 154.332Z" fill="white"/>
<path d="M129.592 161.19C135.613 161.19 140.95 158.481 144.226 154.332C146.341 146.592 143.326 138.357 136.684 133.839C136.619 133.794 136.545 133.761 136.467 133.744C136.389 133.727 136.308 133.726 136.23 133.74C136.151 133.754 136.076 133.784 136.009 133.827C135.942 133.871 135.884 133.927 135.838 133.992C135.829 134.01 135.829 134.019 135.82 134.028C134.722 135.819 133.264 137.358 131.536 138.546C128.179 140.913 123.652 142.371 118.666 142.371C116.362 142.38 114.067 142.056 111.862 141.417C111.646 142.452 111.529 143.514 111.529 144.603C111.529 147.744 112.483 150.696 114.139 153.198C114.175 153.252 114.202 153.297 114.238 153.342C116.65 156.699 120.142 159.237 124.219 160.443C124.237 160.443 124.255 160.452 124.273 160.452C124.498 160.515 124.714 160.578 124.948 160.632C126.433 160.992 127.99 161.19 129.592 161.19Z" stroke="#111827" stroke-width="1.2753"/>
<path fill-rule="evenodd" clip-rule="evenodd" d="M112.507 134.609C116.89 125.555 127.546 121.46 136.861 125.24C143.971 128.12 148.633 135.023 148.651 142.7C148.651 147.155 147.067 151.466 144.169 154.859C146.347 147.245 143.521 139.1 137.104 134.465C137.086 134.447 137.068 134.438 137.05 134.429C136.555 134.105 135.898 134.249 135.574 134.753C134.503 136.373 133.135 137.777 131.533 138.875C128.176 141.242 123.649 142.7 118.663 142.7C117.736 142.7 116.8 142.646 115.873 142.538C115.018 144.905 114.577 147.398 114.586 149.918C114.577 151.511 114.757 153.095 115.099 154.643C111.872 150.966 110.215 146.172 110.482 141.287C110.041 141.134 109.6 140.963 109.177 140.774C108.667 140.546 108.166 140.3 107.674 140.036C107.251 139.802 106.918 139.433 106.729 138.992C106.234 137.876 106.747 136.571 107.863 136.085C109.357 135.419 110.914 134.924 112.507 134.609Z" fill="#111827"/>
<path d="M136.861 125.24C127.546 121.46 116.89 125.555 112.507 134.609C110.914 134.924 109.357 135.419 107.863 136.085C107.597 136.201 107.357 136.368 107.156 136.577C106.955 136.786 106.797 137.033 106.691 137.303C106.586 137.573 106.535 137.861 106.542 138.151C106.548 138.441 106.612 138.727 106.729 138.992C106.918 139.433 107.251 139.802 107.674 140.036C108.16 140.297 108.655 140.54 109.177 140.774C109.6 140.963 110.041 141.134 110.482 141.287C110.215 146.172 111.872 150.966 115.099 154.643C114.752 153.092 114.58 151.507 114.586 149.918C114.577 147.398 115.018 144.905 115.873 142.538C116.8 142.646 117.736 142.7 118.663 142.7C123.649 142.7 128.176 141.242 131.533 138.875C133.135 137.777 134.503 136.373 135.574 134.753C135.898 134.249 136.555 134.105 137.05 134.429C137.068 134.438 137.086 134.447 137.104 134.465C140.236 136.725 142.595 139.896 143.86 143.545C145.124 147.195 145.232 151.146 144.169 154.859C147.067 151.466 148.651 147.155 148.651 142.7C148.633 135.023 143.971 128.12 136.861 125.24Z" stroke="#111827" stroke-width="0.6381"/>
<path d="M124.244 148.591C124.244 149.491 123.524 150.211 122.633 150.211C121.733 150.211 121.013 149.491 121.013 148.591M138.04 148.591C138.04 149.491 137.32 150.211 136.429 150.211C135.529 150.211 134.809 149.491 134.809 148.591" stroke="#111827" stroke-width="1.2753"/>
<path d="M129.592 128.008C119.62 128.008 111.529 135.433 111.529 144.595C111.529 153.757 119.62 161.182 129.592 161.182C139.573 161.182 147.664 153.757 147.664 144.595C147.664 135.433 139.573 128.008 129.592 128.008Z" stroke="#111827" stroke-width="1.2753"/>
<path fill-rule="evenodd" clip-rule="evenodd" d="M110.743 139.344C109.868 139.364 109.035 139.726 108.423 140.353C107.811 140.979 107.468 141.82 107.468 142.696C107.468 143.572 107.811 144.413 108.423 145.04C109.035 145.666 109.868 146.028 110.743 146.049C111.634 146.049 112.488 145.695 113.117 145.065C113.747 144.436 114.1 143.582 114.1 142.692C114.1 140.847 112.597 139.344 110.743 139.344Z" fill="#111827"/>
<path fill-rule="evenodd" clip-rule="evenodd" d="M129.596 157.77C131 157.77 132.143 156.78 132.143 155.547H127.049C127.049 156.78 128.192 157.77 129.596 157.77Z" fill="white"/>
<path d="M132.143 157.77C132.143 156.537 131 155.547 129.596 155.547C128.192 155.547 127.049 156.537 127.049 157.77" stroke="#111827" stroke-width="1.35"/>
<path fill-rule="evenodd" clip-rule="evenodd" d="M284.508 120.849L278.064 121.92C277.056 122.091 276.291 121.02 276.768 120.12L279.846 114.351C280.035 113.991 280.035 113.568 279.846 113.199L276.84 107.403C276.372 106.494 277.146 105.441 278.154 105.612L284.589 106.755C284.985 106.827 285.399 106.692 285.687 106.404L290.268 101.751C290.988 101.022 292.23 101.436 292.374 102.453L293.283 108.915C293.337 109.32 293.589 109.671 293.949 109.851L299.79 112.776C300.708 113.235 300.699 114.549 299.781 114.999L293.913 117.852C293.544 118.032 293.283 118.383 293.229 118.779L292.248 125.241C292.095 126.258 290.853 126.654 290.133 125.916L285.606 121.218C285.318 120.921 284.913 120.786 284.508 120.849Z" fill="white"/>
<path d="M278.064 121.92L284.508 120.849C284.913 120.786 285.318 120.921 285.606 121.218L290.133 125.916C290.853 126.654 292.095 126.258 292.248 125.241L293.229 118.779C293.283 118.383 293.544 118.032 293.913 117.852L299.781 114.999C300.699 114.549 300.708 113.235 299.79 112.776L293.949 109.851C293.589 109.671 293.337 109.32 293.283 108.915L292.374 102.453C292.23 101.436 290.988 101.022 290.268 101.751L285.687 106.404C285.399 106.692 284.985 106.827 284.589 106.755L278.154 105.612C277.146 105.441 276.372 106.494 276.84 107.403L279.846 113.199C280.035 113.568 280.035 113.991 279.846 114.351L276.768 120.12C276.291 121.02 277.056 122.091 278.064 121.92Z" stroke="#111827" stroke-width="1.9134"/>
<path fill-rule="evenodd" clip-rule="evenodd" d="M124.246 225.449C121.762 225.449 119.746 227.465 119.746 229.949C119.746 232.433 121.762 234.449 124.246 234.449C126.73 234.449 128.746 232.433 128.746 229.949C128.746 227.465 126.73 225.449 124.246 225.449Z" fill="white"/>
<path d="M124.246 225.449C121.762 225.449 119.746 227.465 119.746 229.949C119.746 232.433 121.762 234.449 124.246 234.449C126.73 234.449 128.746 232.433 128.746 229.949C128.746 227.465 126.73 225.449 124.246 225.449Z" stroke="#111827" stroke-width="1.9134"/>
<path fill-rule="evenodd" clip-rule="evenodd" d="M138.045 118.473C134.49 118.473 131.61 121.353 131.61 124.908C131.61 128.454 134.49 131.334 138.045 131.334C141.591 131.334 144.471 128.454 144.471 124.908C144.471 121.353 141.591 118.473 138.045 118.473Z" fill="#111827"/>
<path d="M73.4531 96.275L80.9951 101.432M83.6501 80.8022L89.2751 88.0022M101.026 71.5781L101.485 80.7041" stroke="#111827" stroke-width="1.8"/>
</svg>
