<svg width="360" height="270" viewBox="0 0 360 270" fill="none" xmlns="http://www.w3.org/2000/svg">
<path d="M59.2279 188.88C48.9769 179.79 43.1719 169.404 43.1719 158.379C43.1719 122.568 104.435 93.543 179.999 93.543C255.572 93.543 316.826 122.568 316.826 158.379C316.826 169.926 310.463 180.762 299.303 190.149" stroke="#111827" stroke-width="1.9134"/>
<path d="M180.001 112.066C104.437 112.066 43.1738 141.091 43.1738 176.902C43.1738 188.152 49.2218 198.736 59.8688 207.961C68.7158 215.629 80.7398 222.361 95.1128 227.752C118.432 236.509 147.934 241.738 180.001 241.738C255.574 241.738 316.828 212.713 316.828 176.902C316.828 141.091 255.574 112.066 180.001 112.066Z" stroke="#111827" stroke-width="1.9134"/>
<path fill-rule="evenodd" clip-rule="evenodd" d="M137.4 183.782H247.299C249.164 183.783 251.012 183.417 252.735 182.703C254.459 181.99 256.025 180.944 257.343 179.625C258.662 178.306 259.709 176.74 260.422 175.016C261.135 173.293 261.502 171.446 261.501 169.58V42.0953C261.501 38.3333 260.007 34.7153 257.343 32.0603C254.678 29.398 251.066 27.9024 247.299 27.9023H137.4C129.561 27.9023 123.207 34.2563 123.207 42.0953V169.58C123.207 173.342 124.701 176.96 127.365 179.624C128.682 180.943 130.247 181.989 131.968 182.703C133.69 183.416 135.536 183.783 137.4 183.782Z" fill="#D1D5DB"/>
<path d="M145.311 46.0767V47.0865H138.964V46.0767H145.311ZM145.105 38.6157L139.26 47.0865H138.494V46.1595L144.332 37.7148H145.105V38.6157ZM144.576 37.7157V38.7327H138.578V37.7157H144.576Z" fill="#67C16B"/>
<path d="M214.751 221.106C203.654 222.483 192.008 223.212 180.002 223.212C134.777 223.212 94.6815 212.817 69.7695 196.797M259.167 211.266C250.806 214.083 241.743 216.459 232.14 218.34" stroke="#111827" stroke-width="1.9134"/>
<path d="M127.049 211.793C123.98 219.263 121.874 226.904 120.758 234.599M233.258 213.593C236.327 221.063 238.433 228.704 239.54 236.399" stroke="#111827" stroke-width="1.8"/>
<path fill-rule="evenodd" clip-rule="evenodd" d="M130.566 183.782H240.465C242.33 183.783 244.178 183.417 245.901 182.703C247.625 181.99 249.191 180.944 250.51 179.625C251.828 178.306 252.875 176.74 253.588 175.016C254.301 173.293 254.668 171.446 254.667 169.58V42.0953C254.667 38.3333 253.173 34.7153 250.509 32.0603C247.844 29.398 244.232 27.9024 240.465 27.9023H130.566C122.727 27.9023 116.373 34.2563 116.373 42.0953V169.58C116.373 173.342 117.867 176.96 120.531 179.624C121.848 180.943 123.413 181.989 125.134 182.703C126.856 183.416 128.702 183.783 130.566 183.782Z" fill="#D1D5DB"/>
<path fill-rule="evenodd" clip-rule="evenodd" d="M121.357 202.201H231.256C233.121 202.202 234.969 201.835 236.692 201.122C238.416 200.408 239.982 199.362 241.301 198.043C242.619 196.724 243.666 195.158 244.379 193.435C245.092 191.712 245.459 189.864 245.458 187.999V43.693C245.458 39.931 243.964 36.313 241.3 33.658C238.635 30.9956 235.023 29.5001 231.256 29.5H121.357C113.518 29.5 107.164 35.854 107.164 43.693V187.999C107.164 191.761 108.658 195.379 111.322 198.043C112.639 199.362 114.204 200.408 115.925 201.121C117.647 201.835 119.493 202.202 121.357 202.201Z" fill="#67C16B"/>
<path d="M246.411 43.457C246.411 36.2773 240.59 30.457 233.411 30.457H121.121C113.941 30.457 108.121 36.2773 108.121 43.457V188.243C108.121 195.423 113.941 201.243 121.121 201.243H233.411C240.59 201.243 246.411 195.423 246.411 188.243V43.457Z" stroke="#2E7D32" stroke-width="1.9134"/>
<path fill-rule="evenodd" clip-rule="evenodd" d="M161.699 163.004C151.25 159.908 142.304 153.401 136.112 144.797L135.869 144.446C131.612 138.011 129.164 130.46 129.164 122.396C129.164 119.606 129.461 116.879 130.019 114.233C135.687 115.875 141.56 116.696 147.461 116.672C160.232 116.672 171.851 112.955 180.455 106.88C184.89 103.835 188.631 99.888 191.435 95.297C191.453 95.261 191.462 95.234 191.489 95.207C191.975 94.496 192.938 94.3161 193.658 94.8111C210.659 106.403 218.408 127.508 212.981 147.335C204.575 157.982 190.913 164.912 175.478 164.912C171.461 164.916 167.457 164.438 163.553 163.49C162.968 163.346 162.401 163.193 161.825 163.04C161.78 163.031 161.744 163.013 161.699 163.004Z" fill="white"/>
<path d="M136.112 144.797C142.304 153.401 151.25 159.908 161.699 163.004C161.744 163.013 161.78 163.031 161.825 163.04C162.401 163.193 162.968 163.346 163.553 163.49C167.457 164.438 171.461 164.916 175.478 164.912C190.913 164.912 204.575 157.982 212.981 147.335C218.408 127.508 210.659 106.403 193.658 94.8111C192.938 94.3161 191.975 94.496 191.489 95.207C191.462 95.234 191.453 95.261 191.435 95.297C188.631 99.888 184.89 103.835 180.455 106.88C171.851 112.955 160.232 116.672 147.461 116.672C141.557 116.699 135.68 115.871 130.019 114.233C129.461 116.879 129.164 119.606 129.164 122.396C129.164 130.46 131.612 138.011 135.869 144.446L136.112 144.797Z" stroke="#111827" stroke-width="1.9134"/>
<path fill-rule="evenodd" clip-rule="evenodd" d="M123.131 112.578C121.808 111.993 120.521 111.363 119.279 110.688C118.196 110.085 117.342 109.143 116.849 108.006C116.551 107.324 116.39 106.591 116.376 105.848C116.362 105.104 116.494 104.365 116.766 103.673C117.038 102.981 117.443 102.349 117.959 101.814C118.475 101.279 119.092 100.851 119.774 100.554C123.592 98.8608 127.585 97.5932 131.681 96.7738C142.904 73.5628 170.219 63.0598 194.096 72.7708C203.012 76.3774 210.65 82.562 216.032 90.5334C221.414 98.5048 224.296 107.901 224.309 117.519C224.327 128.94 220.259 139.992 212.843 148.686C218.405 129.183 211.16 108.285 194.717 96.4048C194.672 96.3688 194.627 96.3418 194.582 96.3058C193.97 95.9166 193.229 95.7853 192.521 95.9404C191.813 96.0956 191.195 96.5246 190.802 97.1338C188.066 101.299 184.548 104.893 180.443 107.718C171.839 113.793 160.229 117.519 147.458 117.519C145.067 117.511 142.678 117.373 140.303 117.105C138.1 123.168 136.979 129.572 136.991 136.023C136.991 140.1 137.432 144.159 138.305 148.137C130.625 139.374 126.396 128.117 126.407 116.466C126.407 115.611 126.443 114.756 126.488 113.91C125.345 113.496 124.22 113.055 123.131 112.578Z" fill="#111827"/>
<path d="M119.279 110.688C120.521 111.363 121.808 111.993 123.131 112.578C124.22 113.055 125.345 113.496 126.488 113.91C126.443 114.756 126.407 115.611 126.407 116.466C126.396 128.117 130.625 139.374 138.305 148.137C137.432 144.159 136.991 140.1 136.991 136.023C136.979 129.572 138.1 123.168 140.303 117.105C142.679 117.375 145.073 117.51 147.458 117.519C160.229 117.519 171.839 113.793 180.443 107.718C184.547 104.892 188.066 101.301 190.802 97.1338C191.195 96.5246 191.813 96.0956 192.521 95.9404C193.229 95.7853 193.97 95.9166 194.582 96.3058C194.627 96.3418 194.672 96.3688 194.717 96.4048C211.16 108.285 218.405 129.183 212.843 148.686C220.258 139.996 224.325 128.943 224.309 117.519C224.296 107.901 221.414 98.5048 216.032 90.5334C210.65 82.562 203.012 76.3774 194.096 72.7708C170.219 63.0598 142.904 73.5628 131.681 96.7738C127.585 97.5932 123.592 98.8608 119.774 100.554C119.092 100.851 118.475 101.279 117.959 101.814C117.443 102.349 117.038 102.981 116.766 103.673C116.494 104.365 116.362 105.104 116.376 105.848C116.39 106.591 116.551 107.324 116.849 108.006C117.342 109.143 118.196 110.085 119.279 110.688Z" stroke="#111827" stroke-width="0.9"/>
<path d="M176.47 149.523C174.931 149.523 173.68 151.377 173.68 153.663C173.68 155.958 174.931 157.812 176.47 157.812C178.009 157.812 179.26 155.958 179.26 153.663C179.26 151.377 178.009 149.523 176.47 149.523Z" stroke="#111827" stroke-width="1.9134"/>
<path d="M161.76 132.617C161.76 134.903 159.906 136.757 157.611 136.757C156.513 136.757 155.46 136.321 154.683 135.545C153.907 134.768 153.471 133.715 153.471 132.617M197.125 132.617C197.125 133.715 196.689 134.768 195.913 135.545C195.136 136.321 194.083 136.757 192.985 136.757C190.69 136.757 188.836 134.903 188.836 132.617" stroke="#111827" stroke-width="2.5515"/>
<path d="M175.478 79.8672C149.9 79.8672 129.164 98.9022 129.164 122.392C129.164 145.873 149.9 164.908 175.478 164.908C201.056 164.908 221.783 145.873 221.783 122.392C221.783 98.9022 201.056 79.8672 175.478 79.8672Z" stroke="#111827" stroke-width="1.9134"/>
<path fill-rule="evenodd" clip-rule="evenodd" d="M128.085 177.88L131.262 172.003C132.576 169.816 135.546 169.195 137.643 170.77C139.47 172.138 139.83 174.748 138.651 176.71L130.776 189.742C126.438 198.886 118.104 204.079 111.57 202.999C104.01 201.757 95.8647 195.61 94.5957 191.083C94.6407 183.73 97.9257 176.746 103.596 172.057C103.695 171.976 103.785 171.895 103.875 171.823L112.911 156.577C114.234 154.39 117.195 153.769 119.292 155.344C121.119 156.712 121.479 159.322 120.3 161.275L115.881 168.592C116.331 168.637 116.781 168.691 117.222 168.763C122.388 169.618 126.438 173.254 128.085 177.88Z" fill="white"/>
<path d="M131.262 172.003L128.085 177.88C126.438 173.254 122.388 169.618 117.222 168.763C116.781 168.691 116.331 168.637 115.881 168.592L120.3 161.275C121.479 159.322 121.119 156.712 119.292 155.344C117.195 153.769 114.234 154.39 112.911 156.577L103.875 171.823C103.785 171.895 103.695 171.976 103.596 172.057C97.9257 176.746 94.6407 183.73 94.5957 191.083C95.8647 195.61 104.01 201.757 111.57 202.999C118.104 204.079 126.438 198.886 130.776 189.742L138.651 176.71C139.83 174.748 139.47 172.138 137.643 170.77C135.546 169.195 132.576 169.816 131.262 172.003Z" stroke="#111827" stroke-width="1.9134"/>
<path fill-rule="evenodd" clip-rule="evenodd" d="M111.77 173.358L124.892 184.401L134.441 168.57C135.683 166.509 135.017 163.809 132.956 162.567C131.066 161.424 128.924 162.297 127.628 164.034L128.816 162.054C130.058 159.993 129.392 157.293 127.331 156.051C125.27 154.8 122.561 155.475 121.319 157.536L111.77 173.358Z" fill="white"/>
<path d="M127.628 164.034C128.924 162.297 131.066 161.424 132.956 162.567C135.017 163.809 135.683 166.509 134.441 168.57L124.892 184.401L111.77 173.358L121.319 157.536C122.561 155.475 125.27 154.8 127.331 156.051C129.392 157.293 130.058 159.993 128.816 162.054L127.628 164.034ZM127.628 164.034L119.267 177.885L127.286 164.538C127.394 164.367 127.502 164.196 127.628 164.034Z" stroke="#111827" stroke-width="1.9134"/>
<path fill-rule="evenodd" clip-rule="evenodd" d="M101.592 189.332L118.692 196.802C123.39 198.854 126.684 201.464 124.623 206.171L112.473 233.981C98.7301 230.516 86.6971 226.277 77.7871 220.157L90.4321 191.222C92.4841 186.533 96.8941 187.28 101.592 189.332Z" fill="white"/>
<path d="M118.692 196.802L101.592 189.332C96.8941 187.28 92.4841 186.533 90.4321 191.222L77.7871 220.157C86.6971 226.277 98.7301 230.516 112.473 233.981L124.623 206.171C126.684 201.464 123.39 198.854 118.692 196.802Z" stroke="#111827" stroke-width="1.9134"/>
<path fill-rule="evenodd" clip-rule="evenodd" d="M222.46 180.302C220.948 178.583 220.849 175.946 222.406 174.281C224.188 172.364 227.221 172.445 228.904 174.371L233.062 179.591C233.872 174.749 237.211 170.456 242.152 168.71C242.575 168.557 243.007 168.422 243.439 168.305L237.805 161.879C236.293 160.16 236.194 157.532 237.751 155.858C239.533 153.941 242.566 154.031 244.249 155.948L255.832 169.367C255.931 169.421 256.03 169.484 256.147 169.547C262.555 173.165 267.01 179.456 268.351 186.692C267.901 191.372 260.971 198.851 253.744 201.416C247.507 203.63 238.381 199.976 232.495 191.75L222.46 180.302Z" fill="white"/>
<path d="M222.406 174.281C220.849 175.946 220.948 178.583 222.46 180.302L232.495 191.75C238.381 199.976 247.507 203.63 253.744 201.416C260.971 198.851 267.901 191.372 268.351 186.692C267.01 179.456 262.555 173.165 256.147 169.547C256.03 169.484 255.931 169.421 255.832 169.367L244.249 155.948C242.566 154.031 239.533 153.941 237.751 155.858C236.194 157.532 236.293 160.16 237.805 161.879L243.439 168.305C243.007 168.422 242.575 168.557 242.152 168.71C237.211 170.456 233.872 174.749 233.062 179.591L228.904 174.371C227.221 172.445 224.188 172.364 222.406 174.281Z" stroke="#111827" stroke-width="1.9134"/>
<path fill-rule="evenodd" clip-rule="evenodd" d="M249.48 174.095L237.285 160.199C235.701 158.39 232.92 158.21 231.111 159.794C229.302 161.387 229.122 164.159 230.706 165.977L232.236 167.714C230.643 166.229 228.375 165.743 226.719 167.201C224.91 168.785 224.73 171.566 226.314 173.375L238.5 187.271L249.48 174.095Z" fill="white"/>
<path d="M232.236 167.714L230.706 165.977C229.122 164.159 229.302 161.387 231.111 159.794C232.92 158.21 235.701 158.39 237.285 160.199L249.48 174.095L238.5 187.271L226.314 173.375C224.73 171.566 224.91 168.785 226.719 167.201C228.375 165.743 230.643 166.229 232.236 167.714ZM232.236 167.714C232.38 167.852 232.519 167.996 232.65 168.146L242.892 179.873L232.236 167.714Z" stroke="#111827" stroke-width="1.9134"/>
<path fill-rule="evenodd" clip-rule="evenodd" d="M272.57 189.11L286.835 217.415C276.548 222.95 265.469 227.18 253.391 231.212L240.548 204.509C238.424 200.099 242.438 196.976 246.848 194.852L260.717 184.943C265.118 182.837 270.455 184.709 272.57 189.11Z" fill="white"/>
<path d="M286.835 217.415L272.57 189.11C270.455 184.709 265.118 182.837 260.717 184.943L246.848 194.852C242.438 196.976 238.424 200.099 240.548 204.509L253.391 231.212C265.469 227.18 276.548 222.95 286.835 217.415Z" stroke="#111827" stroke-width="1.9134"/>
<path d="M104.543 212.101C90.8544 208.33 78.9024 202.759 69.4434 196.801" stroke="#111827" stroke-width="1.9134"/>
<path fill-rule="evenodd" clip-rule="evenodd" d="M224.244 214.801C221.76 214.801 219.744 216.817 219.744 219.301C219.744 221.785 221.76 223.801 224.244 223.801C226.728 223.801 228.744 221.785 228.744 219.301C228.744 216.817 226.728 214.801 224.244 214.801Z" fill="#111827"/>
<path fill-rule="evenodd" clip-rule="evenodd" d="M71.5515 112.199L77.7885 122.999H65.3145L71.5515 112.199Z" fill="#67C16B"/>
<path d="M77.7885 122.999L71.5515 112.199L65.3145 122.999H77.7885Z" stroke="#2E7D32" stroke-width="1.9134"/>
<path fill-rule="evenodd" clip-rule="evenodd" d="M102.454 71.1172V73.5922L95.5058 83.6272V83.7172H102.571V87.2992H89.6738V84.9952L96.8378 74.7892V74.6992H90.3488V71.1172H102.454Z" fill="#111827"/>
<path d="M138.481 46.0767V47.0865H132.134V46.0767H138.481ZM138.275 38.6157L132.43 47.0865H131.664V46.1595L137.502 37.7148H138.275V38.6157ZM137.747 37.7157V38.7327H131.748V37.7157H137.747Z" fill="#67C16B"/>
<path fill-rule="evenodd" clip-rule="evenodd" d="M120.594 66.7661V63.9761L129.27 51.6101V51.5021H121.413V47.1641H136.074V50.1701L127.659 62.3201V62.4281H136.218V66.7661H120.594Z" fill="white"/>
<path fill-rule="evenodd" clip-rule="evenodd" d="M85.0951 37.3072V37.2532H80.9281V34.9492H88.7041V36.5422L84.2401 42.9862V43.0402H88.7851V45.3442H80.4961V43.8592L85.0951 37.3072Z" fill="#111827"/>
<path fill-rule="evenodd" clip-rule="evenodd" d="M155.082 188.702H204.51C205.23 188.702 205.914 188.414 206.418 187.91C206.797 187.533 207.055 187.052 207.159 186.528C207.264 186.004 207.211 185.461 207.007 184.967C206.802 184.474 206.456 184.052 206.011 183.755C205.567 183.459 205.045 183.301 204.51 183.302H155.082C154.362 183.302 153.678 183.59 153.174 184.094C152.796 184.471 152.538 184.952 152.433 185.476C152.328 186 152.382 186.543 152.586 187.036C152.79 187.53 153.137 187.952 153.581 188.248C154.026 188.545 154.548 188.703 155.082 188.702ZM220.878 46.7042H228.636C230.049 46.7042 231.192 45.5522 231.192 44.1392C231.192 42.7262 230.049 41.5742 228.636 41.5742H220.878C220.194 41.5742 219.546 41.8442 219.06 42.3212C218.583 42.8072 218.313 43.4552 218.313 44.1392C218.313 44.8232 218.583 45.4712 219.06 45.9572C219.546 46.4342 220.194 46.7042 220.878 46.7042Z" fill="white"/>
<path fill-rule="evenodd" clip-rule="evenodd" d="M126.188 110.609C124.546 110.609 122.971 111.262 121.81 112.423C120.648 113.584 119.996 115.159 119.996 116.801C119.996 120.23 122.768 123.002 126.188 123.002C129.617 123.002 132.389 120.23 132.389 116.801C132.389 113.381 129.617 110.609 126.188 110.609Z" fill="#111827"/>
<path fill-rule="evenodd" clip-rule="evenodd" d="M264.223 182.733C266.554 181.401 269.542 182.22 270.874 184.551L274.375 192.669L242.893 209.391L239.077 202.695C237.745 200.364 238.564 197.376 240.895 196.044L264.223 182.733Z" fill="#D1D5DB"/>
<path d="M270.874 184.551C269.542 182.22 266.554 181.401 264.223 182.733L240.895 196.044C238.564 197.376 237.745 200.364 239.077 202.695L242.893 209.391L274.375 192.669L270.874 184.551Z" stroke="#111827" stroke-width="1.9134"/>
<path fill-rule="evenodd" clip-rule="evenodd" d="M246.107 198.676C244.703 198.676 243.569 199.81 243.569 201.214C243.569 202.627 244.703 203.761 246.107 203.761C247.52 203.761 248.654 202.627 248.654 201.214C248.654 199.81 247.52 198.676 246.107 198.676ZM123.21 196.405C125.739 197.44 126.981 200.437 125.982 203.056L121.752 211.264L88.5508 196.396L91.4398 188.854C92.4388 186.235 95.3278 184.939 97.8568 185.983L123.21 196.405Z" fill="#D1D5DB"/>
<path d="M125.982 203.056C126.981 200.437 125.739 197.44 123.21 196.405L97.8568 185.983C95.3278 184.939 92.4388 186.235 91.4398 188.854L88.5508 196.396L121.752 211.264L125.982 203.056Z" stroke="#111827" stroke-width="1.9134"/>
<path fill-rule="evenodd" clip-rule="evenodd" d="M118.956 199.375C117.525 199.375 116.373 200.572 116.373 202.048C116.373 203.524 117.525 204.721 118.956 204.721C120.378 204.721 121.539 203.524 121.539 202.048C121.539 200.572 120.378 199.375 118.956 199.375Z" fill="#D1D5DB"/>
</svg>
