<svg width="360" height="270" viewBox="0 0 360 270" fill="none" xmlns="http://www.w3.org/2000/svg">
<path d="M180.93 107.086H132.852L129.99 119.416C129.99 119.416 173.829 133.015 181.83 131.575C189.831 130.135 192.225 127.57 193.35 123.412C194.466 119.245 193.35 113.647 193.35 113.647" stroke="#111827" stroke-width="1.9134"/>
<path fill-rule="evenodd" clip-rule="evenodd" d="M100.871 195.901H266.093C268.577 195.901 270.593 193.885 270.593 191.401V162.43C270.593 159.946 268.577 157.93 266.093 157.93H100.871C98.3871 157.93 96.3711 159.946 96.3711 162.43V191.401C96.3711 193.885 98.3871 195.901 100.871 195.901Z" fill="white"/>
<path d="M271.548 158.887H97.3281V194.945H271.548V158.887Z" stroke="#111827" stroke-width="1.9134"/>
<path fill-rule="evenodd" clip-rule="evenodd" d="M101.219 195.901H216.968V157.93H101.219C98.7348 157.93 96.7188 159.946 96.7188 162.43V191.401C96.7188 193.885 98.7348 195.901 101.219 195.901Z" fill="#67C16B"/>
<path d="M217.923 158.887H97.6758V194.945H217.923V158.887Z" stroke="#2E7D32" stroke-width="1.9134"/>
<path fill-rule="evenodd" clip-rule="evenodd" d="M101.211 218.742C98.7269 218.742 96.7109 220.758 96.7109 223.242C96.7109 225.726 98.7269 227.742 101.211 227.742C103.695 227.742 105.711 225.726 105.711 223.242C105.711 220.758 103.695 218.742 101.211 218.742Z" fill="#111827"/>
<path d="M249.307 83.0391L248.992 89.6991M263.741 97.4544L257.081 97.1394M259.907 83.9697L256.37 89.6217" stroke="#111827" stroke-width="0.9"/>
<path fill-rule="evenodd" clip-rule="evenodd" d="M63.667 126.225C63.694 126.63 63.919 126.999 64.261 127.215L69.868 130.563C70.75 131.094 70.642 132.399 69.688 132.777L63.613 135.189C63.235 135.333 62.956 135.666 62.866 136.062L61.408 142.425C61.174 143.424 59.896 143.73 59.248 142.938L55.081 137.907C54.9531 137.753 54.7896 137.632 54.6046 137.555C54.4195 137.479 54.2185 137.448 54.019 137.466L47.512 138.042C46.486 138.132 45.811 137.016 46.36 136.143L49.852 130.635C50.077 130.284 50.104 129.861 49.951 129.483L47.386 123.471C46.981 122.535 47.836 121.536 48.835 121.788L55.162 123.408C55.558 123.516 55.972 123.417 56.278 123.147L61.201 118.854C61.975 118.179 63.19 118.683 63.253 119.709L63.667 126.225Z" fill="#D1D5DB"/>
<path fill-rule="evenodd" clip-rule="evenodd" d="M230.456 70.4445L241.893 61.8594L230.914 47.2344L219.477 55.8186L230.456 70.4445Z" fill="#9CA3AF"/>
<path fill-rule="evenodd" clip-rule="evenodd" d="M228.144 70.1681L241.064 64.0364L233.222 47.5142L220.302 53.6459L228.144 70.1681ZM196.938 50.2853L203.473 55.1921L209.746 46.8356L203.211 41.9297L196.938 50.2853Z" fill="#E5E7EB"/>
<path fill-rule="evenodd" clip-rule="evenodd" d="M236.283 223.242L245.994 231.072L234.357 235.563L236.283 223.242Z" fill="#67C16B"/>
<path d="M245.994 231.072L236.283 223.242L234.357 235.563L245.994 231.072Z" stroke="#2E7D32" stroke-width="1.9134"/>
<path d="M269.811 110.76C291.123 119.661 306.54 131.649 312.939 145.248M76.65 120.322C101.751 106.327 139.164 97.4531 180.942 97.4531C204.333 97.4531 226.356 100.234 245.607 105.139M105.158 213.895C101.477 212.77 97.9215 211.564 94.5015 210.277C91.3605 209.098 88.3365 207.856 85.4385 206.56C75.0345 201.898 66.1785 196.48 59.2575 190.486C48.6105 181.261 42.5625 170.677 42.5625 159.427C42.5625 153.487 44.2455 147.727 47.4045 142.264M316.216 159.424C316.216 195.235 254.962 224.26 179.389 224.26M94.497 221.181C80.124 215.79 68.1 209.058 59.253 201.39C52.8 195.801 48.039 189.699 45.285 183.264M221.248 232.082C208.054 234.08 193.987 235.169 179.389 235.169C153.199 235.169 128.72 231.677 107.921 225.629" stroke="#111827" stroke-width="1.9134"/>
<path d="M316.215 170.332C316.215 192.616 292.491 212.272 256.365 223.945" stroke="#111827" stroke-width="1.9134"/>
<path fill-rule="evenodd" clip-rule="evenodd" d="M312.938 141.805C310.454 141.805 308.438 143.821 308.438 146.305C308.438 148.789 310.454 150.805 312.938 150.805C315.421 150.805 317.438 148.789 317.438 146.305C317.438 143.821 315.421 141.805 312.938 141.805Z" fill="white"/>
<path d="M312.937 141.805C310.453 141.805 308.438 143.821 308.438 146.305C308.438 148.789 310.453 150.805 312.937 150.805C315.421 150.805 317.437 148.789 317.437 146.305C317.437 143.821 315.421 141.805 312.937 141.805Z" stroke="#111827" stroke-width="1.9134"/>
<mask id="mask0_4329_30624" style="mask-type:alpha" maskUnits="userSpaceOnUse" x="96" y="157" width="121" height="39">
<path d="M101.221 195.905H216.97V157.934H101.221C98.7367 157.934 96.7207 159.95 96.7207 162.434V191.405C96.7207 193.889 98.7367 195.905 101.221 195.905Z" fill="white"/>
</mask>
<g mask="url(#mask0_4329_30624)">
<path fill-rule="evenodd" clip-rule="evenodd" d="M206.367 167.564H216.969V157.934H206.367V167.564Z" fill="#67C16B"/>
<path d="M217.925 158.891H207.324V166.608H217.925V158.891Z" stroke="#2E7D32" stroke-width="1.9134"/>
<path fill-rule="evenodd" clip-rule="evenodd" d="M195.918 177.056H206.52V167.426H195.918V177.056Z" fill="#67C16B"/>
<path d="M207.476 168.383H196.875V176.099H207.476V168.383Z" stroke="#2E7D32" stroke-width="1.9134"/>
<path fill-rule="evenodd" clip-rule="evenodd" d="M185.469 186.552H196.071V176.922H185.469V186.552Z" fill="#67C16B"/>
<path d="M197.024 177.879H186.424V185.596H197.024V177.879Z" stroke="#2E7D32" stroke-width="1.9134"/>
<path fill-rule="evenodd" clip-rule="evenodd" d="M206.367 186.552H216.969V176.922H206.367V186.552Z" fill="#67C16B"/>
<path d="M217.925 177.879H207.324V185.596H217.925V177.879Z" stroke="#2E7D32" stroke-width="1.9134"/>
<path fill-rule="evenodd" clip-rule="evenodd" d="M175.02 196.044H185.622V186.414H175.02V196.044Z" fill="#67C16B"/>
<path d="M186.576 187.371H175.975V195.088H186.576V187.371Z" stroke="#2E7D32" stroke-width="1.9134"/>
<path fill-rule="evenodd" clip-rule="evenodd" d="M195.844 167.564H206.446V157.934H195.844V167.564Z" fill="#2E7D32"/>
<path d="M207.398 158.891H196.797V166.608H207.398V158.891Z" stroke="#2E7D32" stroke-width="1.9134"/>
<path fill-rule="evenodd" clip-rule="evenodd" d="M185.393 177.056H195.995V167.426H185.393V177.056Z" fill="#2E7D32"/>
<path d="M196.948 168.383H186.348V176.099H196.948V168.383Z" stroke="#2E7D32" stroke-width="1.9134"/>
<path fill-rule="evenodd" clip-rule="evenodd" d="M174.943 186.552H185.545V176.922H174.943V186.552Z" fill="#2E7D32"/>
<path d="M186.5 177.879H175.898V185.596H186.5V177.879Z" stroke="#2E7D32" stroke-width="1.9134"/>
<path fill-rule="evenodd" clip-rule="evenodd" d="M164.494 196.044H175.096V186.414H164.494V196.044Z" fill="#2E7D32"/>
<path d="M176.05 187.371H165.449V195.088H176.05V187.371Z" stroke="#2E7D32" stroke-width="1.9134"/>
<path fill-rule="evenodd" clip-rule="evenodd" d="M174.867 167.564H185.469V157.934H174.867V167.564Z" fill="#2E7D32"/>
<path d="M186.425 158.891H175.824V166.608H186.425V158.891Z" stroke="#2E7D32" stroke-width="1.9134"/>
<path fill-rule="evenodd" clip-rule="evenodd" d="M164.418 177.056H175.02V167.426H164.418V177.056Z" fill="#2E7D32"/>
<path d="M175.976 168.383H165.375V176.099H175.976V168.383Z" stroke="#2E7D32" stroke-width="1.9134"/>
<path fill-rule="evenodd" clip-rule="evenodd" d="M153.969 186.552H164.571V176.922H153.969V186.552Z" fill="#2E7D32"/>
<path d="M165.526 177.879H154.926V185.596H165.526V177.879Z" stroke="#2E7D32" stroke-width="1.9134"/>
<path fill-rule="evenodd" clip-rule="evenodd" d="M143.52 196.044H154.122V186.414H143.52V196.044Z" fill="#2E7D32"/>
<path d="M155.078 187.371H144.477V195.088H155.078V187.371Z" stroke="#2E7D32" stroke-width="1.9134"/>
<path fill-rule="evenodd" clip-rule="evenodd" d="M153.893 167.564H164.495V157.934H153.893V167.564Z" fill="#2E7D32"/>
<path d="M165.45 158.891H154.85V166.608H165.45V158.891Z" stroke="#2E7D32" stroke-width="1.9134"/>
<path fill-rule="evenodd" clip-rule="evenodd" d="M143.443 177.056H154.045V167.426H143.443V177.056Z" fill="#2E7D32"/>
<path d="M155.001 168.383H144.4V176.099H155.001V168.383Z" stroke="#2E7D32" stroke-width="1.9134"/>
<path fill-rule="evenodd" clip-rule="evenodd" d="M132.994 186.552H143.596V176.922H132.994V186.552Z" fill="#2E7D32"/>
<path d="M144.55 177.879H133.949V185.596H144.55V177.879Z" stroke="#2E7D32" stroke-width="1.9134"/>
<path fill-rule="evenodd" clip-rule="evenodd" d="M122.543 196.044H133.145V186.414H122.543V196.044Z" fill="#2E7D32"/>
<path d="M134.102 187.371H123.502V195.088H134.102V187.371Z" stroke="#2E7D32" stroke-width="1.9134"/>
<path fill-rule="evenodd" clip-rule="evenodd" d="M132.918 167.564H143.52V157.934H132.918V167.564Z" fill="#2E7D32"/>
<path d="M144.476 158.891H133.875V166.608H144.476V158.891Z" stroke="#2E7D32" stroke-width="1.9134"/>
<path fill-rule="evenodd" clip-rule="evenodd" d="M122.469 177.056H133.071V167.426H122.469V177.056Z" fill="#2E7D32"/>
<path d="M134.026 168.383H123.426V176.099H134.026V168.383Z" stroke="#2E7D32" stroke-width="1.9134"/>
<path fill-rule="evenodd" clip-rule="evenodd" d="M112.02 186.552H122.622V176.922H112.02V186.552Z" fill="#2E7D32"/>
<path d="M123.578 177.879H112.977V185.596H123.578V177.879Z" stroke="#2E7D32" stroke-width="1.9134"/>
<path fill-rule="evenodd" clip-rule="evenodd" d="M101.57 196.044H112.172V186.414H101.57V196.044Z" fill="#2E7D32"/>
<path d="M113.128 187.371H102.527V195.088H113.128V187.371Z" stroke="#2E7D32" stroke-width="1.9134"/>
<path fill-rule="evenodd" clip-rule="evenodd" d="M111.943 167.564H122.545V157.934H111.943V167.564Z" fill="#2E7D32"/>
<path d="M123.501 158.891H112.9V166.608H123.501V158.891Z" stroke="#2E7D32" stroke-width="1.9134"/>
<path fill-rule="evenodd" clip-rule="evenodd" d="M101.494 177.056H112.096V167.426H101.494V177.056Z" fill="#2E7D32"/>
<path d="M113.052 168.383H102.451V176.099H113.052V168.383Z" stroke="#2E7D32" stroke-width="1.9134"/>
<path fill-rule="evenodd" clip-rule="evenodd" d="M91.043 186.552H101.645V176.922H91.043V186.552Z" fill="#2E7D32"/>
<path d="M102.602 177.879H92.002V185.596H102.602V177.879Z" stroke="#2E7D32" stroke-width="1.9134"/>
<path fill-rule="evenodd" clip-rule="evenodd" d="M184.672 196.044H195.274V186.414H184.672V196.044Z" fill="#2E7D32"/>
<path d="M196.23 187.371H185.629V195.088H196.23V187.371Z" stroke="#2E7D32" stroke-width="1.9134"/>
<path fill-rule="evenodd" clip-rule="evenodd" d="M90.9688 167.564H101.571V157.934H90.9688V167.564Z" fill="#2E7D32"/>
<path d="M102.526 158.891H91.9258V166.608H102.526V158.891Z" stroke="#2E7D32" stroke-width="1.9134"/>
<path fill-rule="evenodd" clip-rule="evenodd" d="M206.367 195.907H216.969V186.277H206.367V195.907Z" fill="#2E7D32"/>
<path d="M217.925 187.234H207.324V194.952H217.925V187.234Z" stroke="#2E7D32" stroke-width="1.9134"/>
<path fill-rule="evenodd" clip-rule="evenodd" d="M206.367 177.193H216.969V167.562H206.367V177.193Z" fill="#2E7D32"/>
<path d="M217.925 168.523H207.324V176.241H217.925V168.523Z" stroke="#2E7D32" stroke-width="1.9134"/>
<path fill-rule="evenodd" clip-rule="evenodd" d="M195.918 186.552H206.52V176.922H195.918V186.552Z" fill="#2E7D32"/>
<path d="M207.476 177.879H196.875V185.596H207.476V177.879Z" stroke="#2E7D32" stroke-width="1.9134"/>
</g>
<path fill-rule="evenodd" clip-rule="evenodd" d="M188.072 123.482L141.182 152.957L94.3008 123.482L141.182 114.059L188.072 123.482Z" fill="#111827"/>
<path fill-rule="evenodd" clip-rule="evenodd" d="M165.894 172.355L154.68 165.686L158.721 156.668L167.577 161.717L165.894 172.355Z" fill="white"/>
<path fill-rule="evenodd" clip-rule="evenodd" d="M168.546 187.342L167.052 181.798L163.668 172.852L159.303 169.972L163.38 166.444L165.423 168.046L164.847 159.64C169.689 159.091 172.785 162.349 172.785 162.349L174.486 162.466L173.892 169.648L172.299 169.387C172.299 169.387 173.55 174.328 173.334 180.43C173.199 184.192 171.453 186.559 170.202 187.783C169.662 188.314 168.744 188.071 168.546 187.342Z" fill="#111827"/>
<path fill-rule="evenodd" clip-rule="evenodd" d="M128.404 162.723C124.102 161.229 120.097 161.661 116.119 160.311C109.396 158.034 103.618 156.063 100.684 155.037C88.7589 150.888 82.3239 140.97 84.0069 132.267C85.6899 123.564 97.6239 120.009 108.946 126.084C120.259 132.159 161.407 155.037 161.407 155.037L154.45 173.244C149.959 171.732 149.5 169.662 145.9 168.348C144.564 167.857 143.653 167.867 142.622 167.879C141.367 167.893 139.938 167.91 137.359 167.025C132.652 165.423 131.122 163.668 128.404 162.723Z" fill="#111827"/>
<path d="M116.119 160.311C120.097 161.661 124.102 161.229 128.404 162.723C131.122 163.668 132.652 165.423 137.359 167.025C142.057 168.636 142.939 167.259 145.9 168.348C149.5 169.662 149.959 171.732 154.45 173.244L161.407 155.037C161.407 155.037 120.259 132.159 108.946 126.084C97.6239 120.009 85.6899 123.564 84.0069 132.267C82.3239 140.97 88.7589 150.888 100.684 155.037C103.618 156.063 109.396 158.034 116.119 160.311Z" stroke="#111827" stroke-width="0.9"/>
<path fill-rule="evenodd" clip-rule="evenodd" d="M155.222 151.602C156.554 152.34 157.715 152.988 158.66 153.51L151.082 169.224L155.222 151.602Z" fill="#111827"/>
<path d="M115.637 129.727L158.657 157.186" stroke="#111827" stroke-width="0.6867"/>
<path fill-rule="evenodd" clip-rule="evenodd" d="M154.447 173.246C149.956 171.734 149.497 169.664 145.897 168.35C144.561 167.858 143.649 167.869 142.618 167.881C141.365 167.894 139.935 167.911 137.356 167.027C132.649 165.425 131.119 163.661 128.401 162.725C124.108 161.231 120.103 161.663 116.116 160.313C113.092 159.287 110.257 158.324 107.791 157.478L134.827 140.297C148.282 147.74 161.404 155.039 161.404 155.039L160.414 157.631L164.878 160.178L164.842 159.638C169.693 159.089 172.789 162.347 172.789 162.347L174.481 162.464L173.977 168.647L172.303 169.385H172.294L163.78 173.156L163.663 172.85L159.298 169.97L160.351 169.061L156.841 166.973L154.447 173.246Z" fill="#111827"/>
<path fill-rule="evenodd" clip-rule="evenodd" d="M120.967 155.037C120.967 155.037 162.115 132.159 173.428 126.084C184.75 120.009 196.684 123.564 198.367 132.267C200.05 140.97 193.615 150.888 181.69 155.037C178.756 156.063 172.978 158.034 166.255 160.311C162.277 161.661 158.272 161.229 153.97 162.723C151.261 163.668 149.722 165.423 145.024 167.025C142.44 167.91 141.008 167.893 139.752 167.879C138.722 167.867 137.809 167.857 136.474 168.348C132.883 169.662 132.415 171.732 127.924 173.244L120.967 155.037Z" fill="#111827"/>
<path d="M173.428 126.084C162.115 132.159 120.967 155.037 120.967 155.037L127.924 173.244C132.415 171.732 132.883 169.662 136.474 168.348C139.435 167.259 140.317 168.636 145.024 167.025C149.722 165.423 151.261 163.668 153.97 162.723C158.272 161.229 162.277 161.661 166.255 160.311C172.978 158.034 178.756 156.063 181.69 155.037C193.615 150.888 200.05 140.97 198.367 132.267C196.684 123.564 184.75 120.009 173.428 126.084Z" stroke="#111827" stroke-width="0.9"/>
<path fill-rule="evenodd" clip-rule="evenodd" d="M131.293 169.224L123.715 153.51C124.66 152.988 125.821 152.34 127.153 151.602L131.293 169.224Z" fill="#111827"/>
<path d="M123.715 157.186L166.735 129.727" stroke="#111827" stroke-width="0.6867"/>
<path fill-rule="evenodd" clip-rule="evenodd" d="M127.694 165.686L116.48 172.355L114.797 161.717L123.653 156.668L127.694 165.686Z" fill="white"/>
<path fill-rule="evenodd" clip-rule="evenodd" d="M109.585 162.349C109.585 162.349 112.681 159.091 117.532 159.64L116.947 168.046L118.999 166.444L123.076 169.972L118.711 172.852L115.318 181.798L113.824 187.342C113.626 188.071 112.717 188.314 112.168 187.783C110.926 186.559 109.18 184.192 109.045 180.43C108.82 174.328 110.08 169.387 110.08 169.387L108.487 169.648L107.893 162.466L109.585 162.349Z" fill="#111827"/>
<path fill-rule="evenodd" clip-rule="evenodd" d="M177.295 131.475C166.486 133.032 148.693 135.201 136.579 135.201C122.251 135.201 110.857 133.491 98.3556 131.835C73.3536 128.496 92.5056 94.6648 96.8256 89.8678C97.2126 89.4268 97.6176 88.9947 98.0406 88.5717C103.972 82.6497 112.135 78.9688 121.135 78.9688H157.837C166.324 78.9688 174.073 82.2447 179.905 87.6087C185.638 92.8557 208.588 126.984 177.295 131.475Z" fill="white"/>
<path d="M136.579 135.201C148.693 135.201 166.486 133.032 177.295 131.475C208.588 126.984 185.638 92.8557 179.905 87.6087C174.073 82.2447 166.324 78.9688 157.837 78.9688H121.135C112.135 78.9688 103.972 82.6497 98.0406 88.5717C97.6176 88.9947 97.2126 89.4268 96.8256 89.8678C92.5056 94.6648 73.3536 128.496 98.3556 131.835C110.857 133.491 122.251 135.201 136.579 135.201Z" stroke="#111827" stroke-width="1.9134"/>
<path d="M144.987 67.4883H133.281V86.8347H144.987V67.4883Z" stroke="#111827" stroke-width="1.9134"/>
<path d="M136.88 88.0467C134.953 90.3232 132.856 92.4503 130.607 94.4097C130.445 94.5447 130.238 94.6977 130.031 94.6257C129.932 94.5897 129.851 94.4997 129.788 94.4097C126.539 90.4317 124.874 85.1847 125.234 80.0547M139.26 88.1799C141.187 90.4565 143.284 92.5836 145.533 94.5429C145.695 94.6779 145.902 94.8309 146.109 94.7589C146.217 94.7229 146.289 94.6329 146.361 94.5519C149.61 90.5649 151.266 85.3179 150.906 80.1879" stroke="#111827" stroke-width="1.8"/>
<path fill-rule="evenodd" clip-rule="evenodd" d="M163.65 58.8672C161.301 58.8672 159.402 60.7662 159.402 63.1152C159.402 65.4642 161.301 67.3632 163.65 67.3632C165.999 67.3632 167.898 65.4642 167.898 63.1152C167.898 60.7662 165.999 58.8672 163.65 58.8672Z" fill="white"/>
<path d="M163.65 58.8672C161.301 58.8672 159.402 60.7662 159.402 63.1152C159.402 65.4642 161.301 67.3632 163.65 67.3632C165.999 67.3632 167.898 65.4642 167.898 63.1152C167.898 60.7662 165.999 58.8672 163.65 58.8672Z" stroke="#111827" stroke-width="1.9134"/>
<path fill-rule="evenodd" clip-rule="evenodd" d="M112.135 58.8672C109.786 58.8672 107.887 60.7662 107.887 63.1152C107.887 65.4642 109.786 67.3632 112.135 67.3632C114.484 67.3632 116.383 65.4642 116.383 63.1152C116.383 60.7662 114.484 58.8672 112.135 58.8672Z" fill="white"/>
<path d="M112.135 58.8672C109.786 58.8672 107.887 60.7662 107.887 63.1152C107.887 65.4642 109.786 67.3632 112.135 67.3632C114.484 67.3632 116.383 65.4642 116.383 63.1152C116.383 60.7662 114.484 58.8672 112.135 58.8672Z" stroke="#111827" stroke-width="1.9134"/>
<path fill-rule="evenodd" clip-rule="evenodd" d="M146.862 39.7154C146.871 39.6974 146.88 39.6884 146.889 39.6614C147.159 39.2744 147.699 39.1754 148.095 39.4454C152.7 42.5853 156.21 47.0846 158.135 52.3154C160.059 57.5462 160.303 63.2474 158.832 68.6234C154.161 74.5454 146.565 78.3974 137.997 78.3974C135.432 78.3979 132.879 78.0467 130.41 77.3534C130.387 77.3421 130.363 77.336 130.338 77.3354C124.612 75.6279 119.614 72.0703 116.127 67.2194C116.082 67.1564 116.037 67.0844 115.992 67.0214C113.625 63.4484 112.266 59.2544 112.266 54.7724C112.266 53.2244 112.428 51.7034 112.743 50.2364C115.884 51.1454 119.151 51.6044 122.427 51.5954C129.528 51.5954 135.981 49.5254 140.76 46.1504C143.226 44.4584 145.296 42.2624 146.862 39.7154Z" fill="white"/>
<path d="M146.889 39.6617C146.88 39.6887 146.871 39.6977 146.862 39.7157C145.3 42.2642 143.222 44.4565 140.76 46.1507C135.981 49.5257 129.528 51.5957 122.427 51.5957C119.151 51.6047 115.884 51.1457 112.743 50.2367C112.428 51.7037 112.266 53.2247 112.266 54.7727C112.266 59.2547 113.625 63.4487 115.992 67.0217C116.037 67.0847 116.082 67.1567 116.127 67.2197C119.565 71.9987 124.533 75.6077 130.338 77.3357C130.365 77.3357 130.392 77.3447 130.41 77.3537C132.879 78.047 135.432 78.3983 137.997 78.3977C146.565 78.3977 154.161 74.5457 158.832 68.6237C160.303 63.2478 160.059 57.5465 158.135 52.3157C156.21 47.0849 152.7 42.5856 148.095 39.4457C147.906 39.3162 147.673 39.2662 147.447 39.3066C147.222 39.3471 147.021 39.4746 146.889 39.6617Z" stroke="#111827" stroke-width="1.9134"/>
<path fill-rule="evenodd" clip-rule="evenodd" d="M118.45 51.8403C117.226 55.2064 116.605 58.7617 116.614 62.3433C116.614 64.6113 116.857 66.8703 117.343 69.0753C113.077 64.2073 110.729 57.953 110.737 51.4803C110.737 51.0033 110.755 50.5353 110.773 50.0583C109.393 49.5677 108.054 48.9688 106.768 48.2673C106.174 47.9343 105.697 47.4123 105.418 46.7823C104.725 45.1893 105.454 43.3353 107.047 42.6423C109.171 41.6973 111.385 40.9953 113.662 40.5363C119.899 27.6483 135.073 21.8163 148.339 27.2073C153.293 29.2099 157.537 32.6453 160.527 37.0736C163.517 41.502 165.118 46.7219 165.124 52.0653C165.132 58.4123 162.873 64.5534 158.752 69.3813C160.26 64.092 160.102 58.4668 158.3 53.2705C156.498 48.0741 153.14 43.5588 148.681 40.3383C148.663 40.3203 148.636 40.3023 148.609 40.2843C147.898 39.8343 146.962 40.0323 146.512 40.7433C144.987 43.0539 143.032 45.0492 140.752 46.6203C135.973 49.9953 129.52 52.0653 122.428 52.0653C121.096 52.0653 119.773 51.9843 118.45 51.8403Z" fill="#111827"/>
<path d="M116.613 62.3433C116.604 58.7613 117.225 55.2063 118.449 51.8403C119.772 51.9843 121.095 52.0653 122.427 52.0653C129.519 52.0653 135.972 49.9953 140.751 46.6203C143.031 45.0492 144.987 43.0539 146.511 40.7433C146.961 40.0323 147.897 39.8343 148.608 40.2843C148.635 40.3023 148.662 40.3203 148.68 40.3383C153.139 43.5588 156.497 48.0741 158.299 53.2705C160.101 58.4668 160.259 64.092 158.751 69.3813C162.872 64.5534 165.132 58.4123 165.123 52.0653C165.117 46.7219 163.516 41.502 160.526 37.0736C157.536 32.6453 153.292 29.2099 148.338 27.2073C135.072 21.8163 119.898 27.6483 113.661 40.5363C111.384 40.9953 109.17 41.6973 107.046 42.6423C106.282 42.9754 105.68 43.5986 105.375 44.375C105.069 45.1514 105.085 46.0173 105.417 46.7823C105.696 47.4123 106.173 47.9343 106.767 48.2673C108.053 48.9688 109.392 49.5677 110.772 50.0583C110.754 50.5353 110.736 51.0033 110.736 51.4803C110.727 57.9513 113.076 64.2063 117.342 69.0753C116.856 66.8703 116.613 64.6113 116.613 62.3433Z" stroke="#111827" stroke-width="0.9"/>
<path d="M137.997 31.1484C123.786 31.1484 112.266 41.7234 112.266 54.7734C112.266 67.8144 123.786 78.3984 137.997 78.3984C152.199 78.3984 163.719 67.8144 163.719 54.7734C163.719 41.7234 152.199 31.1484 137.997 31.1484Z" stroke="#111827" stroke-width="1.9134"/>
<path d="M137.31 61.1211L136.41 62.7051C136.14 63.1641 135.87 63.6501 135.906 64.1811C135.942 64.7031 136.437 65.2341 136.941 65.0991" stroke="#111827" stroke-width="1.8"/>
<path d="M130.139 59.8036C130.139 61.1716 129.032 62.2786 127.664 62.2786C126.296 62.2786 125.189 61.1716 125.189 59.8036M149.322 59.5039C149.322 60.8719 148.215 61.9789 146.847 61.9789C145.479 61.9789 144.372 60.8719 144.372 59.5039" stroke="#111827" stroke-width="2.5515"/>
<path d="M136.611 70.951C136.611 70.951 138.501 70.447 139.905 70.924" stroke="#111827" stroke-width="1.9134"/>
<path fill-rule="evenodd" clip-rule="evenodd" d="M92.0898 129.961C92.0898 129.961 96.8958 131.896 103.241 132.49C112.466 133.345 137.873 132.589 167.618 125.641C171.992 124.615 163.289 111.817 160.526 111.124C160.526 111.124 136.397 111.169 124.697 111.07C109.838 110.953 109.01 114.058 109.01 114.058L92.0898 129.961Z" fill="white"/>
<path d="M92.0898 129.961C92.0898 129.961 96.8958 131.896 103.241 132.49C112.466 133.345 137.873 132.589 167.618 125.641C171.992 124.615 163.289 111.817 160.526 111.124C160.526 111.124 136.397 111.169 124.697 111.07C109.838 110.953 109.01 114.058 109.01 114.058L92.0898 129.961Z" stroke="#111827" stroke-width="1.9134"/>
<path fill-rule="evenodd" clip-rule="evenodd" d="M170.827 101.037C171.637 101.865 171.484 103.557 170.476 104.817L166.516 109.74C165.616 110.865 164.329 111.261 163.492 110.73C163.393 110.676 163.294 110.595 163.213 110.514C162.394 109.686 162.556 107.994 163.564 106.734L167.515 101.811C168.532 100.551 170.008 100.209 170.827 101.037Z" fill="white"/>
<path d="M170.476 104.817C171.484 103.557 171.637 101.865 170.827 101.037C170.008 100.209 168.532 100.551 167.515 101.811L163.564 106.734C162.556 107.994 162.394 109.686 163.213 110.514C163.294 110.595 163.393 110.676 163.492 110.73C164.329 111.261 165.616 110.865 166.516 109.74L170.476 104.817Z" stroke="#111827" stroke-width="1.9134"/>
<path fill-rule="evenodd" clip-rule="evenodd" d="M173.462 102.225C174.281 103.044 174.146 104.7 173.165 105.924L169.295 110.703C168.413 111.792 167.144 112.17 166.298 111.648C166.199 111.585 166.109 111.513 166.028 111.423C165.209 110.604 165.344 108.939 166.325 107.724L170.195 102.936C171.185 101.721 172.652 101.397 173.462 102.225Z" fill="white"/>
<path d="M173.165 105.924C174.146 104.7 174.281 103.044 173.462 102.225C172.652 101.397 171.185 101.721 170.195 102.936L166.325 107.724C165.344 108.939 165.209 110.604 166.028 111.423C166.109 111.513 166.199 111.585 166.298 111.648C167.144 112.17 168.413 111.792 169.295 110.703L173.165 105.924Z" stroke="#111827" stroke-width="1.9134"/>
<path fill-rule="evenodd" clip-rule="evenodd" d="M177.528 104.349C178.365 105.15 178.32 106.653 177.438 107.706L173.964 111.855C173.172 112.8 171.975 113.07 171.129 112.548C171.03 112.485 170.94 112.413 170.85 112.323C170.013 111.531 170.049 110.028 170.94 108.975L174.405 104.826C175.296 103.773 176.691 103.557 177.528 104.349Z" fill="white"/>
<path d="M177.438 107.706C178.32 106.653 178.365 105.15 177.528 104.349C176.691 103.557 175.296 103.773 174.405 104.826L170.94 108.975C170.049 110.028 170.013 111.531 170.85 112.323C170.94 112.413 171.03 112.485 171.129 112.548C171.975 113.07 173.172 112.8 173.964 111.855L177.438 107.706Z" stroke="#111827" stroke-width="1.9134"/>
<path fill-rule="evenodd" clip-rule="evenodd" d="M132.024 105.699L129.162 118.02C129.162 118.02 173.001 131.628 181.002 130.188C189.003 128.748 191.406 126.183 192.522 122.025C193.647 117.858 193.161 114.312 193.161 114.312L177.456 110.784L132.024 105.699Z" fill="white"/>
<path d="M178.074 110.407L132.651 106.465L129.789 118.795C129.789 118.795 173.628 132.394 181.629 130.954C189.63 129.514 192.033 126.949 193.149 122.791C194.274 118.633 193.149 113.026 193.149 113.026" stroke="#111827" stroke-width="1.9134"/>
<path fill-rule="evenodd" clip-rule="evenodd" d="M117.012 113.61C110.406 114.852 111.099 112.035 111.099 112.035C111.099 112.035 112.782 106.905 120.108 104.943C127.434 102.981 132.321 106.437 132.321 106.437V107.058L129.459 118.767C129.459 118.767 123.609 112.368 117.012 113.61Z" fill="white"/>
<path d="M111.099 112.035C111.099 112.035 110.406 114.852 117.012 113.61C123.609 112.368 129.459 118.767 129.459 118.767L132.321 107.058V106.437C132.321 106.437 127.434 102.981 120.108 104.943C112.782 106.905 111.099 112.035 111.099 112.035Z" stroke="#111827" stroke-width="1.9134"/>
<path fill-rule="evenodd" clip-rule="evenodd" d="M109.569 44.6367C107.4 44.6367 105.645 46.3917 105.645 48.5607C105.645 50.7297 107.4 52.4847 109.569 52.4847C111.738 52.4847 113.493 50.7297 113.493 48.5607C113.493 46.3917 111.738 44.6367 109.569 44.6367Z" fill="#111827"/>
<path fill-rule="evenodd" clip-rule="evenodd" d="M129.789 118.795L132.651 106.465L138.519 107.653C138.519 107.653 136.44 119.641 135.549 119.947C134.658 120.262 129.789 118.795 129.789 118.795Z" fill="#D1D5DB"/>
<path d="M132.651 106.465L129.789 118.795C129.789 118.795 134.658 120.262 135.549 119.947C136.44 119.641 138.519 107.653 138.519 107.653L132.651 106.465Z" stroke="#111827" stroke-width="1.9134"/>
<path fill-rule="evenodd" clip-rule="evenodd" d="M133.213 115.742C132.915 115.742 132.628 115.861 132.417 116.072C132.206 116.283 132.088 116.569 132.088 116.867C132.088 117.166 132.206 117.452 132.417 117.663C132.628 117.874 132.915 117.992 133.213 117.992C133.511 117.992 133.797 117.874 134.008 117.663C134.219 117.452 134.338 117.166 134.338 116.867C134.338 116.569 134.219 116.283 134.008 116.072C133.797 115.861 133.511 115.742 133.213 115.742Z" fill="#D1D5DB"/>
<path fill-rule="evenodd" clip-rule="evenodd" d="M193.635 140.53C188.046 140.53 183.51 136.471 183.51 131.458V105.052C183.51 100.039 188.046 95.9805 193.635 95.9805H244.188C249.777 95.9805 254.313 100.039 254.313 105.052V131.458C254.313 136.471 249.777 140.53 244.188 140.53H227.655L218.565 148.684L209.475 140.53H193.635Z" fill="#67C16B"/>
<path d="M183.51 131.458C183.51 136.471 188.046 140.53 193.635 140.53H209.475L218.565 148.684L227.655 140.53H244.188C249.777 140.53 254.313 136.471 254.313 131.458V105.052C254.313 100.039 249.777 95.9805 244.188 95.9805H193.635C188.046 95.9805 183.51 100.039 183.51 105.052V131.458Z" stroke="#111827" stroke-width="1.9134"/>
<path fill-rule="evenodd" clip-rule="evenodd" d="M223.494 56.2957L232.271 52.4032L231.925 51.6211L223.146 55.5145L223.494 56.2957ZM224.487 58.5358L230.839 55.7188L230.492 54.9376L224.141 57.7546L224.487 58.5358ZM225.345 60.4717L234.124 56.5783L233.777 55.7971L224.999 59.6896L225.345 60.4717ZM224.963 109.94C223.676 109.94 222.686 110.246 221.984 110.858C221.291 111.47 220.94 112.244 220.94 113.18V114.008C220.94 114.935 221.291 115.7 221.993 116.312C222.695 116.924 223.694 117.221 224.99 117.221C226.277 117.221 227.276 116.924 227.969 116.312C228.671 115.709 229.022 114.944 229.022 114.008V113.18C229.022 112.244 228.671 111.47 227.969 110.858C227.276 110.246 226.268 109.94 224.963 109.94ZM234.435 112.411L232.473 111.565L223.608 123.814L225.57 124.66L234.435 112.411ZM223.984 114.905C224.209 115.148 224.551 115.265 224.992 115.265C225.415 115.265 225.739 115.148 225.973 114.905C226.198 114.662 226.315 114.365 226.315 114.005V113.177C226.315 112.817 226.198 112.52 225.964 112.268C225.73 112.025 225.397 111.899 224.965 111.899C224.542 111.899 224.209 112.025 223.984 112.268C223.75 112.52 223.633 112.817 223.633 113.177V114.005C223.633 114.365 223.75 114.662 223.984 114.905ZM237.647 121.995C237.647 121.059 237.296 120.285 236.603 119.682C235.91 119.07 234.911 118.764 233.606 118.764C232.319 118.764 231.32 119.07 230.618 119.682C229.907 120.294 229.556 121.068 229.556 121.995V122.823C229.556 123.75 229.907 124.524 230.618 125.136C231.329 125.748 232.337 126.054 233.633 126.054C234.92 126.054 235.91 125.748 236.603 125.136C237.296 124.533 237.647 123.759 237.647 122.823V121.995ZM232.262 122.819C232.262 123.161 232.397 123.458 232.658 123.71C232.928 123.962 233.252 124.088 233.63 124.088C234.152 124.088 234.494 123.98 234.683 123.755C234.863 123.53 234.953 123.224 234.953 122.819V121.991C234.953 121.64 234.836 121.343 234.602 121.091C234.368 120.848 234.035 120.722 233.612 120.722C233.18 120.722 232.847 120.848 232.613 121.091C232.379 121.343 232.262 121.64 232.262 121.991V122.819ZM201.668 116.724C200.84 116.724 200.174 117.39 200.174 118.218C200.174 119.046 200.84 119.721 201.668 119.721C202.496 119.721 203.171 119.046 203.171 118.218C203.171 117.39 202.496 116.724 201.668 116.724ZM208.04 116.724C207.212 116.724 206.546 117.39 206.546 118.218C206.546 119.046 207.212 119.721 208.04 119.721C208.868 119.721 209.543 119.046 209.543 118.218C209.543 117.39 208.868 116.724 208.04 116.724ZM214.411 116.724C213.583 116.724 212.917 117.39 212.917 118.218C212.917 119.046 213.583 119.721 214.411 119.721C215.239 119.721 215.914 119.046 215.914 118.218C215.914 117.39 215.239 116.724 214.411 116.724Z" fill="white"/>
</svg>
