<svg width="360" height="270" viewBox="0 0 360 270" fill="none" xmlns="http://www.w3.org/2000/svg">
<path d="M159.237 63.9445C159.912 63.7375 160.578 63.5395 161.253 63.3415C232.758 42.0835 298.683 52.1095 309.033 86.0395C312.399 97.0825 309.474 109.304 301.536 121.544M71.5318 190.368C59.0758 184.662 50.4898 176.427 47.2768 165.879C38.3848 136.719 73.3948 99.3064 128.61 75.2224" stroke="#111827" stroke-width="1.9134"/>
<path d="M52.1299 168.409C54.3439 157.888 60.9679 146.899 71.1199 136.234C74.0989 133.093 77.4019 129.979 80.9839 126.919C91.2439 118.126 103.835 109.756 118.226 102.277C132.176 95.0141 147.809 88.6061 164.639 83.4671C187.859 76.3841 210.548 72.6041 230.987 71.8571C238.592 71.5781 245.882 71.7221 252.785 72.2801" stroke="#111827" stroke-width="1.9134"/>
<path fill-rule="evenodd" clip-rule="evenodd" d="M279.263 169.601C274.133 173.534 268.544 177.35 262.541 181.013L261.245 181.796L261.218 181.805C260.354 182.327 259.481 182.84 258.59 183.353C249.5 188.654 239.537 193.586 228.863 198.023C217.444 202.769 205.728 206.768 193.79 209.993C181.37 213.368 169.166 215.798 157.448 217.319C146.324 218.759 135.632 219.38 125.615 219.218C125.507 219.218 125.408 219.218 125.309 219.209C123.365 219.173 121.439 219.11 119.549 219.011C114.876 218.794 110.215 218.365 105.581 217.724C100.964 217.094 96.563 216.248 92.414 215.204L71.12 136.238L66.944 120.758C64.901 113.189 69.383 105.395 76.952 103.352L244.649 58.1266C252.218 56.0836 260.012 60.5656 262.055 68.1346L263.513 73.5256L287.579 162.797C284.969 165.101 282.188 167.378 279.263 169.601Z" fill="#E5E7EB"/>
<path d="M262.541 181.013C268.544 177.35 274.133 173.534 279.263 169.601C282.188 167.378 284.969 165.101 287.579 162.797L263.513 73.5256L262.055 68.1346C260.012 60.5656 252.218 56.0836 244.649 58.1266L76.952 103.352C69.383 105.395 64.901 113.189 66.944 120.758L71.12 136.238L92.414 215.204C96.563 216.248 100.964 217.094 105.581 217.724C110.215 218.365 114.876 218.794 119.549 219.011C121.439 219.11 123.365 219.173 125.309 219.209C125.408 219.218 125.507 219.218 125.615 219.218C135.632 219.38 146.324 218.759 157.448 217.319C169.166 215.798 181.37 213.368 193.79 209.993C205.728 206.768 217.444 202.769 228.863 198.023C239.537 193.586 249.5 188.654 258.59 183.353C259.481 182.84 260.354 182.327 261.218 181.805L261.245 181.796L262.541 181.013Z" stroke="#111827" stroke-width="1.9134"/>
<path fill-rule="evenodd" clip-rule="evenodd" d="M252.784 72.2868C253.081 72.8358 253.324 73.4298 253.495 74.0598L279.244 169.523C279.253 169.55 279.262 169.577 279.262 169.604C274.132 173.537 268.543 177.353 262.54 181.016L261.244 181.799L261.217 181.808C260.353 182.33 259.48 182.843 258.589 183.356L227.152 191.834L191.44 201.464L155.728 211.094L125.614 219.221C125.506 219.221 125.407 219.221 125.308 219.212C123.364 219.176 121.438 219.113 119.548 219.014C114.875 218.797 110.214 218.368 105.58 217.727C105.4 217.331 105.247 216.908 105.13 216.476L97.6064 188.567L99.1994 181.79C99.4964 180.521 98.7044 179.243 97.4354 178.946L94.8524 178.343L80.9834 126.926L79.3904 121.013C78.2384 116.765 80.7584 112.382 85.0154 111.239L118.225 102.284L134.2 97.9728L138.025 99.9258C139.825 100.844 142.03 100.124 142.948 98.3238L144.55 95.1828L230.986 71.8638L243.712 68.4348C245.437 67.9705 247.268 68.0976 248.913 68.7958C250.557 69.494 251.92 70.7231 252.784 72.2868Z" fill="white"/>
<path fill-rule="evenodd" clip-rule="evenodd" d="M271.9 70.3828C269.416 70.3828 267.4 72.3988 267.4 74.8828C267.4 77.3668 269.416 79.3828 271.9 79.3828C274.384 79.3828 276.4 77.3668 276.4 74.8828C276.4 72.3988 274.384 70.3828 271.9 70.3828Z" fill="#111827"/>
<path fill-rule="evenodd" clip-rule="evenodd" d="M111.154 188.492L146.819 178.678L143.867 167.953L108.203 177.767L111.154 188.492Z" fill="#67C16B"/>
<path d="M144.414 168.27L108.752 178.082L111.465 187.944L147.127 178.131L144.414 168.27Z" stroke="#2E7D32" stroke-width="0.8928"/>
<path fill-rule="evenodd" clip-rule="evenodd" d="M146.815 178.68L182.48 168.866L179.529 158.141L143.864 167.954L146.815 178.68Z" fill="#67C16B"/>
<path d="M180.075 158.457L144.413 168.271L147.127 178.132L182.788 168.319L180.075 158.457Z" stroke="#2E7D32" stroke-width="0.8928"/>
<path fill-rule="evenodd" clip-rule="evenodd" d="M182.476 168.871L218.141 159.057L215.19 148.332L179.525 158.146L182.476 168.871Z" fill="#67C16B"/>
<path d="M215.736 148.645L180.074 158.457L182.788 168.319L218.449 158.506L215.736 148.645Z" stroke="#2E7D32" stroke-width="0.8928"/>
<path fill-rule="evenodd" clip-rule="evenodd" d="M218.138 159.059L253.802 149.245L250.851 138.52L215.187 148.333L218.138 159.059Z" fill="#67C16B"/>
<path d="M251.397 138.832L215.735 148.645L218.449 158.506L254.11 148.693L251.397 138.832Z" stroke="#2E7D32" stroke-width="0.8928"/>
<path fill-rule="evenodd" clip-rule="evenodd" d="M114.104 199.216L149.769 189.401L146.818 178.676L111.153 188.49L114.104 199.216Z" fill="#67C16B"/>
<path d="M147.365 178.992L111.703 188.805L114.417 198.666L150.078 188.853L147.365 178.992Z" stroke="#2E7D32" stroke-width="0.8928"/>
<path fill-rule="evenodd" clip-rule="evenodd" d="M149.766 189.406L185.43 179.592L182.479 168.867L146.814 178.681L149.766 189.406Z" fill="#F9FAFB"/>
<path d="M183.03 169.18L147.368 178.993L150.08 188.847L185.741 179.035L183.03 169.18Z" stroke="#9CA3AF" stroke-width="0.9"/>
<path fill-rule="evenodd" clip-rule="evenodd" d="M185.427 179.594L221.091 169.78L218.14 159.055L182.476 168.868L185.427 179.594Z" fill="#F9FAFB"/>
<path d="M218.691 159.371L183.029 169.184L185.741 179.039L221.403 169.226L218.691 159.371Z" stroke="#9CA3AF" stroke-width="0.9"/>
<path fill-rule="evenodd" clip-rule="evenodd" d="M221.089 169.782L256.753 159.967L253.802 149.242L218.138 159.057L221.089 169.782Z" fill="#F9FAFB"/>
<path d="M254.352 149.559L218.69 159.371L221.402 169.226L257.064 159.414L254.352 149.559Z" stroke="#9CA3AF" stroke-width="0.9"/>
<path fill-rule="evenodd" clip-rule="evenodd" d="M117.055 209.938L152.72 200.124L149.768 189.398L114.104 199.213L117.055 209.938Z" fill="#67C16B"/>
<path d="M150.314 189.715L114.653 199.528L117.367 209.39L153.028 199.576L150.314 189.715Z" stroke="#2E7D32" stroke-width="0.8928"/>
<path fill-rule="evenodd" clip-rule="evenodd" d="M152.717 200.125L188.382 190.311L185.43 179.586L149.766 189.4L152.717 200.125Z" fill="#F9FAFB"/>
<path d="M185.98 179.906L150.319 189.719L153.031 199.574L188.692 189.76L185.98 179.906Z" stroke="#9CA3AF" stroke-width="0.9"/>
<path fill-rule="evenodd" clip-rule="evenodd" d="M188.378 190.316L224.042 180.503L221.09 169.777L185.426 179.591L188.378 190.316Z" fill="#F9FAFB"/>
<path d="M221.64 170.094L185.979 179.907L188.691 189.761L224.352 179.949L221.64 170.094Z" stroke="#9CA3AF" stroke-width="0.9"/>
<path fill-rule="evenodd" clip-rule="evenodd" d="M224.04 180.505L259.704 170.69L256.752 159.965L221.088 169.779L224.04 180.505Z" fill="#F9FAFB"/>
<path d="M257.301 160.281L221.641 170.094L224.352 179.949L260.013 170.136L257.301 160.281Z" stroke="#9CA3AF" stroke-width="0.9"/>
<path fill-rule="evenodd" clip-rule="evenodd" d="M117.055 209.935L152.713 200.125L155.665 210.844L125.308 219.205C123.364 219.169 121.438 219.106 119.548 219.007L117.055 209.935Z" fill="#67C16B"/>
<path d="M152.713 200.125L117.055 209.935L119.548 219.007C121.438 219.106 123.364 219.169 125.308 219.205L155.665 210.844L152.713 200.125Z" stroke="#2E7D32" stroke-width="0.8928"/>
<path fill-rule="evenodd" clip-rule="evenodd" d="M155.667 210.851L191.331 201.038L188.38 190.312L152.716 200.126L155.667 210.851Z" fill="#F9FAFB"/>
<path d="M188.929 190.625L153.269 200.438L155.98 210.293L191.641 200.479L188.929 190.625Z" stroke="#9CA3AF" stroke-width="0.9"/>
<path fill-rule="evenodd" clip-rule="evenodd" d="M191.328 201.039L226.992 191.225L224.041 180.5L188.377 190.314L191.328 201.039Z" fill="#F9FAFB"/>
<path d="M224.591 180.816L188.931 190.63L191.642 200.484L227.304 190.671L224.591 180.816Z" stroke="#9CA3AF" stroke-width="0.9"/>
<path fill-rule="evenodd" clip-rule="evenodd" d="M224.038 180.497L259.696 170.688L262.54 181.011L261.244 181.793L261.217 181.803L226.99 191.226L224.038 180.497Z" fill="#F9FAFB"/>
<path d="M259.696 170.688L224.038 180.497L226.99 191.226L261.217 181.803L261.244 181.793L262.54 181.011L259.696 170.688Z" stroke="#9CA3AF" stroke-width="0.9"/>
<path fill-rule="evenodd" clip-rule="evenodd" d="M155.666 210.844L155.729 211.087L157.448 217.315C146.324 218.755 135.632 219.376 125.615 219.214C125.507 219.214 125.408 219.214 125.309 219.205L155.666 210.844Z" fill="#67C16B"/>
<path d="M155.729 211.087L155.666 210.844L125.309 219.205C125.408 219.214 125.507 219.214 125.615 219.214C135.632 219.376 146.324 218.755 157.448 217.315L155.729 211.087Z" stroke="#2E7D32" stroke-width="0.8928"/>
<path fill-rule="evenodd" clip-rule="evenodd" d="M191.324 201.035L191.441 201.458L193.79 209.99C181.37 213.365 169.166 215.795 157.448 217.316L155.729 211.088L155.666 210.845L191.324 201.035Z" fill="#F9FAFB"/>
<path d="M191.441 201.458L191.324 201.035L155.666 210.845L155.729 211.088L157.448 217.316C169.166 215.795 181.37 213.365 193.79 209.99L191.441 201.458Z" stroke="#9CA3AF" stroke-width="0.9"/>
<path fill-rule="evenodd" clip-rule="evenodd" d="M226.99 191.227L227.152 191.83L228.862 198.022C217.443 202.768 205.728 206.767 193.789 209.992L191.44 201.46L191.323 201.037L226.99 191.227Z" fill="#F9FAFB"/>
<path d="M227.152 191.83L226.99 191.227L191.323 201.037L191.44 201.46L193.789 209.992C205.728 206.767 217.443 202.768 228.862 198.022L227.152 191.83Z" stroke="#9CA3AF" stroke-width="0.9"/>
<path fill-rule="evenodd" clip-rule="evenodd" d="M227.152 191.831L226.99 191.228L261.217 181.805C260.353 182.327 259.48 182.84 258.589 183.353C249.499 188.654 239.536 193.586 228.862 198.023L227.152 191.831Z" fill="#F9FAFB"/>
<path d="M226.99 191.228L227.152 191.831L228.862 198.023C239.536 193.586 249.499 188.654 258.589 183.353C259.48 182.84 260.353 182.327 261.217 181.805L226.99 191.228Z" stroke="#9CA3AF" stroke-width="0.9009"/>
<path d="M179.086 148.595C186.457 147.497 192.487 143.213 195.745 137.525C196.319 132.715 195.378 127.846 193.051 123.598C190.724 119.349 187.129 115.934 182.767 113.828C182.678 113.782 182.582 113.755 182.483 113.748C182.384 113.741 182.284 113.754 182.19 113.785C182.096 113.817 182.01 113.868 181.936 113.934C181.861 114 181.801 114.08 181.759 114.17C181.75 114.188 181.741 114.197 181.741 114.215C180.724 116.609 179.221 118.76 177.322 120.533C173.65 124.043 168.367 126.653 162.274 127.562C159.457 127.994 156.586 128.021 153.769 127.643C153.688 128.939 153.742 130.262 153.94 131.594C154.516 135.446 156.226 138.875 158.719 141.647C158.764 141.701 158.809 141.746 158.854 141.8C162.427 145.463 167.161 147.929 172.372 148.667C172.39 148.667 172.417 148.676 172.435 148.676C172.723 148.712 173.002 148.739 173.29 148.766C175.18 148.937 177.115 148.892 179.086 148.595Z" stroke="#111827" stroke-width="0.8928"/>
<path fill-rule="evenodd" clip-rule="evenodd" d="M195.773 138.179C197.033 128.468 192.083 119.009 183.389 114.509C183.362 114.5 183.344 114.482 183.317 114.473C182.651 114.176 181.868 114.473 181.571 115.139C180.563 117.326 179.141 119.288 177.377 120.935C173.705 124.445 168.422 127.055 162.329 127.964C161.186 128.135 160.034 128.234 158.882 128.279C158.261 131.33 158.189 134.471 158.648 137.549C158.936 139.493 159.44 141.401 160.142 143.237C155.849 139.601 153.032 134.525 152.204 128.963C152.141 128.558 152.096 128.144 152.06 127.739C151.484 127.622 150.917 127.496 150.359 127.343C149.684 127.154 149.027 126.947 148.388 126.713C147.821 126.506 147.353 126.119 147.029 125.606C146.838 125.301 146.71 124.962 146.651 124.607C146.591 124.253 146.603 123.89 146.684 123.54C146.765 123.189 146.914 122.859 147.123 122.566C147.332 122.274 147.597 122.025 147.902 121.835C149.603 120.755 151.421 119.873 153.311 119.18C157.019 107.3 169.313 100.343 181.409 103.268C190.643 105.491 197.609 113.087 199.022 122.483C199.85 127.937 198.689 133.499 195.773 138.179Z" fill="#111827"/>
<path d="M183.389 114.509C192.083 119.009 197.033 128.468 195.773 138.179C198.689 133.499 199.85 127.937 199.022 122.483C198.331 117.891 196.287 113.609 193.149 110.186C190.011 106.763 185.923 104.354 181.409 103.268C169.313 100.343 157.019 107.3 153.311 119.18C151.421 119.873 149.603 120.755 147.902 121.835C147.597 122.025 147.332 122.274 147.123 122.566C146.914 122.859 146.765 123.189 146.684 123.54C146.603 123.89 146.591 124.253 146.651 124.607C146.71 124.962 146.838 125.301 147.029 125.606C147.353 126.119 147.821 126.506 148.388 126.713C149.027 126.947 149.684 127.154 150.359 127.343C150.917 127.496 151.484 127.622 152.06 127.739C152.096 128.144 152.141 128.558 152.204 128.963C153.032 134.525 155.849 139.601 160.142 143.237C159.44 141.401 158.936 139.493 158.648 137.549C158.189 134.471 158.261 131.33 158.882 128.279C160.034 128.234 161.186 128.135 162.329 127.964C168.422 127.055 173.705 124.445 177.377 120.935C179.141 119.288 180.563 117.326 181.571 115.139C181.868 114.473 182.651 114.176 183.317 114.473C183.344 114.482 183.362 114.5 183.389 114.509Z" stroke="#111827" stroke-width="0.9"/>
<path d="M168.702 137.434L170.934 133.015M167.607 134.11L172.026 136.342M182.389 133.643L184.621 129.224M181.293 130.32L185.712 132.552M173.019 107.985C160.806 109.81 152.266 120.376 153.941 131.592C155.617 142.808 166.873 150.417 179.086 148.592C191.299 146.767 199.848 136.199 198.172 124.984C196.496 113.768 185.231 106.16 173.019 107.985Z" stroke="#111827" stroke-width="1.9134"/>
<path fill-rule="evenodd" clip-rule="evenodd" d="M243.55 82.082C241.813 82.082 240.4 83.495 240.4 85.232C240.4 86.969 241.813 88.382 243.55 88.382C245.287 88.382 246.7 86.969 246.7 85.232C246.7 83.495 245.287 82.082 243.55 82.082ZM96.8502 121.682C95.1132 121.682 93.7002 123.095 93.7002 124.832C93.7002 126.569 95.1132 127.982 96.8502 127.982C98.5872 127.982 100 126.569 100 124.832C100 123.095 98.5872 121.682 96.8502 121.682Z" fill="#9CA3AF"/>
<path fill-rule="evenodd" clip-rule="evenodd" d="M290.314 127.566L300.025 135.396L288.388 139.887L290.314 127.566Z" fill="#67C16B"/>
<path d="M300.025 135.396L290.314 127.566L288.388 139.887L300.025 135.396Z" stroke="#2E7D32" stroke-width="1.9134"/>
<path d="M278.705 76.8398C297.344 82.2938 310.304 92.0237 314.435 105.56C319.817 123.218 309.116 143.891 287.579 162.791C284.969 165.095 282.188 167.372 279.263 169.595C274.133 173.528 268.544 177.344 262.541 181.007L261.245 181.79L261.218 181.799C260.354 182.321 259.481 182.834 258.59 183.347C249.5 188.648 239.537 193.58 228.863 198.017C217.444 202.763 205.728 206.762 193.79 209.987C181.37 213.362 169.166 215.792 157.448 217.313C146.324 218.753 135.632 219.374 125.615 219.212C125.507 219.212 125.407 219.212 125.308 219.203C123.364 219.167 121.439 219.104 119.549 219.005C114.875 218.788 110.215 218.359 105.58 217.718C100.963 217.088 96.5625 216.242 92.4135 215.198C87.0855 213.866 82.1535 212.21 77.7165 210.23C68.7705 206.261 61.7595 201.023 57.2145 194.579C55.2165 191.753 53.6865 188.684 52.6875 185.399" stroke="#111827" stroke-width="1.9134"/>
<path d="M47.8164 106.785H56.4834M65.6499 87.1523V95.8193M48.3726 92.9636L55.9326 97.2116" stroke="#111827" stroke-width="1.8"/>
<path fill-rule="evenodd" clip-rule="evenodd" d="M54.0996 184.684C51.6156 184.684 49.5996 186.7 49.5996 189.184C49.5996 191.668 51.6156 193.684 54.0996 193.684C56.5836 193.684 58.5996 191.668 58.5996 189.184C58.5996 186.7 56.5836 184.684 54.0996 184.684Z" fill="white"/>
<path d="M54.0996 184.684C51.6156 184.684 49.5996 186.7 49.5996 189.184C49.5996 191.668 51.6156 193.684 54.0996 193.684C56.5836 193.684 58.5996 191.668 58.5996 189.184C58.5996 186.7 56.5836 184.684 54.0996 184.684Z" stroke="#111827" stroke-width="1.9134"/>
<path fill-rule="evenodd" clip-rule="evenodd" d="M130.393 67.2958L136.081 64.0828C136.432 63.8848 136.666 63.5158 136.702 63.1108L137.287 56.6128C137.377 55.5868 138.601 55.1098 139.357 55.8028L144.163 60.2218C144.469 60.5008 144.883 60.6088 145.279 60.5188L151.642 59.0608C152.641 58.8268 153.469 59.8438 153.046 60.7798L150.337 66.7198C150.166 67.0888 150.184 67.5208 150.4 67.8718L153.748 73.4698C154.279 74.3518 153.568 75.4588 152.551 75.3418L146.062 74.5948C145.657 74.5498 145.252 74.7028 144.982 75.0088L140.698 79.9318C140.023 80.7058 138.754 80.3728 138.547 79.3648L137.251 72.9658C137.17 72.5608 136.9 72.2278 136.522 72.0748L130.519 69.5098C129.574 69.1048 129.502 67.7998 130.393 67.2958Z" fill="#E5E7EB"/>
<path fill-rule="evenodd" clip-rule="evenodd" d="M152.255 125.773C151.835 125.774 151.419 125.856 151.032 126.017C150.644 126.178 150.292 126.413 149.995 126.71C149.698 127.007 149.463 127.359 149.303 127.747C149.142 128.135 149.059 128.551 149.06 128.97C149.06 129.39 149.142 129.805 149.303 130.193C149.464 130.581 149.699 130.933 149.996 131.23C150.293 131.527 150.646 131.762 151.033 131.922C151.421 132.083 151.837 132.165 152.256 132.165C153.104 132.165 153.917 131.828 154.516 131.229C155.115 130.629 155.452 129.816 155.451 128.968C155.451 128.121 155.114 127.308 154.515 126.709C153.915 126.11 153.102 125.773 152.255 125.773Z" fill="#111827"/>
<path d="M113.546 153.138L122.26 126.357L134.709 122.669L141.299 144.917L146.67 143.326L148.115 148.203L142.744 149.794L144.601 156.063L132.443 159.665L130.586 153.395L117.77 157.167L114.984 157.992L113.546 153.138ZM129.142 148.518L124.768 133.754L119.501 151.374L129.142 148.518Z" fill="#111827"/>
<path d="M209.361 111.825L202.282 113.922L201.124 110.012C202.016 109.503 202.854 108.921 203.638 108.265C204.432 107.59 205.146 106.865 205.78 106.09C206.41 105.301 206.953 104.464 207.408 103.58C207.878 102.691 208.227 101.781 208.457 100.849L218.457 97.8867L228.342 131.258L216.184 134.859L209.361 111.825Z" fill="#111827"/>
</svg>
