<svg width="360" height="270" viewBox="0 0 360 270" fill="none" xmlns="http://www.w3.org/2000/svg">
<path d="M180.93 107.086H132.852L129.99 119.416C129.99 119.416 173.829 133.015 181.83 131.575C189.831 130.135 192.225 127.57 193.35 123.412C194.466 119.245 193.35 113.647 193.35 113.647" stroke="#111827" stroke-width="1.9134"/>
<path fill-rule="evenodd" clip-rule="evenodd" d="M100.87 195.901H266.092C268.576 195.901 270.592 193.885 270.592 191.401V162.43C270.592 159.946 268.576 157.93 266.092 157.93H100.87C98.3861 157.93 96.3701 159.946 96.3701 162.43V191.401C96.3701 193.885 98.3861 195.901 100.87 195.901Z" fill="white"/>
<path d="M271.547 158.887H97.3271V194.945H271.547V158.887Z" stroke="#111827" stroke-width="1.9134"/>
<path fill-rule="evenodd" clip-rule="evenodd" d="M101.22 195.901H216.969V157.93H101.22C98.7357 157.93 96.7197 159.946 96.7197 162.43V191.401C96.7197 193.885 98.7357 195.901 101.22 195.901Z" fill="#67C16B"/>
<path d="M217.923 158.887H97.6758V194.945H217.923V158.887Z" stroke="#2E7D32" stroke-width="1.9134"/>
<path fill-rule="evenodd" clip-rule="evenodd" d="M101.21 218.742C98.726 218.742 96.71 220.758 96.71 223.242C96.71 225.726 98.726 227.742 101.21 227.742C103.694 227.742 105.71 225.726 105.71 223.242C105.71 220.758 103.694 218.742 101.21 218.742Z" fill="#111827"/>
<path d="M249.307 83.0391L248.992 89.6991M263.741 97.4544L257.081 97.1394M259.907 83.9697L256.37 89.6217" stroke="#111827" stroke-width="0.9"/>
<path fill-rule="evenodd" clip-rule="evenodd" d="M63.668 126.225C63.695 126.63 63.92 126.999 64.262 127.215L69.869 130.563C70.751 131.094 70.643 132.399 69.689 132.777L63.614 135.189C63.236 135.333 62.957 135.666 62.867 136.062L61.409 142.425C61.175 143.424 59.897 143.73 59.249 142.938L55.082 137.907C54.9541 137.753 54.7906 137.632 54.6055 137.555C54.4205 137.479 54.2195 137.448 54.02 137.466L47.513 138.042C46.487 138.132 45.812 137.016 46.361 136.143L49.853 130.635C50.078 130.284 50.105 129.861 49.952 129.483L47.387 123.471C46.982 122.535 47.837 121.536 48.836 121.788L55.163 123.408C55.559 123.516 55.973 123.417 56.279 123.147L61.202 118.854C61.976 118.179 63.191 118.683 63.254 119.709L63.668 126.225Z" fill="#D1D5DB"/>
<path fill-rule="evenodd" clip-rule="evenodd" d="M230.455 70.4445L241.892 61.8594L230.913 47.2344L219.476 55.8186L230.455 70.4445Z" fill="#9CA3AF"/>
<path fill-rule="evenodd" clip-rule="evenodd" d="M228.145 70.1681L241.065 64.0364L233.223 47.5142L220.303 53.6459L228.145 70.1681ZM196.938 50.2853L203.474 55.1921L209.747 46.8356L203.212 41.9297L196.938 50.2853Z" fill="#E5E7EB"/>
<path fill-rule="evenodd" clip-rule="evenodd" d="M236.283 223.242L245.994 231.072L234.357 235.563L236.283 223.242Z" fill="#67C16B"/>
<path d="M245.994 231.072L236.283 223.242L234.357 235.563L245.994 231.072Z" stroke="#2E7D32" stroke-width="1.9134"/>
<path d="M269.81 110.76C291.122 119.661 306.539 131.649 312.938 145.248M76.649 120.322C101.75 106.327 139.163 97.4531 180.941 97.4531C204.332 97.4531 226.355 100.234 245.606 105.139M105.157 213.895C101.476 212.77 97.9205 211.564 94.5005 210.277C91.3595 209.098 88.3355 207.856 85.4375 206.56C75.0335 201.898 66.1775 196.48 59.2565 190.486C48.6095 181.261 42.5615 170.677 42.5615 159.427C42.5615 153.487 44.2445 147.727 47.4035 142.264M316.216 159.424C316.216 195.235 254.962 224.26 179.389 224.26M94.496 221.181C80.123 215.79 68.099 209.058 59.252 201.39C52.799 195.801 48.038 189.699 45.284 183.264M221.248 232.082C208.054 234.08 193.987 235.169 179.389 235.169C153.199 235.169 128.719 231.677 107.92 225.629" stroke="#111827" stroke-width="1.9134"/>
<path d="M316.215 170.332C316.215 192.616 292.491 212.272 256.365 223.945" stroke="#111827" stroke-width="1.9134"/>
<path fill-rule="evenodd" clip-rule="evenodd" d="M312.938 141.805C310.454 141.805 308.438 143.821 308.438 146.305C308.438 148.789 310.454 150.805 312.938 150.805C315.421 150.805 317.438 148.789 317.438 146.305C317.438 143.821 315.421 141.805 312.938 141.805Z" fill="white"/>
<path d="M312.937 141.805C310.453 141.805 308.438 143.821 308.438 146.305C308.438 148.789 310.453 150.805 312.937 150.805C315.421 150.805 317.437 148.789 317.437 146.305C317.437 143.821 315.421 141.805 312.937 141.805Z" stroke="#111827" stroke-width="1.9134"/>
<mask id="mask0_4329_29053" style="mask-type:alpha" maskUnits="userSpaceOnUse" x="96" y="157" width="121" height="39">
<path d="M101.221 195.905H216.97V157.934H101.221C98.7367 157.934 96.7207 159.95 96.7207 162.434V191.405C96.7207 193.889 98.7367 195.905 101.221 195.905Z" fill="white"/>
</mask>
<g mask="url(#mask0_4329_29053)">
<path fill-rule="evenodd" clip-rule="evenodd" d="M206.366 167.564H216.968V157.934H206.366V167.564Z" fill="#67C16B"/>
<path d="M217.924 158.891H207.323V166.608H217.924V158.891Z" stroke="#2E7D32" stroke-width="1.9134"/>
<path fill-rule="evenodd" clip-rule="evenodd" d="M195.918 177.056H206.52V167.426H195.918V177.056Z" fill="#67C16B"/>
<path d="M207.475 168.383H196.874V176.099H207.475V168.383Z" stroke="#2E7D32" stroke-width="1.9134"/>
<path fill-rule="evenodd" clip-rule="evenodd" d="M185.468 186.552H196.07V176.922H185.468V186.552Z" fill="#67C16B"/>
<path d="M197.024 177.879H186.424V185.596H197.024V177.879Z" stroke="#2E7D32" stroke-width="1.9134"/>
<path fill-rule="evenodd" clip-rule="evenodd" d="M206.366 186.552H216.968V176.922H206.366V186.552Z" fill="#67C16B"/>
<path d="M217.924 177.879H207.323V185.596H217.924V177.879Z" stroke="#2E7D32" stroke-width="1.9134"/>
<path fill-rule="evenodd" clip-rule="evenodd" d="M175.019 196.044H185.621V186.414H175.019V196.044Z" fill="#67C16B"/>
<path d="M186.576 187.371H175.975V195.088H186.576V187.371Z" stroke="#2E7D32" stroke-width="1.9134"/>
<path fill-rule="evenodd" clip-rule="evenodd" d="M195.843 167.564H206.445V157.934H195.843V167.564Z" fill="#2E7D32"/>
<path d="M207.399 158.891H196.798V166.608H207.399V158.891Z" stroke="#2E7D32" stroke-width="1.9134"/>
<path fill-rule="evenodd" clip-rule="evenodd" d="M185.393 177.056H195.995V167.426H185.393V177.056Z" fill="#2E7D32"/>
<path d="M196.949 168.383H186.349V176.099H196.949V168.383Z" stroke="#2E7D32" stroke-width="1.9134"/>
<path fill-rule="evenodd" clip-rule="evenodd" d="M174.943 186.552H185.545V176.922H174.943V186.552Z" fill="#2E7D32"/>
<path d="M186.501 177.879H175.899V185.596H186.501V177.879Z" stroke="#2E7D32" stroke-width="1.9134"/>
<path fill-rule="evenodd" clip-rule="evenodd" d="M164.494 196.044H175.096V186.414H164.494V196.044Z" fill="#2E7D32"/>
<path d="M176.051 187.371H165.45V195.088H176.051V187.371Z" stroke="#2E7D32" stroke-width="1.9134"/>
<path fill-rule="evenodd" clip-rule="evenodd" d="M174.867 167.564H185.469V157.934H174.867V167.564Z" fill="#2E7D32"/>
<path d="M186.424 158.891H175.823V166.608H186.424V158.891Z" stroke="#2E7D32" stroke-width="1.9134"/>
<path fill-rule="evenodd" clip-rule="evenodd" d="M164.418 177.056H175.02V167.426H164.418V177.056Z" fill="#2E7D32"/>
<path d="M175.975 168.383H165.374V176.099H175.975V168.383Z" stroke="#2E7D32" stroke-width="1.9134"/>
<path fill-rule="evenodd" clip-rule="evenodd" d="M153.968 186.552H164.57V176.922H153.968V186.552Z" fill="#2E7D32"/>
<path d="M165.526 177.879H154.926V185.596H165.526V177.879Z" stroke="#2E7D32" stroke-width="1.9134"/>
<path fill-rule="evenodd" clip-rule="evenodd" d="M143.519 196.044H154.121V186.414H143.519V196.044Z" fill="#2E7D32"/>
<path d="M155.077 187.371H144.476V195.088H155.077V187.371Z" stroke="#2E7D32" stroke-width="1.9134"/>
<path fill-rule="evenodd" clip-rule="evenodd" d="M153.893 167.564H164.495V157.934H153.893V167.564Z" fill="#2E7D32"/>
<path d="M165.45 158.891H154.85V166.608H165.45V158.891Z" stroke="#2E7D32" stroke-width="1.9134"/>
<path fill-rule="evenodd" clip-rule="evenodd" d="M143.443 177.056H154.045V167.426H143.443V177.056Z" fill="#2E7D32"/>
<path d="M155.001 168.383H144.4V176.099H155.001V168.383Z" stroke="#2E7D32" stroke-width="1.9134"/>
<path fill-rule="evenodd" clip-rule="evenodd" d="M132.994 186.552H143.596V176.922H132.994V186.552Z" fill="#2E7D32"/>
<path d="M144.551 177.879H133.95V185.596H144.551V177.879Z" stroke="#2E7D32" stroke-width="1.9134"/>
<path fill-rule="evenodd" clip-rule="evenodd" d="M122.544 196.044H133.146V186.414H122.544V196.044Z" fill="#2E7D32"/>
<path d="M134.102 187.371H123.502V195.088H134.102V187.371Z" stroke="#2E7D32" stroke-width="1.9134"/>
<path fill-rule="evenodd" clip-rule="evenodd" d="M132.919 167.564H143.521V157.934H132.919V167.564Z" fill="#2E7D32"/>
<path d="M144.475 158.891H133.874V166.608H144.475V158.891Z" stroke="#2E7D32" stroke-width="1.9134"/>
<path fill-rule="evenodd" clip-rule="evenodd" d="M122.469 177.056H133.071V167.426H122.469V177.056Z" fill="#2E7D32"/>
<path d="M134.026 168.383H123.426V176.099H134.026V168.383Z" stroke="#2E7D32" stroke-width="1.9134"/>
<path fill-rule="evenodd" clip-rule="evenodd" d="M112.02 186.552H122.622V176.922H112.02V186.552Z" fill="#2E7D32"/>
<path d="M123.577 177.879H112.976V185.596H123.577V177.879Z" stroke="#2E7D32" stroke-width="1.9134"/>
<path fill-rule="evenodd" clip-rule="evenodd" d="M101.569 196.044H112.171V186.414H101.569V196.044Z" fill="#2E7D32"/>
<path d="M113.127 187.371H102.526V195.088H113.127V187.371Z" stroke="#2E7D32" stroke-width="1.9134"/>
<path fill-rule="evenodd" clip-rule="evenodd" d="M111.943 167.564H122.545V157.934H111.943V167.564Z" fill="#2E7D32"/>
<path d="M123.501 158.891H112.9V166.608H123.501V158.891Z" stroke="#2E7D32" stroke-width="1.9134"/>
<path fill-rule="evenodd" clip-rule="evenodd" d="M101.494 177.056H112.096V167.426H101.494V177.056Z" fill="#2E7D32"/>
<path d="M113.052 168.383H102.451V176.099H113.052V168.383Z" stroke="#2E7D32" stroke-width="1.9134"/>
<path fill-rule="evenodd" clip-rule="evenodd" d="M91.0439 186.552H101.646V176.922H91.0439V186.552Z" fill="#2E7D32"/>
<path d="M102.602 177.879H92.002V185.596H102.602V177.879Z" stroke="#2E7D32" stroke-width="1.9134"/>
<path fill-rule="evenodd" clip-rule="evenodd" d="M184.673 196.044H195.275V186.414H184.673V196.044Z" fill="#2E7D32"/>
<path d="M196.231 187.371H185.63V195.088H196.231V187.371Z" stroke="#2E7D32" stroke-width="1.9134"/>
<path fill-rule="evenodd" clip-rule="evenodd" d="M90.9688 167.564H101.571V157.934H90.9688V167.564Z" fill="#2E7D32"/>
<path d="M102.527 158.891H91.9268V166.608H102.527V158.891Z" stroke="#2E7D32" stroke-width="1.9134"/>
<path fill-rule="evenodd" clip-rule="evenodd" d="M206.366 195.907H216.968V186.277H206.366V195.907Z" fill="#2E7D32"/>
<path d="M217.924 187.234H207.323V194.952H217.924V187.234Z" stroke="#2E7D32" stroke-width="1.9134"/>
<path fill-rule="evenodd" clip-rule="evenodd" d="M206.366 177.193H216.968V167.562H206.366V177.193Z" fill="#2E7D32"/>
<path d="M217.924 168.523H207.323V176.241H217.924V168.523Z" stroke="#2E7D32" stroke-width="1.9134"/>
<path fill-rule="evenodd" clip-rule="evenodd" d="M195.918 186.552H206.52V176.922H195.918V186.552Z" fill="#2E7D32"/>
<path d="M207.475 177.879H196.874V185.596H207.475V177.879Z" stroke="#2E7D32" stroke-width="1.9134"/>
</g>
<path fill-rule="evenodd" clip-rule="evenodd" d="M188.073 123.482L141.183 152.957L94.3018 123.482L141.183 114.059L188.073 123.482Z" fill="#111827"/>
<path fill-rule="evenodd" clip-rule="evenodd" d="M165.893 172.355L154.679 165.686L158.72 156.668L167.576 161.717L165.893 172.355Z" fill="white"/>
<path fill-rule="evenodd" clip-rule="evenodd" d="M168.546 187.342L167.052 181.798L163.668 172.852L159.303 169.972L163.38 166.444L165.423 168.046L164.847 159.64C169.689 159.091 172.785 162.349 172.785 162.349L174.486 162.466L173.892 169.648L172.299 169.387C172.299 169.387 173.55 174.328 173.334 180.43C173.199 184.192 171.453 186.559 170.202 187.783C169.662 188.314 168.744 188.071 168.546 187.342Z" fill="#111827"/>
<path fill-rule="evenodd" clip-rule="evenodd" d="M128.403 162.723C124.101 161.229 120.096 161.661 116.118 160.311C109.395 158.034 103.617 156.063 100.683 155.037C88.7579 150.888 82.3229 140.97 84.0059 132.267C85.6889 123.564 97.6229 120.009 108.945 126.084C120.258 132.159 161.406 155.037 161.406 155.037L154.449 173.244C149.958 171.732 149.499 169.662 145.899 168.348C144.563 167.857 143.652 167.867 142.621 167.879C141.367 167.893 139.937 167.91 137.358 167.025C132.651 165.423 131.121 163.668 128.403 162.723Z" fill="#111827"/>
<path d="M116.118 160.311C120.096 161.661 124.101 161.229 128.403 162.723C131.121 163.668 132.651 165.423 137.358 167.025C142.056 168.636 142.938 167.259 145.899 168.348C149.499 169.662 149.958 171.732 154.449 173.244L161.406 155.037C161.406 155.037 120.258 132.159 108.945 126.084C97.6229 120.009 85.6889 123.564 84.0059 132.267C82.3229 140.97 88.7579 150.888 100.683 155.037C103.617 156.063 109.395 158.034 116.118 160.311Z" stroke="#111827" stroke-width="0.9"/>
<path fill-rule="evenodd" clip-rule="evenodd" d="M155.222 151.602C156.554 152.34 157.715 152.988 158.66 153.51L151.082 169.224L155.222 151.602Z" fill="#111827"/>
<path d="M115.638 129.727L158.658 157.186" stroke="#111827" stroke-width="0.6867"/>
<path fill-rule="evenodd" clip-rule="evenodd" d="M154.447 173.246C149.956 171.734 149.497 169.664 145.897 168.35C144.561 167.858 143.649 167.869 142.618 167.881C141.365 167.894 139.935 167.911 137.356 167.027C132.649 165.425 131.119 163.661 128.401 162.725C124.108 161.231 120.103 161.663 116.116 160.313C113.092 159.287 110.257 158.324 107.791 157.478L134.827 140.297C148.282 147.74 161.404 155.039 161.404 155.039L160.414 157.631L164.878 160.178L164.842 159.638C169.693 159.089 172.789 162.347 172.789 162.347L174.481 162.464L173.977 168.647L172.303 169.385H172.294L163.78 173.156L163.663 172.85L159.298 169.97L160.351 169.061L156.841 166.973L154.447 173.246Z" fill="#111827"/>
<path fill-rule="evenodd" clip-rule="evenodd" d="M120.967 155.037C120.967 155.037 162.115 132.159 173.428 126.084C184.75 120.009 196.684 123.564 198.367 132.267C200.05 140.97 193.615 150.888 181.69 155.037C178.756 156.063 172.978 158.034 166.255 160.311C162.277 161.661 158.272 161.229 153.97 162.723C151.261 163.668 149.722 165.423 145.024 167.025C142.44 167.91 141.008 167.893 139.752 167.879C138.722 167.867 137.809 167.857 136.474 168.348C132.883 169.662 132.415 171.732 127.924 173.244L120.967 155.037Z" fill="#111827"/>
<path d="M173.428 126.084C162.115 132.159 120.967 155.037 120.967 155.037L127.924 173.244C132.415 171.732 132.883 169.662 136.474 168.348C139.435 167.259 140.317 168.636 145.024 167.025C149.722 165.423 151.261 163.668 153.97 162.723C158.272 161.229 162.277 161.661 166.255 160.311C172.978 158.034 178.756 156.063 181.69 155.037C193.615 150.888 200.05 140.97 198.367 132.267C196.684 123.564 184.75 120.009 173.428 126.084Z" stroke="#111827" stroke-width="0.9"/>
<path fill-rule="evenodd" clip-rule="evenodd" d="M131.294 169.224L123.716 153.51C124.661 152.988 125.822 152.34 127.154 151.602L131.294 169.224Z" fill="#111827"/>
<path d="M123.716 157.186L166.736 129.727" stroke="#111827" stroke-width="0.6867"/>
<path fill-rule="evenodd" clip-rule="evenodd" d="M127.693 165.686L116.479 172.355L114.796 161.717L123.652 156.668L127.693 165.686Z" fill="white"/>
<path fill-rule="evenodd" clip-rule="evenodd" d="M109.585 162.349C109.585 162.349 112.681 159.091 117.532 159.64L116.947 168.046L118.999 166.444L123.076 169.972L118.711 172.852L115.318 181.798L113.824 187.342C113.626 188.071 112.717 188.314 112.168 187.783C110.926 186.559 109.18 184.192 109.045 180.43C108.82 174.328 110.08 169.387 110.08 169.387L108.487 169.648L107.893 162.466L109.585 162.349Z" fill="#111827"/>
<path fill-rule="evenodd" clip-rule="evenodd" d="M177.295 131.475C166.486 133.032 148.693 135.201 136.579 135.201C122.251 135.201 110.857 133.491 98.3556 131.835C73.3536 128.496 92.5056 94.6648 96.8256 89.8678C97.2126 89.4268 97.6176 88.9947 98.0406 88.5717C103.972 82.6497 112.135 78.9688 121.135 78.9688H157.837C166.324 78.9688 174.073 82.2447 179.905 87.6087C185.638 92.8557 208.588 126.984 177.295 131.475Z" fill="white"/>
<path d="M136.579 135.201C148.693 135.201 166.486 133.032 177.295 131.475C208.588 126.984 185.638 92.8557 179.905 87.6087C174.073 82.2447 166.324 78.9688 157.837 78.9688H121.135C112.135 78.9688 103.972 82.6497 98.0406 88.5717C97.6176 88.9947 97.2126 89.4268 96.8256 89.8678C92.5056 94.6648 73.3536 128.496 98.3556 131.835C110.857 133.491 122.251 135.201 136.579 135.201Z" stroke="#111827" stroke-width="1.9134"/>
<path d="M144.988 67.4883H133.282V86.8347H144.988V67.4883Z" stroke="#111827" stroke-width="1.9134"/>
<path d="M136.88 88.0467C134.953 90.3232 132.856 92.4503 130.607 94.4097C130.445 94.5447 130.238 94.6977 130.031 94.6257C129.932 94.5897 129.851 94.4997 129.788 94.4097C126.539 90.4317 124.874 85.1847 125.234 80.0547M139.26 88.1799C141.187 90.4565 143.284 92.5836 145.533 94.5429C145.695 94.6779 145.902 94.8309 146.109 94.7589C146.217 94.7229 146.289 94.6329 146.361 94.5519C149.61 90.5649 151.266 85.3179 150.906 80.1879" stroke="#111827" stroke-width="1.8"/>
<path fill-rule="evenodd" clip-rule="evenodd" d="M163.65 58.8672C161.301 58.8672 159.402 60.7662 159.402 63.1152C159.402 65.4642 161.301 67.3632 163.65 67.3632C165.999 67.3632 167.898 65.4642 167.898 63.1152C167.898 60.7662 165.999 58.8672 163.65 58.8672Z" fill="white"/>
<path d="M163.65 58.8672C161.301 58.8672 159.402 60.7662 159.402 63.1152C159.402 65.4642 161.301 67.3632 163.65 67.3632C165.999 67.3632 167.898 65.4642 167.898 63.1152C167.898 60.7662 165.999 58.8672 163.65 58.8672Z" stroke="#111827" stroke-width="1.9134"/>
<path fill-rule="evenodd" clip-rule="evenodd" d="M112.134 58.8672C109.785 58.8672 107.886 60.7662 107.886 63.1152C107.886 65.4642 109.785 67.3632 112.134 67.3632C114.483 67.3632 116.382 65.4642 116.382 63.1152C116.382 60.7662 114.483 58.8672 112.134 58.8672Z" fill="white"/>
<path d="M112.134 58.8672C109.785 58.8672 107.886 60.7662 107.886 63.1152C107.886 65.4642 109.785 67.3632 112.134 67.3632C114.483 67.3632 116.382 65.4642 116.382 63.1152C116.382 60.7662 114.483 58.8672 112.134 58.8672Z" stroke="#111827" stroke-width="1.9134"/>
<path fill-rule="evenodd" clip-rule="evenodd" d="M146.861 39.7154C146.87 39.6974 146.879 39.6884 146.888 39.6614C147.158 39.2744 147.698 39.1754 148.094 39.4454C152.699 42.5853 156.209 47.0846 158.134 52.3154C160.058 57.5462 160.302 63.2474 158.831 68.6234C154.16 74.5454 146.564 78.3974 137.996 78.3974C135.431 78.3979 132.878 78.0467 130.409 77.3534C130.386 77.3421 130.362 77.336 130.337 77.3354C124.611 75.6279 119.613 72.0703 116.126 67.2194C116.081 67.1564 116.036 67.0844 115.991 67.0214C113.624 63.4484 112.265 59.2544 112.265 54.7724C112.265 53.2244 112.427 51.7034 112.742 50.2364C115.883 51.1454 119.15 51.6044 122.426 51.5954C129.527 51.5954 135.98 49.5254 140.759 46.1504C143.225 44.4584 145.295 42.2624 146.861 39.7154Z" fill="white"/>
<path d="M146.888 39.6617C146.879 39.6887 146.87 39.6977 146.861 39.7157C145.299 42.2642 143.221 44.4565 140.759 46.1507C135.98 49.5257 129.527 51.5957 122.426 51.5957C119.15 51.6047 115.883 51.1457 112.742 50.2367C112.427 51.7037 112.265 53.2247 112.265 54.7727C112.265 59.2547 113.624 63.4487 115.991 67.0217C116.036 67.0847 116.081 67.1567 116.126 67.2197C119.564 71.9987 124.532 75.6077 130.337 77.3357C130.364 77.3357 130.391 77.3447 130.409 77.3537C132.878 78.047 135.431 78.3983 137.996 78.3977C146.564 78.3977 154.16 74.5457 158.831 68.6237C160.302 63.2478 160.058 57.5465 158.134 52.3157C156.209 47.0849 152.699 42.5856 148.094 39.4457C147.905 39.3162 147.672 39.2662 147.446 39.3066C147.221 39.3471 147.02 39.4746 146.888 39.6617Z" stroke="#111827" stroke-width="1.9134"/>
<path fill-rule="evenodd" clip-rule="evenodd" d="M118.45 51.8403C117.226 55.2064 116.605 58.7617 116.614 62.3433C116.614 64.6113 116.857 66.8703 117.343 69.0753C113.077 64.2073 110.729 57.953 110.737 51.4803C110.737 51.0033 110.755 50.5353 110.773 50.0583C109.393 49.5677 108.054 48.9688 106.768 48.2673C106.174 47.9343 105.697 47.4123 105.418 46.7823C104.725 45.1893 105.454 43.3353 107.047 42.6423C109.171 41.6973 111.385 40.9953 113.662 40.5363C119.899 27.6483 135.073 21.8163 148.339 27.2073C153.293 29.2099 157.537 32.6453 160.527 37.0736C163.517 41.502 165.118 46.7219 165.124 52.0653C165.132 58.4123 162.873 64.5534 158.752 69.3813C160.26 64.092 160.102 58.4668 158.3 53.2705C156.498 48.0741 153.14 43.5588 148.681 40.3383C148.663 40.3203 148.636 40.3023 148.609 40.2843C147.898 39.8343 146.962 40.0323 146.512 40.7433C144.987 43.0539 143.032 45.0492 140.752 46.6203C135.973 49.9953 129.52 52.0653 122.428 52.0653C121.096 52.0653 119.773 51.9843 118.45 51.8403Z" fill="#111827"/>
<path d="M116.614 62.3433C116.605 58.7613 117.226 55.2063 118.45 51.8403C119.773 51.9843 121.096 52.0653 122.428 52.0653C129.52 52.0653 135.973 49.9953 140.752 46.6203C143.032 45.0492 144.988 43.0539 146.512 40.7433C146.962 40.0323 147.898 39.8343 148.609 40.2843C148.636 40.3023 148.663 40.3203 148.681 40.3383C153.14 43.5588 156.498 48.0741 158.3 53.2705C160.102 58.4668 160.26 64.092 158.752 69.3813C162.873 64.5534 165.133 58.4123 165.124 52.0653C165.118 46.7219 163.517 41.502 160.527 37.0736C157.537 32.6453 153.293 29.2099 148.339 27.2073C135.073 21.8163 119.899 27.6483 113.662 40.5363C111.385 40.9953 109.171 41.6973 107.047 42.6423C106.283 42.9754 105.681 43.5986 105.376 44.375C105.07 45.1514 105.086 46.0173 105.418 46.7823C105.697 47.4123 106.174 47.9343 106.768 48.2673C108.054 48.9688 109.393 49.5677 110.773 50.0583C110.755 50.5353 110.737 51.0033 110.737 51.4803C110.728 57.9513 113.077 64.2063 117.343 69.0753C116.857 66.8703 116.614 64.6113 116.614 62.3433Z" stroke="#111827" stroke-width="0.9"/>
<path d="M137.996 31.1484C123.785 31.1484 112.265 41.7234 112.265 54.7734C112.265 67.8144 123.785 78.3984 137.996 78.3984C152.198 78.3984 163.718 67.8144 163.718 54.7734C163.718 41.7234 152.198 31.1484 137.996 31.1484Z" stroke="#111827" stroke-width="1.9134"/>
<path d="M137.311 61.1211L136.411 62.7051C136.141 63.1641 135.871 63.6501 135.907 64.1811C135.943 64.7031 136.438 65.2341 136.942 65.0991" stroke="#111827" stroke-width="1.8"/>
<path d="M130.139 59.8036C130.139 61.1716 129.032 62.2786 127.664 62.2786C126.296 62.2786 125.189 61.1716 125.189 59.8036M149.322 59.5039C149.322 60.8719 148.215 61.9789 146.847 61.9789C145.479 61.9789 144.372 60.8719 144.372 59.5039" stroke="#111827" stroke-width="2.5515"/>
<path d="M136.611 70.951C136.611 70.951 138.501 70.447 139.905 70.924" stroke="#111827" stroke-width="1.9134"/>
<path fill-rule="evenodd" clip-rule="evenodd" d="M92.0898 129.961C92.0898 129.961 96.8958 131.896 103.241 132.49C112.466 133.345 137.873 132.589 167.618 125.641C171.992 124.615 163.289 111.817 160.526 111.124C160.526 111.124 136.397 111.169 124.697 111.07C109.838 110.953 109.01 114.058 109.01 114.058L92.0898 129.961Z" fill="white"/>
<path d="M92.0898 129.961C92.0898 129.961 96.8958 131.896 103.241 132.49C112.466 133.345 137.873 132.589 167.618 125.641C171.992 124.615 163.289 111.817 160.526 111.124C160.526 111.124 136.397 111.169 124.697 111.07C109.838 110.953 109.01 114.058 109.01 114.058L92.0898 129.961Z" stroke="#111827" stroke-width="1.9134"/>
<path fill-rule="evenodd" clip-rule="evenodd" d="M170.827 101.037C171.637 101.865 171.484 103.557 170.476 104.817L166.516 109.74C165.616 110.865 164.329 111.261 163.492 110.73C163.393 110.676 163.294 110.595 163.213 110.514C162.394 109.686 162.556 107.994 163.564 106.734L167.515 101.811C168.532 100.551 170.008 100.209 170.827 101.037Z" fill="white"/>
<path d="M170.476 104.817C171.484 103.557 171.637 101.865 170.827 101.037C170.008 100.209 168.532 100.551 167.515 101.811L163.564 106.734C162.556 107.994 162.394 109.686 163.213 110.514C163.294 110.595 163.393 110.676 163.492 110.73C164.329 111.261 165.616 110.865 166.516 109.74L170.476 104.817Z" stroke="#111827" stroke-width="1.9134"/>
<path fill-rule="evenodd" clip-rule="evenodd" d="M173.463 102.225C174.282 103.044 174.147 104.7 173.166 105.924L169.296 110.703C168.414 111.792 167.145 112.17 166.299 111.648C166.2 111.585 166.11 111.513 166.029 111.423C165.21 110.604 165.345 108.939 166.326 107.724L170.196 102.936C171.186 101.721 172.653 101.397 173.463 102.225Z" fill="white"/>
<path d="M173.166 105.924C174.147 104.7 174.282 103.044 173.463 102.225C172.653 101.397 171.186 101.721 170.196 102.936L166.326 107.724C165.345 108.939 165.21 110.604 166.029 111.423C166.11 111.513 166.2 111.585 166.299 111.648C167.145 112.17 168.414 111.792 169.296 110.703L173.166 105.924Z" stroke="#111827" stroke-width="1.9134"/>
<path fill-rule="evenodd" clip-rule="evenodd" d="M177.528 104.349C178.365 105.15 178.32 106.653 177.438 107.706L173.964 111.855C173.172 112.8 171.975 113.07 171.129 112.548C171.03 112.485 170.94 112.413 170.85 112.323C170.013 111.531 170.049 110.028 170.94 108.975L174.405 104.826C175.296 103.773 176.691 103.557 177.528 104.349Z" fill="white"/>
<path d="M177.438 107.706C178.32 106.653 178.365 105.15 177.528 104.349C176.691 103.557 175.296 103.773 174.405 104.826L170.94 108.975C170.049 110.028 170.013 111.531 170.85 112.323C170.94 112.413 171.03 112.485 171.129 112.548C171.975 113.07 173.172 112.8 173.964 111.855L177.438 107.706Z" stroke="#111827" stroke-width="1.9134"/>
<path fill-rule="evenodd" clip-rule="evenodd" d="M132.023 105.699L129.161 118.02C129.161 118.02 173 131.628 181.001 130.188C189.002 128.748 191.405 126.183 192.521 122.025C193.646 117.858 193.16 114.312 193.16 114.312L177.455 110.784L132.023 105.699Z" fill="white"/>
<path d="M178.075 110.407L132.652 106.465L129.79 118.795C129.79 118.795 173.629 132.394 181.63 130.954C189.631 129.514 192.034 126.949 193.15 122.791C194.275 118.633 193.15 113.026 193.15 113.026" stroke="#111827" stroke-width="1.9134"/>
<path fill-rule="evenodd" clip-rule="evenodd" d="M117.012 113.61C110.406 114.852 111.099 112.035 111.099 112.035C111.099 112.035 112.782 106.905 120.108 104.943C127.434 102.981 132.321 106.437 132.321 106.437V107.058L129.459 118.767C129.459 118.767 123.609 112.368 117.012 113.61Z" fill="white"/>
<path d="M111.099 112.035C111.099 112.035 110.406 114.852 117.012 113.61C123.609 112.368 129.459 118.767 129.459 118.767L132.321 107.058V106.437C132.321 106.437 127.434 102.981 120.108 104.943C112.782 106.905 111.099 112.035 111.099 112.035Z" stroke="#111827" stroke-width="1.9134"/>
<path fill-rule="evenodd" clip-rule="evenodd" d="M109.569 44.6367C107.4 44.6367 105.645 46.3917 105.645 48.5607C105.645 50.7297 107.4 52.4847 109.569 52.4847C111.738 52.4847 113.493 50.7297 113.493 48.5607C113.493 46.3917 111.738 44.6367 109.569 44.6367Z" fill="#111827"/>
<path fill-rule="evenodd" clip-rule="evenodd" d="M129.79 118.795L132.652 106.465L138.52 107.653C138.52 107.653 136.441 119.641 135.55 119.947C134.659 120.262 129.79 118.795 129.79 118.795Z" fill="#D1D5DB"/>
<path d="M132.652 106.465L129.79 118.795C129.79 118.795 134.659 120.262 135.55 119.947C136.441 119.641 138.52 107.653 138.52 107.653L132.652 106.465Z" stroke="#111827" stroke-width="1.9134"/>
<path fill-rule="evenodd" clip-rule="evenodd" d="M133.213 115.742C132.915 115.742 132.628 115.861 132.417 116.072C132.206 116.283 132.088 116.569 132.088 116.867C132.088 117.166 132.206 117.452 132.417 117.663C132.628 117.874 132.915 117.992 133.213 117.992C133.511 117.992 133.797 117.874 134.008 117.663C134.219 117.452 134.338 117.166 134.338 116.867C134.338 116.569 134.219 116.283 134.008 116.072C133.797 115.861 133.511 115.742 133.213 115.742Z" fill="#D1D5DB"/>
<path fill-rule="evenodd" clip-rule="evenodd" d="M193.635 140.53C188.046 140.53 183.51 136.471 183.51 131.458V105.052C183.51 100.039 188.046 95.9805 193.635 95.9805H244.188C249.777 95.9805 254.313 100.039 254.313 105.052V131.458C254.313 136.471 249.777 140.53 244.188 140.53H227.655L218.565 148.684L209.475 140.53H193.635Z" fill="#67C16B"/>
<path d="M183.51 131.458C183.51 136.471 188.046 140.53 193.635 140.53H209.475L218.565 148.684L227.655 140.53H244.188C249.777 140.53 254.313 136.471 254.313 131.458V105.052C254.313 100.039 249.777 95.9805 244.188 95.9805H193.635C188.046 95.9805 183.51 100.039 183.51 105.052V131.458Z" stroke="#111827" stroke-width="1.9134"/>
<path fill-rule="evenodd" clip-rule="evenodd" d="M223.494 56.2957L232.271 52.4032L231.925 51.6211L223.146 55.5145L223.494 56.2957ZM224.487 58.5358L230.839 55.7188L230.492 54.9376L224.141 57.7546L224.487 58.5358ZM225.345 60.4717L234.124 56.5783L233.777 55.7971L224.999 59.6896L225.345 60.4717ZM224.963 109.94C223.676 109.94 222.686 110.246 221.984 110.858C221.291 111.47 220.94 112.244 220.94 113.18V114.008C220.94 114.935 221.291 115.7 221.993 116.312C222.695 116.924 223.694 117.221 224.99 117.221C226.277 117.221 227.276 116.924 227.969 116.312C228.671 115.709 229.022 114.944 229.022 114.008V113.18C229.022 112.244 228.671 111.47 227.969 110.858C227.276 110.246 226.268 109.94 224.963 109.94ZM234.435 112.411L232.473 111.565L223.608 123.814L225.57 124.66L234.435 112.411ZM223.984 114.905C224.209 115.148 224.551 115.265 224.992 115.265C225.415 115.265 225.739 115.148 225.973 114.905C226.198 114.662 226.315 114.365 226.315 114.005V113.177C226.315 112.817 226.198 112.52 225.964 112.268C225.73 112.025 225.397 111.899 224.965 111.899C224.542 111.899 224.209 112.025 223.984 112.268C223.75 112.52 223.633 112.817 223.633 113.177V114.005C223.633 114.365 223.75 114.662 223.984 114.905ZM237.647 121.995C237.647 121.059 237.296 120.285 236.603 119.682C235.91 119.07 234.911 118.764 233.606 118.764C232.319 118.764 231.32 119.07 230.618 119.682C229.907 120.294 229.556 121.068 229.556 121.995V122.823C229.556 123.75 229.907 124.524 230.618 125.136C231.329 125.748 232.337 126.054 233.633 126.054C234.92 126.054 235.91 125.748 236.603 125.136C237.296 124.533 237.647 123.759 237.647 122.823V121.995ZM232.262 122.819C232.262 123.161 232.397 123.458 232.658 123.71C232.928 123.962 233.252 124.088 233.63 124.088C234.152 124.088 234.494 123.98 234.683 123.755C234.863 123.53 234.953 123.224 234.953 122.819V121.991C234.953 121.64 234.836 121.343 234.602 121.091C234.368 120.848 234.035 120.722 233.612 120.722C233.18 120.722 232.847 120.848 232.613 121.091C232.379 121.343 232.262 121.64 232.262 121.991V122.819ZM201.668 116.724C200.84 116.724 200.174 117.39 200.174 118.218C200.174 119.046 200.84 119.721 201.668 119.721C202.496 119.721 203.171 119.046 203.171 118.218C203.171 117.39 202.496 116.724 201.668 116.724ZM208.04 116.724C207.212 116.724 206.546 117.39 206.546 118.218C206.546 119.046 207.212 119.721 208.04 119.721C208.868 119.721 209.543 119.046 209.543 118.218C209.543 117.39 208.868 116.724 208.04 116.724ZM214.411 116.724C213.583 116.724 212.917 117.39 212.917 118.218C212.917 119.046 213.583 119.721 214.411 119.721C215.239 119.721 215.914 119.046 215.914 118.218C215.914 117.39 215.239 116.724 214.411 116.724Z" fill="white"/>
</svg>
