<svg width="220" height="160" viewBox="0 0 220 160" fill="none" xmlns="http://www.w3.org/2000/svg">
<path fill-rule="evenodd" clip-rule="evenodd" d="M217.385 0H99.5336L42.461 57.0726C26.2564 73.277 26.2564 99.7935 42.461 115.998C58.6654 132.203 85.182 132.203 101.387 115.998L217.385 0Z" fill="#E5E7EB"/>
<path fill-rule="evenodd" clip-rule="evenodd" d="M-29.9998 50V300H220L-29.9998 50Z" fill="#E5E7EB"/>
<path fill-rule="evenodd" clip-rule="evenodd" d="M70.2871 299.998H-18.6015V194.796C-18.6015 170.351 1.39832 150.352 25.8426 150.352H25.8429C50.2872 150.352 70.287 170.351 70.287 194.796L70.2871 299.998Z" fill="#265529"/>
<path fill-rule="evenodd" clip-rule="evenodd" d="M-30 120V0H90L64.1667 25.8333H-4.16689V94.1667L-30 120Z" fill="#42A547"/>
<path fill-rule="evenodd" clip-rule="evenodd" d="M86.2394 184.502C77.7907 184.502 70.9417 177.653 70.9417 169.204C70.9417 160.755 77.7906 153.906 86.2394 153.906C94.688 153.906 101.537 160.755 101.537 169.204C101.537 177.653 94.688 184.502 86.2394 184.502ZM86.2394 195.99C71.4456 195.99 59.4533 183.998 59.4533 169.204C59.4533 154.41 71.4457 142.418 86.2394 142.418C101.033 142.418 113.025 154.41 113.025 169.204C113.025 183.998 101.033 195.99 86.2394 195.99Z" fill="white"/>
<path fill-rule="evenodd" clip-rule="evenodd" d="M47.3821 105.967L47.3819 105.967C42.7967 101.382 42.7967 93.8786 47.3819 89.2928L64.8899 71.7851C69.4754 67.1997 76.9786 67.1997 81.5639 71.7851H81.5643C86.1497 76.3705 86.1497 83.8737 81.5643 88.4595L64.0562 105.967C59.4707 110.552 51.9677 110.552 47.3821 105.967ZM90.11 63.2393H90.1096C85.5242 58.6539 85.5242 51.1509 90.1096 46.5653L136.675 0H170.023L106.784 63.2394C102.199 67.8249 94.6952 67.8249 90.11 63.2393Z" fill="#22C55E"/>
<path fill-rule="evenodd" clip-rule="evenodd" d="M103.486 79.4844C99.6313 79.4844 96.5065 82.6092 96.5065 86.4636C96.5065 90.318 99.6313 93.4428 103.486 93.4428C107.34 93.4428 110.465 90.318 110.465 86.4636C110.465 82.6092 107.34 79.4844 103.486 79.4844Z" fill="#22C55E"/>
<path fill-rule="evenodd" clip-rule="evenodd" d="M27.5473 138.295C2.0808 138.295 -18.5637 117.65 -18.5637 92.1836H73.6582C73.6581 117.65 53.0136 138.295 27.5473 138.295Z" fill="#265529"/>
<path fill-rule="evenodd" clip-rule="evenodd" d="M4.4915 92.185C-8.2417 92.185 -18.564 81.8627 -18.564 69.1296C-18.564 56.3962 -8.2417 46.0742 4.4915 46.0742C17.2246 46.0742 27.5469 56.3962 27.5469 69.1296C27.5469 81.8627 17.2246 92.185 4.4915 92.185Z" fill="#265529"/>
<path fill-rule="evenodd" clip-rule="evenodd" d="M121.442 93.5466H127.238H133.033L127.238 84.1562L121.442 93.5466Z" fill="#030712"/>
<path fill-rule="evenodd" clip-rule="evenodd" d="M121.442 106.238H127.238H133.033L127.238 96.8477L121.442 106.238Z" fill="#030712"/>
<path fill-rule="evenodd" clip-rule="evenodd" d="M121.442 118.929H127.238H133.033L127.238 109.539L121.442 118.929Z" fill="#030712"/>
<path fill-rule="evenodd" clip-rule="evenodd" d="M121.442 131.621H127.238H133.033L127.238 122.23L121.442 131.621Z" fill="#030712"/>
<path fill-rule="evenodd" clip-rule="evenodd" d="M121.442 144.312H127.238H133.033L127.238 134.922L121.442 144.312Z" fill="#030712"/>
<path fill-rule="evenodd" clip-rule="evenodd" d="M75.0887 12.9727C74.0086 12.9727 73.1329 13.8483 73.1329 14.9285C73.1329 16.0088 74.0086 16.8845 75.0887 16.8845C76.1691 16.8845 77.0447 16.0088 77.0447 14.9285C77.0446 13.8483 76.169 12.9727 75.0887 12.9727ZM40.5176 12.9727C39.4375 12.9727 38.5618 13.8483 38.5618 14.9285C38.5618 16.0088 39.4375 16.8845 40.5176 16.8845C41.598 16.8845 42.4736 16.0088 42.4736 14.9285C42.4735 13.8483 41.598 12.9727 40.5176 12.9727ZM63.565 12.9727C62.4847 12.9727 61.609 13.8483 61.609 14.9285C61.609 16.0088 62.4847 16.8845 63.565 16.8845C64.6452 16.8845 65.5208 16.0088 65.5208 14.9285C65.5208 13.8483 64.6452 12.9727 63.565 12.9727ZM52.0414 12.9727C50.9611 12.9727 50.0854 13.8483 50.0854 14.9285C50.0854 16.0088 50.9611 16.8845 52.0414 16.8845C53.1216 16.8845 53.9972 16.0088 53.9972 14.9285C53.9972 13.8483 53.1216 12.9727 52.0414 12.9727ZM86.6123 12.9727C85.5322 12.9727 84.6565 13.8483 84.6565 14.9285C84.6565 16.0088 85.5322 16.8845 86.6123 16.8845C87.6927 16.8845 88.5684 16.0088 88.5684 14.9285C88.5684 13.8483 87.6927 12.9727 86.6123 12.9727Z" fill="#030712"/>
<path d="M180.521 41.6694L171.874 29.5859H169.374L178.021 41.6694H180.521ZM171.98 41.6694L163.333 29.5859H160.832L169.48 41.6694H171.98ZM163.438 41.6694L154.791 29.5859H152.291L160.938 41.6694H163.438ZM154.897 41.6694L146.25 29.5859H143.75L152.397 41.6694H154.897ZM146.356 41.6694L137.708 29.5859H135.208L143.855 41.6694H146.356ZM137.814 41.6694L129.167 29.5859H126.667L135.314 41.6694H137.814ZM189.062 41.6694L180.415 29.5859H177.915L186.562 41.6694H189.062Z" fill="#030712"/>
<path d="M47.0604 146.999C47.0604 147.689 47.6202 148.249 48.3104 148.249C49.0009 148.249 49.5605 147.689 49.5605 146.999C49.5605 140.92 47.0961 135.416 43.1126 131.432C39.1286 127.448 33.6249 124.984 27.546 124.984C21.4671 124.984 15.9634 127.449 11.9794 131.432C7.99564 135.416 5.53154 140.92 5.53154 146.999C5.53154 147.689 6.09124 148.249 6.78154 148.249C7.47184 148.249 8.03174 147.689 8.03174 146.999C8.03174 141.61 10.2161 136.731 13.7473 133.2C17.2785 129.669 22.1573 127.485 27.546 127.485C32.9347 127.485 37.8137 129.669 41.3449 133.2C44.8763 136.731 47.0604 141.61 47.0604 146.999Z" fill="#030712"/>
</svg>
