<svg width="220" height="160" viewBox="0 0 220 160" fill="none" xmlns="http://www.w3.org/2000/svg">
<path fill-rule="evenodd" clip-rule="evenodd" d="M250 -90V160H0L250 -90Z" fill="#E5E7EB"/>
<path fill-rule="evenodd" clip-rule="evenodd" d="M105.268 159.998H194.156V115.553C194.156 91.1092 174.156 71.1094 149.712 71.1094H149.712C125.267 71.1094 105.268 91.1092 105.268 115.553L105.268 159.998Z" fill="#22C55E"/>
<path fill-rule="evenodd" clip-rule="evenodd" d="M149.713 159.998H238.602V54.7958C238.602 30.3514 218.602 10.3516 194.157 10.3516H194.157C169.713 10.3516 149.713 30.3514 149.713 54.7958L149.713 159.998Z" fill="#265529"/>
<path fill-rule="evenodd" clip-rule="evenodd" d="M149.713 159.998H194.157V115.553C194.157 91.1092 174.157 71.1094 149.713 71.1094V159.998Z" fill="#42A547"/>
<path fill-rule="evenodd" clip-rule="evenodd" d="M133.761 44.5017C142.209 44.5017 149.058 37.6528 149.058 29.204C149.058 20.7554 142.209 13.9063 133.761 13.9063C125.312 13.9063 118.463 20.7553 118.463 29.204C118.463 37.6528 125.312 44.5017 133.761 44.5017ZM133.761 55.9902C148.554 55.9902 160.547 43.9976 160.547 29.2041C160.547 14.4104 148.554 2.41797 133.761 2.41797C118.967 2.41797 106.975 14.4104 106.975 29.2041C106.975 43.9976 118.967 55.9902 133.761 55.9902Z" fill="white"/>
<path fill-rule="evenodd" clip-rule="evenodd" d="M98.5577 4.31218H92.7623H86.9668L92.7623 -5.07812L98.5577 4.31218Z" fill="#030712"/>
<path fill-rule="evenodd" clip-rule="evenodd" d="M19.4297 130.837V45.0039H105.263L86.7853 63.4818H37.9077V112.359L19.4297 130.837Z" fill="#22C55E"/>
<path fill-rule="evenodd" clip-rule="evenodd" d="M121.383 67.5364V67.5362C118.142 64.2952 112.838 64.2952 109.597 67.5362L97.2232 79.9106C93.9823 83.1516 93.9823 88.4547 97.2232 91.6958C100.464 94.9367 105.767 94.9367 109.008 91.6958L121.383 79.3215C124.624 76.0805 124.624 70.7773 121.383 67.5364ZM91.1832 97.7358V97.7356C87.9423 94.4946 82.6392 94.4946 79.3981 97.7356L17.1348 159.999H40.7052L91.1832 109.521C94.4242 106.28 94.4242 100.977 91.1832 97.7358Z" fill="#42A547"/>
<path fill-rule="evenodd" clip-rule="evenodd" d="M69.5389 123.926C70.6113 123.926 71.4804 124.795 71.4804 125.867C71.4804 126.94 70.6113 127.809 69.5389 127.809C68.4667 127.809 67.5974 126.94 67.5974 125.867C67.5974 124.795 68.4667 123.926 69.5389 123.926ZM82.4018 123.926C83.4743 123.926 84.3434 124.795 84.3434 125.867C84.3434 126.94 83.4743 127.809 82.4018 127.809C81.3296 127.809 80.4603 126.94 80.4603 125.867C80.4603 124.795 81.3296 123.926 82.4018 123.926ZM95.2648 123.926C96.3372 123.926 97.2065 124.795 97.2065 125.867C97.2065 126.94 96.3372 127.809 95.2648 127.809C94.1926 127.809 93.3233 126.94 93.3233 125.867C93.3233 124.795 94.1926 123.926 95.2648 123.926ZM108.128 123.926C109.2 123.926 110.069 124.795 110.069 125.867C110.069 126.94 109.2 127.809 108.128 127.809C107.055 127.809 106.186 126.94 106.186 125.867C106.186 124.795 107.055 123.926 108.128 123.926ZM120.991 123.926C122.063 123.926 122.932 124.795 122.932 125.867C122.932 126.94 122.063 127.809 120.991 127.809C119.918 127.809 119.049 126.94 119.049 125.867C119.049 124.795 119.918 123.926 120.991 123.926ZM69.5389 133.755C70.6113 133.755 71.4804 134.624 71.4804 135.697C71.4804 136.769 70.6113 137.638 69.5389 137.638C68.4667 137.638 67.5974 136.769 67.5974 135.697C67.5974 134.624 68.4667 133.755 69.5389 133.755ZM82.4018 133.755C83.4743 133.755 84.3434 134.624 84.3434 135.697C84.3434 136.769 83.4743 137.638 82.4018 137.638C81.3296 137.638 80.4603 136.769 80.4603 135.697C80.4603 134.624 81.3296 133.755 82.4018 133.755ZM95.2648 133.755C96.3372 133.755 97.2065 134.624 97.2065 135.697C97.2065 136.769 96.3372 137.638 95.2648 137.638C94.1926 137.638 93.3233 136.769 93.3233 135.697C93.3233 134.624 94.1926 133.755 95.2648 133.755ZM108.128 133.755C109.2 133.755 110.069 134.624 110.069 135.697C110.069 136.769 109.2 137.638 108.128 137.638C107.055 137.638 106.186 136.769 106.186 135.697C106.186 134.624 107.055 133.755 108.128 133.755ZM120.991 133.755C122.063 133.755 122.932 134.624 122.932 135.697C122.932 136.769 122.063 137.638 120.991 137.638C119.918 137.638 119.049 136.769 119.049 135.697C119.049 134.624 119.918 133.755 120.991 133.755ZM56.6761 133.755C57.7483 133.755 58.6176 134.624 58.6176 135.697C58.6176 136.769 57.7483 137.638 56.6761 137.638C55.6037 137.638 54.7344 136.769 54.7344 135.697C54.7344 134.624 55.6037 133.755 56.6761 133.755ZM69.5389 143.584C70.6113 143.584 71.4804 144.453 71.4804 145.526C71.4804 146.598 70.6113 147.467 69.5389 147.467C68.4667 147.467 67.5974 146.598 67.5974 145.526C67.5974 144.453 68.4667 143.584 69.5389 143.584ZM82.4018 143.584C83.4743 143.584 84.3434 144.453 84.3434 145.526C84.3434 146.598 83.4743 147.467 82.4018 147.467C81.3296 147.467 80.4603 146.598 80.4603 145.526C80.4603 144.453 81.3296 143.584 82.4018 143.584ZM95.2648 143.584C96.3372 143.584 97.2065 144.453 97.2065 145.526C97.2065 146.598 96.3372 147.467 95.2648 147.467C94.1926 147.467 93.3233 146.598 93.3233 145.526C93.3233 144.453 94.1926 143.584 95.2648 143.584ZM108.128 143.584C109.2 143.584 110.069 144.453 110.069 145.526C110.069 146.598 109.2 147.467 108.128 147.467C107.055 147.467 106.186 146.598 106.186 145.526C106.186 144.453 107.055 143.584 108.128 143.584ZM120.991 143.584C122.063 143.584 122.932 144.453 122.932 145.526C122.932 146.598 122.063 147.467 120.991 147.467C119.918 147.467 119.049 146.598 119.049 145.526C119.049 144.453 119.918 143.584 120.991 143.584ZM56.6761 143.584C57.7483 143.584 58.6176 144.453 58.6176 145.526C58.6176 146.598 57.7483 147.467 56.6761 147.467C55.6037 147.467 54.7344 146.598 54.7344 145.526C54.7344 144.453 55.6037 143.584 56.6761 143.584ZM56.6761 123.926C57.7483 123.926 58.6176 124.795 58.6176 125.867C58.6176 126.94 57.7483 127.809 56.6761 127.809C55.6037 127.809 54.7344 126.94 54.7344 125.867C54.7344 124.795 55.6037 123.926 56.6761 123.926Z" fill="#030712"/>
<path d="M172.94 6.99888C172.94 7.68918 172.38 8.24888 171.69 8.24888C170.999 8.24888 170.439 7.68918 170.439 6.99888C170.439 0.919777 172.904 -4.58402 176.887 -8.56772C180.871 -12.5515 186.375 -15.0156 192.454 -15.0156C198.533 -15.0156 204.037 -12.5514 208.021 -8.56753C212.004 -4.58403 214.468 0.919977 214.468 6.99888C214.468 7.68918 213.909 8.24888 213.218 8.24888C212.528 8.24888 211.968 7.68918 211.968 6.99888C211.968 1.61008 209.784 -3.26883 206.253 -6.79993C202.722 -10.3312 197.843 -12.5154 192.454 -12.5154C187.065 -12.5154 182.186 -10.3312 178.655 -6.80012C175.124 -3.26882 172.94 1.60988 172.94 6.99888Z" fill="#030712"/>
</svg>
