<svg width="320" height="240" viewBox="0 0 320 240" fill="none" xmlns="http://www.w3.org/2000/svg">
<path d="M189.941 130.426C192.165 133.906 194.661 137.226 197.389 140.33C197.589 140.554 197.845 140.802 198.141 140.738C198.285 140.706 198.413 140.602 198.525 140.498C203.725 135.618 206.981 128.714 207.437 121.594" stroke="#030712" stroke-width="1.6"/>
<path fill-rule="evenodd" clip-rule="evenodd" d="M230.054 109.418C226.302 109.418 223.254 112.466 223.254 116.218C223.254 119.97 226.302 123.018 230.054 123.018C233.806 123.018 236.854 119.97 236.854 116.218C236.854 112.466 233.806 109.418 230.054 109.418Z" fill="white"/>
<path d="M230.054 109.418C226.302 109.418 223.254 112.466 223.254 116.218C223.254 119.97 226.302 123.018 230.054 123.018C233.806 123.018 236.854 119.97 236.854 116.218C236.854 112.466 233.806 109.418 230.054 109.418Z" stroke="#030712" stroke-width="1.7008"/>
<path fill-rule="evenodd" clip-rule="evenodd" d="M178.747 124.727L180.336 126.514C180.999 127.26 181.802 127.869 182.7 128.305C183.598 128.74 184.573 128.995 185.57 129.054C187.583 129.171 189.559 128.484 191.066 127.144L195.591 123.121C197.099 121.782 198.012 119.899 198.131 117.887C198.19 116.89 198.051 115.892 197.723 114.949C197.396 114.006 196.885 113.137 196.222 112.392L194.633 110.604C193.294 109.097 191.411 108.184 189.399 108.064C187.386 107.947 185.41 108.633 183.903 109.973L179.377 113.997C177.87 115.336 176.957 117.219 176.837 119.231C176.72 121.243 177.407 123.22 178.747 124.727Z" fill="white"/>
<path d="M88.6349 115.95C104.827 106.342 124.515 98.0462 146.339 92.1982C153.291 90.3342 160.171 88.7982 166.931 87.5742M51.6445 155.007C56.3965 145.079 64.8605 134.879 76.2365 125.183M200.13 195.838C191.946 199.006 185.178 201.118 176.17 203.534C148.642 210.91 122.106 213.206 100.074 211.054C98.0261 210.854 96.0261 210.622 94.0661 210.342C82.9781 208.798 73.2101 206.038 65.2581 202.174C60.9781 200.094 57.2261 197.694 54.0741 194.99M279.657 122.302C279.769 124.574 279.609 126.87 279.201 129.198C278.369 133.926 276.481 138.75 273.657 143.574C270.145 149.55 265.193 155.518 258.993 161.31C247.433 172.11 232.441 181.886 213.585 190.286M201.194 119.278L189.507 106.131L174.893 119.124L186.58 132.27L201.194 119.278Z" stroke="#030712" stroke-width="1.7008"/>
<path d="M38.4883 156.185C42.4883 127.833 84.8083 95.9614 141.696 80.7134C206.584 63.3294 265.856 74.1534 274.096 104.905C277.896 119.089 270.168 135.049 254.352 149.825C235.912 167.057 206.472 182.689 171.528 192.049C144 199.425 117.464 201.729 95.4243 199.569C93.3843 199.369 91.3843 199.137 89.4243 198.865C78.3283 197.313 68.5683 194.553 60.6163 190.689C56.1283 188.505 52.2163 185.977 48.9683 183.105" stroke="#030712" stroke-width="1.7008"/>
<path d="M105.021 188.03C96.797 187.678 89.637 186.558 83.877 184.718C75.725 182.102 70.397 178.03 68.933 172.582C67.453 167.054 70.117 160.774 76.021 154.358M200.505 89.9646C231.609 87.8846 255.193 94.6126 258.961 108.685C261.401 117.797 255.113 128.397 242.769 138.477" stroke="#030712" stroke-width="1.7008"/>
<path fill-rule="evenodd" clip-rule="evenodd" d="M108.499 67.6957L122.791 63.7949C126.658 62.7389 128.944 58.7485 127.889 54.8829C127.381 53.0246 126.156 51.4439 124.484 50.4883C122.811 49.5327 120.827 49.2804 118.968 49.7869L104.675 53.6885C102.817 54.1959 101.236 55.4207 100.281 57.0935C99.3253 58.7662 99.0733 60.75 99.5803 62.6085C100.635 66.4757 104.632 68.7509 108.499 67.6957Z" fill="#030712"/>
<path fill-rule="evenodd" clip-rule="evenodd" d="M113.067 184.637L179.416 166.527C182.646 165.646 185.394 163.518 187.056 160.611C187.879 159.173 188.41 157.586 188.619 155.943C188.827 154.299 188.71 152.631 188.273 151.032L164.002 62.1092C163.566 60.5107 162.819 59.0138 161.805 57.7043C160.79 56.3947 159.526 55.2981 158.087 54.4772C155.179 52.8176 151.731 52.3805 148.501 53.262L82.1521 71.3724C75.4297 73.2068 71.4689 80.1428 73.3041 86.8652L97.5745 175.788C99.4097 182.51 106.346 186.472 113.067 184.637Z" fill="#E5E7EB"/>
<path d="M161.717 50.536L71.0195 75.2912L101.488 186.915L192.184 162.159L161.717 50.536Z" stroke="#030712" stroke-width="1.7008"/>
<path fill-rule="evenodd" clip-rule="evenodd" d="M109.689 177.398L178.661 158.572C180.089 158.18 181.304 157.239 182.038 155.953C182.772 154.667 182.967 153.143 182.578 151.714L158.381 63.0611C157.989 61.6333 157.047 60.4191 155.762 59.6849C154.476 58.9507 152.952 58.7566 151.523 59.1451L82.5502 77.9707C81.1222 78.362 79.9077 79.3038 79.1734 80.5894C78.4391 81.8751 78.2449 83.3996 78.6334 84.8283L102.831 173.481C103.222 174.909 104.164 176.123 105.45 176.858C106.735 177.592 108.26 177.786 109.689 177.398Z" fill="#E5E7EB"/>
<path fill-rule="evenodd" clip-rule="evenodd" d="M173.591 124.762C176.951 141.434 167.287 158.09 151.063 163.386C153.591 161.474 156.703 158.01 155.047 153.282C154.369 151.351 153.097 149.171 151.836 147.012C148.204 140.79 144.665 134.727 155.687 135.202C169.527 135.802 173.159 126.09 173.591 124.762Z" fill="#E5E7EB"/>
<path fill-rule="evenodd" clip-rule="evenodd" d="M171.808 123.734C175.168 140.406 165.504 157.062 149.28 162.366C151.808 160.446 154.92 156.982 153.264 152.254C152.585 150.326 151.315 148.15 150.055 145.994C146.42 139.768 142.876 133.699 153.904 134.174C167.744 134.774 171.376 125.062 171.808 123.734Z" fill="#E5E7EB"/>
<path fill-rule="evenodd" clip-rule="evenodd" d="M149.446 163.858L107.998 175.178C105.886 175.754 103.718 174.506 103.142 172.402L78.7661 83.0901C78.1901 80.9861 79.4301 78.8101 81.5341 78.2341L151.662 59.0981C153.766 58.5221 155.942 59.7621 156.51 61.8661L173.07 122.514C173.27 123.258 173.438 124.002 173.59 124.746C173.512 124.989 173.614 125.524 173.754 126.253C174.387 129.557 175.783 136.844 164.63 138.914C154.751 140.746 155.317 143.033 156.369 147.285C156.746 148.806 157.185 150.58 157.23 152.674C157.334 157.346 153.59 161.458 151.062 163.378C150.526 163.554 149.99 163.714 149.446 163.858Z" fill="white"/>
<path fill-rule="evenodd" clip-rule="evenodd" d="M98.9666 77.6963L137.424 67.2003C137.99 67.0467 138.519 66.7832 138.982 66.4248C139.446 66.0665 139.834 65.6203 140.125 65.1118C140.416 64.6034 140.604 64.0426 140.678 63.4615C140.752 62.8804 140.711 62.2904 140.557 61.7251L139.083 56.3235C138.769 55.1816 138.018 54.2093 136.992 53.6179C135.962 53.0349 134.743 52.882 133.601 53.1923L95.1434 63.6883C94.0017 64.0016 93.0297 64.7528 92.4387 65.7787C91.8556 66.8092 91.7024 68.028 92.0123 69.1707L93.4874 74.5731C93.642 75.1381 93.9064 75.667 94.2654 76.1297C94.6244 76.5925 95.0711 76.9799 95.58 77.27C96.0888 77.56 96.6498 77.7469 97.2309 77.8201C97.812 77.8933 98.4018 77.8512 98.9666 77.6963Z" fill="#030712"/>
<path fill-rule="evenodd" clip-rule="evenodd" d="M179.317 140.511L174.277 137.319L171.645 135.639C171.192 135.274 170.673 135.001 170.115 134.837C169.557 134.672 168.973 134.62 168.395 134.681C167.817 134.743 167.257 134.918 166.746 135.196C166.236 135.474 165.785 135.851 165.421 136.303C163.885 138.207 164.181 140.999 166.085 142.527L175.933 150.471C176.623 151.026 177.463 151.362 178.346 151.434C179.229 151.507 180.113 151.314 180.885 150.879L179.317 140.511Z" fill="white"/>
<path d="M179.317 140.511L174.277 137.319L171.645 135.639C171.192 135.274 170.673 135.001 170.115 134.837C169.557 134.672 168.973 134.62 168.395 134.681C167.817 134.743 167.257 134.918 166.746 135.196C166.236 135.474 165.785 135.851 165.421 136.303C163.885 138.207 164.181 140.999 166.085 142.527L175.933 150.471C176.623 151.026 177.463 151.362 178.346 151.434C179.229 151.507 180.113 151.314 180.885 150.879L179.317 140.511Z" stroke="#030712" stroke-width="1.7008"/>
<path fill-rule="evenodd" clip-rule="evenodd" d="M174.423 112.86C168.831 106.07 165.656 97.613 165.399 88.8204C165.391 88.7004 165.391 88.5884 165.391 88.4684C165.447 82.1644 167.239 75.9244 170.927 70.4524C172.199 68.5644 173.647 66.8524 175.239 65.3164C178.327 69.0204 181.935 72.2604 185.943 74.9404C194.607 80.7804 204.175 83.5644 212.791 83.3804C217.191 83.3404 221.527 82.3724 225.527 80.5484C225.551 80.5324 225.575 80.5244 225.607 80.5084C226.255 80.2524 226.999 80.5724 227.255 81.2284C233.487 96.8684 229.095 114.716 216.351 125.676C205.783 129.052 193.351 127.508 182.887 120.452C180.164 118.615 177.67 116.461 175.455 114.036C175.127 113.676 174.807 113.308 174.495 112.94C174.471 112.916 174.447 112.884 174.423 112.86Z" fill="white"/>
<path d="M165.399 88.8204C165.656 97.613 168.831 106.07 174.423 112.86C174.447 112.884 174.471 112.916 174.495 112.94C174.807 113.308 175.127 113.676 175.455 114.036C177.615 116.404 180.095 118.564 182.887 120.452C193.351 127.508 205.783 129.052 216.351 125.676C229.095 114.716 233.487 96.8684 227.255 81.2284C227.131 80.9144 226.889 80.6622 226.58 80.5272C226.271 80.3922 225.921 80.3854 225.607 80.5084C225.575 80.5244 225.551 80.5324 225.527 80.5484C221.527 82.3724 217.191 83.3404 212.791 83.3804C204.175 83.5644 194.607 80.7804 185.943 74.9404C181.935 72.2604 178.327 69.0204 175.239 65.3164C173.647 66.8524 172.199 68.5644 170.927 70.4524C167.239 75.9244 165.447 82.1644 165.391 88.4684C165.391 88.5884 165.391 88.7004 165.399 88.8204Z" stroke="#030712" stroke-width="1.7008"/>
<path fill-rule="evenodd" clip-rule="evenodd" d="M212.404 83.9534C203.788 84.1373 194.22 81.3533 185.556 75.5133C183.939 74.417 182.382 73.2339 180.892 71.9693C176.626 75.0712 172.941 78.9004 170.004 83.2813C168.138 86.0418 166.579 88.998 165.356 92.0973C164.155 82.6451 166.435 73.0788 171.772 65.1854C172.156 64.6013 172.572 64.0413 172.988 63.4813C172.404 62.6813 171.844 61.8653 171.324 61.0493C170.692 60.0413 170.108 59.0333 169.572 58.0093C169.182 57.2396 169.015 56.3763 169.089 55.5166C169.164 54.657 169.477 53.8352 169.994 53.144C170.51 52.4529 171.209 51.9197 172.013 51.6047C172.816 51.2897 173.691 51.2054 174.54 51.3613C177.9 51.9613 181.188 52.9213 184.34 54.2413C202.556 43.6333 225.876 49.0013 237.636 66.4974C246.62 79.8333 246.636 97.2893 237.66 110.641C232.448 118.396 224.637 124.033 215.636 126.537C228.324 115.849 232.964 98.3693 227.252 82.8013L227.204 82.6813C226.968 82.1367 226.525 81.708 225.973 81.489C225.422 81.2701 224.805 81.2788 224.26 81.5133C220.5 83.0813 216.476 83.9053 212.404 83.9534Z" fill="#030712"/>
<path d="M185.556 75.5125C194.22 81.3533 203.788 84.1373 212.404 83.9533C216.476 83.9053 220.5 83.0813 224.26 81.5133C225.396 81.0253 226.708 81.5453 227.204 82.6813L227.252 82.8013C232.964 98.3693 228.324 115.849 215.636 126.537C224.637 124.033 232.448 118.396 237.66 110.641C246.636 97.2893 246.62 79.8334 237.636 66.4973C225.876 49.0013 202.556 43.6333 184.34 54.2413C181.189 52.9247 177.902 51.9589 174.54 51.3613C173.691 51.2054 172.816 51.2897 172.013 51.6047C171.209 51.9197 170.51 52.4529 169.994 53.144C169.477 53.8352 169.164 54.657 169.089 55.5166C169.015 56.3763 169.182 57.2396 169.572 58.0093C170.108 59.0333 170.692 60.0413 171.324 61.0493C171.844 61.8653 172.404 62.6813 172.988 63.4813C172.572 64.0413 172.156 64.6014 171.772 65.1854C166.435 73.0788 164.155 82.6451 165.356 92.0973C166.579 88.998 168.138 86.0418 170.004 83.2813C172.941 78.9004 176.626 75.0712 180.892 71.9693C182.38 73.2333 183.94 74.4165 185.556 75.5125Z" stroke="#030712" stroke-width="0.8"/>
<path d="M184.43 112.979C183.384 114.531 183.383 116.364 184.425 117.067C185.473 117.773 187.172 117.085 188.218 115.533C189.265 113.98 189.261 112.155 188.213 111.448C187.171 110.746 185.477 111.427 184.43 112.979Z" stroke="#030712" stroke-width="1.7008"/>
<path d="M188.045 93.2453C188.313 92.8903 188.509 92.486 188.621 92.0553C188.732 91.6247 188.758 91.1762 188.697 90.7356C188.635 90.2949 188.487 89.8708 188.261 89.4874C188.035 89.104 187.736 88.7689 187.381 88.5013C186.664 87.9602 185.762 87.7254 184.873 87.8484C183.984 87.9714 183.179 88.4421 182.637 89.1573M211.115 110.679C211.383 110.324 211.579 109.92 211.691 109.489C211.803 109.058 211.829 108.61 211.767 108.169C211.705 107.729 211.557 107.304 211.332 106.921C211.106 106.538 210.807 106.203 210.451 105.935C209.735 105.394 208.833 105.159 207.943 105.282C207.054 105.405 206.25 105.876 205.707 106.591" stroke="#030712" stroke-width="2.268"/>
<path d="M170.924 70.4595C160.192 86.3795 165.544 108.764 182.884 120.454C200.224 132.144 222.988 128.717 233.722 112.797C244.455 96.8771 239.095 74.4875 221.756 62.7971C204.416 51.1075 181.657 54.5395 170.924 70.4595Z" stroke="#030712" stroke-width="1.7008"/>
<path d="M192.973 100.801L190.837 102.793C190.221 103.369 189.573 103.993 189.381 104.817C189.189 105.633 189.693 106.673 190.533 106.705" stroke="#030712" stroke-width="1.6"/>
<path fill-rule="evenodd" clip-rule="evenodd" d="M124.09 157.53L151.681 150C152.138 149.874 152.547 149.616 152.858 149.257C153.168 148.899 153.366 148.457 153.426 147.987C153.485 147.516 153.404 147.039 153.193 146.614C152.982 146.19 152.65 145.838 152.238 145.602C151.965 145.445 151.663 145.344 151.351 145.304C151.038 145.265 150.721 145.287 150.417 145.37L122.826 152.9C122.369 153.026 121.96 153.284 121.649 153.643C121.339 154.001 121.141 154.443 121.082 154.913C121.022 155.384 121.103 155.861 121.314 156.286C121.525 156.71 121.858 157.062 122.269 157.298C122.542 157.455 122.844 157.556 123.157 157.596C123.469 157.635 123.786 157.613 124.09 157.53Z" fill="#E5E7EB"/>
<path fill-rule="evenodd" clip-rule="evenodd" d="M206.949 188.379C204.741 188.379 202.949 190.171 202.949 192.379C202.949 194.587 204.741 196.379 206.949 196.379C209.157 196.379 210.949 194.587 210.949 192.379C210.949 190.171 209.157 188.379 206.949 188.379Z" fill="#030712"/>
<path fill-rule="evenodd" clip-rule="evenodd" d="M260.878 64.6925L253.918 73.3245L249.926 62.9805L260.878 64.6925Z" fill="#67C16B"/>
<path d="M253.918 73.3245L260.878 64.6925L249.926 62.9805L253.918 73.3245Z" stroke="#2E7D32" stroke-width="1.7008"/>
<path fill-rule="evenodd" clip-rule="evenodd" d="M275.051 106.676C272.843 106.676 271.051 108.468 271.051 110.676C271.051 112.884 272.843 114.676 275.051 114.676C277.259 114.676 279.051 112.884 279.051 110.676C279.051 108.468 277.259 106.676 275.051 106.676Z" fill="white"/>
<path d="M275.051 106.676C272.843 106.676 271.051 108.468 271.051 110.676C271.051 112.884 272.843 114.676 275.051 114.676C277.259 114.676 279.051 112.884 279.051 110.676C279.051 108.468 277.259 106.676 275.051 106.676Z" stroke="#030712" stroke-width="1.7008"/>
<path fill-rule="evenodd" clip-rule="evenodd" d="M42.6901 180.172C42.5541 181.076 41.4501 181.428 40.8101 180.772L36.7861 176.596C36.5301 176.332 36.1701 176.212 35.8101 176.268L30.0821 177.22C29.1861 177.372 28.5061 176.42 28.9301 175.62L31.6661 170.492C31.8341 170.172 31.8341 169.788 31.6661 169.468L28.9941 164.316C28.5781 163.508 29.2661 162.572 30.1621 162.724L35.8821 163.74C36.2341 163.804 36.6021 163.684 36.8581 163.428L40.9301 159.292C41.5701 158.644 42.6741 159.012 42.8021 159.916L43.6101 165.66C43.6581 166.02 43.8821 166.332 44.2021 166.492L49.3941 169.092C50.2101 169.5 50.2021 170.668 49.3861 171.068L44.1701 173.604C43.8421 173.764 43.6101 174.076 43.5621 174.428L42.6901 180.172Z" fill="white"/>
<path d="M40.8101 180.772C41.4501 181.428 42.5541 181.076 42.6901 180.172L43.5621 174.428C43.6101 174.076 43.8421 173.764 44.1701 173.604L49.3861 171.068C50.2021 170.668 50.2101 169.5 49.3941 169.092L44.2021 166.492C43.8821 166.332 43.6581 166.02 43.6101 165.66L42.8021 159.916C42.6741 159.012 41.5701 158.644 40.9301 159.292L36.8581 163.428C36.6021 163.684 36.2341 163.804 35.8821 163.74L30.1621 162.724C29.2661 162.572 28.5781 163.508 28.9941 164.316L31.6661 169.468C31.8341 169.788 31.8341 170.172 31.6661 170.492L28.9301 175.62C28.5061 176.42 29.1861 177.372 30.0821 177.22L35.8101 176.268C36.1701 176.212 36.5301 176.332 36.7861 176.596L40.8101 180.772Z" stroke="#030712" stroke-width="1.7008"/>
<path fill-rule="evenodd" clip-rule="evenodd" d="M70.9445 174.577L73.6789 168.247L67.3493 165.512L64.6133 171.842L70.9445 174.577Z" fill="#67C16B"/>
<path d="M68.468 165.066L65.7344 171.394L70.5008 173.453L73.2344 167.126L68.468 165.066Z" stroke="#2E7D32" stroke-width="1.7008"/>
<path fill-rule="evenodd" clip-rule="evenodd" d="M126.399 83.6367C111.287 83.6367 99.0312 95.9567 99.0312 111.149C99.0312 126.341 111.287 138.653 126.399 138.653C141.511 138.653 153.767 126.341 153.767 111.149C153.767 95.9567 141.511 83.6367 126.399 83.6367Z" fill="#67C16B"/>
<path d="M126.399 83.6367C111.287 83.6367 99.0312 95.9567 99.0312 111.149C99.0312 126.341 111.287 138.653 126.399 138.653C141.511 138.653 153.767 126.341 153.767 111.149C153.767 95.9567 141.511 83.6367 126.399 83.6367Z" stroke="#2E7D32" stroke-width="1.7008"/>
<path d="M140.468 96.6094L126.308 121.441L112.324 113.329" stroke="white" stroke-width="5.6696"/>
<path fill-rule="evenodd" clip-rule="evenodd" d="M137.98 143.799L143.884 129.375L197.724 151.919L196.468 154.983L191.82 166.327L137.98 143.799Z" fill="#67C16B"/>
<path d="M143.884 129.375L137.98 143.799L191.82 166.327L196.468 154.983L197.724 151.919L143.884 129.375Z" stroke="#2E7D32" stroke-width="1.7008"/>
<path fill-rule="evenodd" clip-rule="evenodd" d="M195.761 156.764L193.785 161.564L139.969 138.972L141.937 134.172L195.761 156.764Z" fill="#2E7D32"/>
<path fill-rule="evenodd" clip-rule="evenodd" d="M143.323 129.172L137.428 143.588L131.188 135.1L132.955 130.772L143.323 129.172Z" fill="#E5E7EB"/>
<path d="M137.428 143.588L143.323 129.172L132.955 130.772L131.188 135.1L137.428 143.588Z" stroke="#2E7D32" stroke-width="1.7008"/>
<path fill-rule="evenodd" clip-rule="evenodd" d="M128.59 131.516L133.038 130.828L131.262 135.156L128.59 131.516Z" fill="white"/>
<path d="M133.038 130.828L128.59 131.516L131.262 135.156L133.038 130.828Z" stroke="#2E7D32" stroke-width="1.7008"/>
<path d="M196.037 184.145C194.557 183.585 193.149 182.993 191.837 182.393C186.661 180.049 182.941 177.649 181.781 176.921M223.05 124.474C225.37 123.594 227.938 125.138 229.634 126.826C233.842 131.026 242.666 145.506 242.994 159.202M198.236 147.838C202.884 151.294 208.212 153.838 213.82 155.286" stroke="#030712" stroke-width="1.6"/>
<path fill-rule="evenodd" clip-rule="evenodd" d="M82.674 68.754C85.034 69.154 86.626 71.402 86.226 73.762L84.642 83.0252C84.4704 84.0348 83.9476 84.9513 83.1659 85.6129C82.3843 86.2745 81.394 86.6387 80.37 86.6412C80.122 86.6412 79.882 86.6172 79.634 86.5772C79.0715 86.4824 78.5334 86.2775 78.0503 85.9743C77.5672 85.6711 77.1486 85.2756 76.8187 84.8103C76.4887 84.3451 76.2538 83.8193 76.1274 83.2632C76.0009 82.707 75.9855 82.1313 76.082 81.5692L77.666 72.2972C78.066 69.9372 80.306 68.354 82.674 68.754Z" fill="white"/>
<path d="M86.226 73.7612C86.626 71.4012 85.034 69.1532 82.674 68.7532C80.306 68.3532 78.066 69.9372 77.666 72.2972L76.082 81.5692C75.9855 82.1313 76.0009 82.707 76.1274 83.2632C76.2538 83.8193 76.4887 84.3451 76.8187 84.8103C77.1486 85.2756 77.5672 85.6711 78.0503 85.9743C78.5334 86.2775 79.0715 86.4824 79.634 86.5772C79.882 86.6172 80.122 86.6412 80.37 86.6412C81.394 86.6387 82.3843 86.2745 83.1659 85.6129C83.9476 84.9513 84.4704 84.0348 84.642 83.0252L86.226 73.7612Z" stroke="#030712" stroke-width="1.7008"/>
<path fill-rule="evenodd" clip-rule="evenodd" d="M91.2652 68.23C93.4812 68.614 94.9772 70.71 94.5932 72.926L93.1132 81.606C92.9527 82.5534 92.4624 83.4135 91.7289 84.0343C90.9954 84.655 90.0661 84.9964 89.1052 84.998C88.8812 84.998 88.6492 84.974 88.4172 84.934C87.8903 84.8442 87.3863 84.6515 86.9339 84.3669C86.4815 84.0823 86.0896 83.7114 85.7805 83.2753C85.4715 82.8392 85.2514 82.3466 85.1327 81.8254C85.0141 81.3043 84.9993 80.7649 85.0892 80.238L86.5772 71.558C86.9532 69.342 89.0572 67.854 91.2652 68.23Z" fill="white"/>
<path d="M94.5932 72.9236C94.6918 72.3935 94.6841 71.8492 94.5704 71.3222C94.4567 70.7952 94.2393 70.2961 93.931 69.8538C93.6226 69.4116 93.2294 69.0351 92.7742 68.7463C92.319 68.4574 91.8109 68.2619 91.2795 68.1712C90.748 68.0805 90.2039 68.0964 89.6786 68.218C89.1534 68.3395 88.6576 68.5643 88.22 68.8792C87.7824 69.1941 87.4118 69.5929 87.1298 70.0524C86.8478 70.5119 86.6599 71.0228 86.5772 71.5556L85.0892 80.2356C84.9993 80.7624 85.0141 81.3018 85.1327 81.823C85.2514 82.3441 85.4715 82.8368 85.7805 83.2729C86.0896 83.7089 86.4815 84.0799 86.9339 84.3645C87.3863 84.6491 87.8903 84.8418 88.4172 84.9316C88.6492 84.9716 88.8812 84.9956 89.1052 84.9956C90.0661 84.9939 90.9954 84.6526 91.7289 84.0318C92.4624 83.4111 92.9527 82.551 93.1132 81.6036L94.5932 72.9236Z" stroke="#030712" stroke-width="1.7008"/>
<path fill-rule="evenodd" clip-rule="evenodd" d="M74.2027 68.23C76.4187 68.614 77.9147 70.71 77.5307 72.926L76.0507 81.606C75.8902 82.5534 75.3999 83.4135 74.6664 84.0343C73.9329 84.655 73.0036 84.9964 72.0427 84.998C71.8187 84.998 71.5867 84.974 71.3547 84.934C70.8278 84.8442 70.3238 84.6515 69.8714 84.3669C69.419 84.0823 69.0271 83.7114 68.718 83.2753C68.409 82.8392 68.1889 82.3466 68.0702 81.8254C67.9516 81.3043 67.9368 80.7649 68.0267 80.238L69.5147 71.558C69.8907 69.342 71.9947 67.854 74.2027 68.23Z" fill="white"/>
<path d="M77.5307 72.9236C77.6293 72.3935 77.6216 71.8492 77.5079 71.3222C77.3942 70.7952 77.1768 70.2961 76.8685 69.8538C76.5601 69.4116 76.1669 69.0351 75.7117 68.7463C75.2565 68.4574 74.7484 68.2619 74.217 68.1712C73.6855 68.0805 73.1414 68.0964 72.6161 68.218C72.0909 68.3395 71.5951 68.5643 71.1575 68.8792C70.7199 69.1941 70.3493 69.5929 70.0673 70.0524C69.7853 70.5119 69.5974 71.0228 69.5147 71.5556L68.0267 80.2356C67.9368 80.7624 67.9516 81.3018 68.0702 81.823C68.1889 82.3441 68.409 82.8368 68.718 83.2729C69.0271 83.7089 69.419 84.0799 69.8714 84.3645C70.3238 84.6491 70.8278 84.8418 71.3547 84.9316C71.5867 84.9716 71.8187 84.9956 72.0427 84.9956C73.0036 84.9939 73.9329 84.6526 74.6664 84.0318C75.3999 83.4111 75.8902 82.551 76.0507 81.6036L77.5307 72.9236Z" stroke="#030712" stroke-width="1.7008"/>
<path fill-rule="evenodd" clip-rule="evenodd" d="M95.3629 60.9851C97.5789 60.5931 99.6909 62.0651 100.083 64.2731L101.635 72.9451C101.987 74.9291 100.843 76.8251 99.0189 77.4891C98.8029 77.5611 98.5789 77.6251 98.3469 77.6651C96.1309 78.0651 94.0189 76.5851 93.6269 74.3771L92.0749 65.7051C91.6829 63.4971 93.1549 61.3771 95.3629 60.9851Z" fill="white"/>
<path d="M100.083 64.2731C99.6909 62.0651 97.5789 60.5931 95.3629 60.9851C93.1549 61.3771 91.6829 63.4971 92.0749 65.7051L93.6269 74.3771C93.7203 74.9032 93.9166 75.4057 94.2045 75.8559C94.4924 76.306 94.8663 76.6949 95.3047 77.0004C95.7432 77.3058 96.2376 77.5217 96.7596 77.6358C97.2816 77.7498 97.821 77.7598 98.3469 77.6651C98.5789 77.6251 98.8029 77.5611 99.0189 77.4891C100.843 76.8251 101.987 74.9291 101.635 72.9451L100.083 64.2731Z" stroke="#030712" stroke-width="1.7008"/>
<path fill-rule="evenodd" clip-rule="evenodd" d="M175.79 141.695C178.184 140.51 180.844 139.965 183.511 140.114C192.087 140.578 198.663 147.898 198.207 156.474C197.743 165.05 190.415 171.626 181.839 171.17C180.306 171.089 178.792 170.781 177.349 170.255C176.597 170.626 175.739 170.722 174.923 170.527C174.108 170.332 173.386 169.859 172.883 169.188C172.683 168.924 172.507 168.62 172.387 168.284C172.242 167.905 172.166 167.504 172.164 167.098C172.058 167 171.953 166.901 171.849 166.8C171.121 167.073 170.324 167.103 169.577 166.887C168.829 166.67 168.172 166.219 167.702 165.599C167.582 165.431 167.47 165.263 167.374 165.071C166.997 164.343 166.881 163.507 167.045 162.703L166.459 162.26C165.769 162.437 165.042 162.407 164.369 162.173C163.696 161.939 163.107 161.511 162.676 160.944C162.556 160.776 162.444 160.608 162.348 160.416C162.098 159.933 161.961 159.399 161.948 158.855L161.687 158.659L160.507 159.348C159.549 159.841 158.448 159.981 157.397 159.742C156.347 159.504 155.414 158.902 154.763 158.044C154.61 157.836 154.474 157.617 154.355 157.388C153.798 156.312 153.691 155.058 154.059 153.902C154.427 152.747 155.238 151.785 156.315 151.228L172.203 141.956C172.752 141.672 173.353 141.502 173.969 141.457C174.586 141.412 175.206 141.493 175.79 141.695Z" fill="white"/>
<path d="M175.79 141.695C178.184 140.51 180.844 139.965 183.511 140.114C192.087 140.578 198.663 147.898 198.207 156.474C197.743 165.05 190.415 171.626 181.839 171.17C180.306 171.089 178.792 170.781 177.349 170.255C176.597 170.626 175.739 170.722 174.923 170.527C174.108 170.332 173.386 169.859 172.883 169.188C172.683 168.924 172.507 168.62 172.387 168.284C172.242 167.905 172.166 167.504 172.164 167.098C172.058 167 171.953 166.901 171.849 166.8C171.121 167.073 170.324 167.103 169.577 166.887C168.829 166.67 168.172 166.219 167.702 165.599C167.582 165.431 167.47 165.263 167.374 165.071C166.997 164.343 166.881 163.507 167.045 162.703L166.459 162.26C165.769 162.437 165.042 162.407 164.369 162.173C163.696 161.939 163.107 161.511 162.676 160.944C162.556 160.776 162.444 160.608 162.348 160.416C162.098 159.933 161.961 159.399 161.948 158.855L161.687 158.659L160.507 159.348C159.549 159.841 158.448 159.981 157.397 159.742C156.347 159.504 155.414 158.902 154.763 158.044C154.61 157.836 154.474 157.617 154.355 157.388C153.798 156.312 153.691 155.058 154.059 153.902C154.427 152.747 155.238 151.785 156.315 151.228L172.203 141.956C172.752 141.672 173.353 141.502 173.969 141.457C174.586 141.412 175.206 141.493 175.79 141.695Z" stroke="#030712" stroke-width="1.7008"/>
<path fill-rule="evenodd" clip-rule="evenodd" d="M198.466 157.98C198.97 153.3 197.362 148.932 194.442 145.764L194.81 145.172L205.034 151.3C205.034 151.3 210.402 160.852 203.154 172.356C199.778 177.716 192.698 181.316 188.474 180.772C186.642 180.532 184.754 179.396 183.25 178.316C180.274 176.188 177.714 174.084 177.762 171.772C177.797 170.298 178.357 170.852 178.674 171.167C178.806 171.297 178.895 171.385 178.89 171.276C180.97 171.852 183.226 172.028 185.602 171.612C192.394 170.42 197.722 164.836 198.466 157.98Z" fill="#E5E7EB"/>
<path d="M194.442 145.764C197.362 148.932 198.97 153.3 198.466 157.98C197.722 164.836 192.394 170.42 185.602 171.612C183.226 172.028 180.97 171.852 178.89 171.276C178.906 171.652 177.81 169.692 177.762 171.772C177.714 174.084 180.274 176.188 183.25 178.316C184.754 179.396 186.642 180.532 188.474 180.772C192.698 181.316 199.778 177.716 203.154 172.356C210.402 160.852 205.034 151.3 205.034 151.3L194.81 145.172L194.442 145.764Z" stroke="#030712" stroke-width="1.7008"/>
<path fill-rule="evenodd" clip-rule="evenodd" d="M186.864 173.859C185.848 173.859 185.016 174.691 185.016 175.707C185.016 176.198 185.21 176.669 185.556 177.017C185.903 177.365 186.373 177.561 186.864 177.563C187.888 177.563 188.72 176.731 188.72 175.707C188.718 175.217 188.521 174.746 188.173 174.4C187.825 174.054 187.354 173.859 186.864 173.859Z" fill="#9CA3AF"/>
<path fill-rule="evenodd" clip-rule="evenodd" d="M173.727 59.9375C172.267 59.9375 170.867 60.5174 169.835 61.5496C168.803 62.5818 168.223 63.9818 168.223 65.4415C168.223 68.4895 170.687 70.9535 173.727 70.9535C176.775 70.9535 179.239 68.4895 179.239 65.4415C179.239 62.4015 176.775 59.9375 173.727 59.9375Z" fill="#030712"/>
</svg>
