<svg width="100" height="120" viewBox="0 0 100 120" fill="none" xmlns="http://www.w3.org/2000/svg">
<path fill-rule="evenodd" clip-rule="evenodd" d="M1.0459 0H48.1864L71.0154 22.829C77.4973 29.3108 77.4973 39.9174 71.0154 46.3993C64.5337 52.8811 53.927 52.8811 47.4452 46.3993L1.0459 0Z" fill="#E5E7EB"/>
<path fill-rule="evenodd" clip-rule="evenodd" d="M99.9999 20V120H0L99.9999 20Z" fill="#E5E7EB"/>
<path fill-rule="evenodd" clip-rule="evenodd" d="M42.1069 119.999H77.6623V102.221C77.6623 92.4438 69.6624 84.4438 59.8847 84.4438H59.8846C50.1069 84.4438 42.107 92.4438 42.107 102.221L42.1069 119.999Z" fill="#22C55E"/>
<path fill-rule="evenodd" clip-rule="evenodd" d="M59.8853 119.999H95.4407V77.9183C95.4407 68.1405 87.4408 60.1406 77.663 60.1406H77.6629C67.8852 60.1406 59.8853 68.1405 59.8853 77.9183L59.8853 119.999Z" fill="#265529"/>
<path fill-rule="evenodd" clip-rule="evenodd" d="M59.8853 119.999H77.6629V102.221C77.6629 92.4438 69.663 84.4438 59.8853 84.4438V119.999Z" fill="#42A547"/>
<path fill-rule="evenodd" clip-rule="evenodd" d="M100 48V0H52L62.3333 10.3333H89.6668V37.6667L100 48Z" fill="#42A547"/>
<path fill-rule="evenodd" clip-rule="evenodd" d="M53.5044 73.8008C56.8839 73.8008 59.6235 71.0612 59.6235 67.6817C59.6235 64.3022 56.884 61.5626 53.5044 61.5626C50.125 61.5626 47.3854 64.3022 47.3854 67.6817C47.3854 71.0612 50.125 73.8008 53.5044 73.8008ZM53.5044 78.3962C59.422 78.3962 64.2189 73.5991 64.2189 67.6817C64.2189 61.7642 59.4219 56.9673 53.5044 56.9673C47.5871 56.9673 42.79 61.7642 42.79 67.6817C42.79 73.5991 47.5872 78.3962 53.5044 78.3962Z" fill="white"/>
<path fill-rule="evenodd" clip-rule="evenodd" d="M69.0473 42.387L69.0474 42.3868C70.8814 40.5526 70.8814 37.5514 69.0474 35.7171L62.0441 28.714C60.2099 26.8799 57.2086 26.8799 55.3745 28.714H55.3744C53.5402 30.5482 53.5402 33.5495 55.3744 35.3838L62.3776 42.387C64.2118 44.221 67.213 44.221 69.0473 42.387ZM51.9561 25.2957H51.9562C53.7904 23.4616 53.7904 20.4604 51.9562 18.6261L33.3301 0H19.9907L45.2866 25.2958C47.1207 27.13 50.122 27.13 51.9561 25.2957Z" fill="#22C55E"/>
<path fill-rule="evenodd" clip-rule="evenodd" d="M93.3141 54.4187C94.8559 54.4187 96.1058 55.6686 96.1058 57.2104C96.1058 58.7521 94.8559 60.0021 93.3141 60.0021C91.7724 60.0021 90.5225 58.7521 90.5225 57.2104C90.5225 55.6686 91.7724 54.4187 93.3141 54.4187Z" fill="#42A547"/>
<path fill-rule="evenodd" clip-rule="evenodd" d="M46.6056 31.7937C48.1474 31.7937 49.3973 33.0436 49.3973 34.5854C49.3973 36.1271 48.1474 37.3771 46.6056 37.3771C45.0638 37.3771 43.814 36.1271 43.814 34.5854C43.814 33.0436 45.0638 31.7937 46.6056 31.7937Z" fill="#22C55E"/>
<path fill-rule="evenodd" clip-rule="evenodd" d="M76.981 55.318C87.1676 55.318 95.4254 47.0602 95.4254 36.8735H58.5366C58.5367 47.0601 66.7945 55.318 76.981 55.318Z" fill="#030712"/>
<path fill-rule="evenodd" clip-rule="evenodd" d="M86.2036 36.874C91.2969 36.874 95.4258 32.7451 95.4258 27.6518C95.4258 22.5585 91.2969 18.4297 86.2036 18.4297C81.1104 18.4297 76.9814 22.5585 76.9814 27.6518C76.9814 32.7451 81.1104 36.874 86.2036 36.874Z" fill="#265529"/>
<path fill-rule="evenodd" clip-rule="evenodd" d="M39.423 37.4187H37.1048H34.7866L37.1048 33.6626L39.423 37.4187Z" fill="#030712"/>
<path fill-rule="evenodd" clip-rule="evenodd" d="M39.423 42.4952H37.1048H34.7866L37.1048 38.739L39.423 42.4952Z" fill="#030712"/>
<path fill-rule="evenodd" clip-rule="evenodd" d="M39.423 47.5718H37.1048H34.7866L37.1048 43.8157L39.423 47.5718Z" fill="#030712"/>
<path fill-rule="evenodd" clip-rule="evenodd" d="M39.423 52.6482H37.1048H34.7866L37.1048 48.8921L39.423 52.6482Z" fill="#030712"/>
<path fill-rule="evenodd" clip-rule="evenodd" d="M39.423 57.7249H37.1048H34.7866L37.1048 53.9688L39.423 57.7249Z" fill="#030712"/>
<path fill-rule="evenodd" clip-rule="evenodd" d="M7.77197 108.335V74.0015H42.1054L34.7142 81.3926H15.1632V100.944L7.77197 108.335Z" fill="#22C55E"/>
<path fill-rule="evenodd" clip-rule="evenodd" d="M48.5531 83.0146V83.0145C47.2568 81.7181 45.1355 81.7181 43.8391 83.0145L38.8894 87.9643C37.593 89.2607 37.593 91.3819 38.8894 92.6784C40.1858 93.9747 42.307 93.9747 43.6034 92.6784L48.5531 87.7287C49.8495 86.4323 49.8495 84.311 48.5531 83.0146ZM36.4734 95.0944V95.0943C35.177 93.7979 33.0558 93.7979 31.7593 95.0943L6.854 120H16.2822L36.4734 99.8083C37.7698 98.512 37.7698 96.3907 36.4734 95.0944Z" fill="#42A547"/>
<path fill-rule="evenodd" clip-rule="evenodd" d="M27.8154 105.57C28.2443 105.57 28.592 105.918 28.592 106.347C28.592 106.776 28.2443 107.124 27.8154 107.124C27.3865 107.124 27.0388 106.776 27.0388 106.347C27.0388 105.918 27.3865 105.57 27.8154 105.57ZM32.9605 105.57C33.3895 105.57 33.7372 105.918 33.7372 106.347C33.7372 106.776 33.3895 107.124 32.9605 107.124C32.5316 107.124 32.1839 106.776 32.1839 106.347C32.1839 105.918 32.5316 105.57 32.9605 105.57ZM38.1057 105.57C38.5347 105.57 38.8824 105.918 38.8824 106.347C38.8824 106.776 38.5347 107.124 38.1057 107.124C37.6768 107.124 37.3291 106.776 37.3291 106.347C37.3291 105.918 37.6768 105.57 38.1057 105.57ZM43.2509 105.57C43.6798 105.57 44.0275 105.918 44.0275 106.347C44.0275 106.776 43.6798 107.124 43.2509 107.124C42.8219 107.124 42.4743 106.776 42.4743 106.347C42.4743 105.918 42.822 105.57 43.2509 105.57ZM48.396 105.57C48.825 105.57 49.1727 105.918 49.1727 106.347C49.1727 106.776 48.825 107.124 48.396 107.124C47.9671 107.124 47.6194 106.776 47.6194 106.347C47.6194 105.918 47.9671 105.57 48.396 105.57ZM27.8154 109.502C28.2443 109.502 28.592 109.85 28.592 110.279C28.592 110.708 28.2443 111.055 27.8154 111.055C27.3865 111.055 27.0388 110.708 27.0388 110.279C27.0388 109.85 27.3865 109.502 27.8154 109.502ZM32.9605 109.502C33.3895 109.502 33.7372 109.85 33.7372 110.279C33.7372 110.708 33.3895 111.055 32.9605 111.055C32.5316 111.055 32.1839 110.708 32.1839 110.279C32.1839 109.85 32.5316 109.502 32.9605 109.502ZM38.1057 109.502C38.5347 109.502 38.8824 109.85 38.8824 110.279C38.8824 110.708 38.5347 111.055 38.1057 111.055C37.6768 111.055 37.3291 110.708 37.3291 110.279C37.3291 109.85 37.6768 109.502 38.1057 109.502ZM43.2509 109.502C43.6798 109.502 44.0275 109.85 44.0275 110.279C44.0275 110.708 43.6798 111.055 43.2509 111.055C42.8219 111.055 42.4743 110.708 42.4743 110.279C42.4743 109.85 42.822 109.502 43.2509 109.502ZM48.396 109.502C48.825 109.502 49.1727 109.85 49.1727 110.279C49.1727 110.708 48.825 111.055 48.396 111.055C47.9671 111.055 47.6194 110.708 47.6194 110.279C47.6194 109.85 47.9671 109.502 48.396 109.502ZM22.6702 109.502C23.0991 109.502 23.4468 109.85 23.4468 110.279C23.4468 110.708 23.0991 111.055 22.6702 111.055C22.2413 111.055 21.8936 110.708 21.8936 110.279C21.8936 109.85 22.2413 109.502 22.6702 109.502ZM27.8154 113.434C28.2443 113.434 28.592 113.781 28.592 114.21C28.592 114.639 28.2443 114.987 27.8154 114.987C27.3865 114.987 27.0388 114.639 27.0388 114.21C27.0388 113.781 27.3865 113.434 27.8154 113.434ZM32.9605 113.434C33.3895 113.434 33.7372 113.781 33.7372 114.21C33.7372 114.639 33.3895 114.987 32.9605 114.987C32.5316 114.987 32.1839 114.639 32.1839 114.21C32.1839 113.781 32.5316 113.434 32.9605 113.434ZM38.1057 113.434C38.5347 113.434 38.8824 113.781 38.8824 114.21C38.8824 114.639 38.5347 114.987 38.1057 114.987C37.6768 114.987 37.3291 114.639 37.3291 114.21C37.3291 113.781 37.6768 113.434 38.1057 113.434ZM43.2509 113.434C43.6798 113.434 44.0275 113.781 44.0275 114.21C44.0275 114.639 43.6798 114.987 43.2509 114.987C42.8219 114.987 42.4743 114.639 42.4743 114.21C42.4743 113.781 42.822 113.434 43.2509 113.434ZM48.396 113.434C48.825 113.434 49.1727 113.781 49.1727 114.21C49.1727 114.639 48.825 114.987 48.396 114.987C47.9671 114.987 47.6194 114.639 47.6194 114.21C47.6194 113.781 47.9671 113.434 48.396 113.434ZM22.6702 113.434C23.0991 113.434 23.4468 113.781 23.4468 114.21C23.4468 114.639 23.0991 114.987 22.6702 114.987C22.2413 114.987 21.8936 114.639 21.8936 114.21C21.8936 113.781 22.2413 113.434 22.6702 113.434ZM22.6702 105.57C23.0991 105.57 23.4468 105.918 23.4468 106.347C23.4468 106.776 23.0991 107.124 22.6702 107.124C22.2413 107.124 21.8936 106.776 21.8936 106.347C21.8936 105.918 22.2413 105.57 22.6702 105.57Z" fill="#030712"/>
<path fill-rule="evenodd" clip-rule="evenodd" d="M57.9646 5.18896C58.3967 5.18896 58.747 5.5392 58.747 5.97128C58.747 6.4034 58.3967 6.75369 57.9646 6.75369C57.5325 6.75369 57.1822 6.4034 57.1822 5.97128C57.1823 5.5392 57.5325 5.18896 57.9646 5.18896ZM71.7931 5.18896C72.2251 5.18896 72.5754 5.5392 72.5754 5.97128C72.5754 6.4034 72.2251 6.75369 71.7931 6.75369C71.3609 6.75369 71.0107 6.4034 71.0107 5.97128C71.0107 5.5392 71.3609 5.18896 71.7931 5.18896ZM62.5741 5.18896C63.0062 5.18896 63.3565 5.5392 63.3565 5.97128C63.3565 6.4034 63.0062 6.75369 62.5741 6.75369C62.142 6.75369 61.7918 6.4034 61.7918 5.97128C61.7918 5.5392 62.142 5.18896 62.5741 5.18896ZM67.1835 5.18896C67.6157 5.18896 67.9659 5.5392 67.9659 5.97128C67.9659 6.4034 67.6157 6.75369 67.1835 6.75369C66.7515 6.75369 66.4012 6.4034 66.4012 5.97128C66.4012 5.5392 66.7515 5.18896 67.1835 5.18896ZM53.3552 5.18896C53.7872 5.18896 54.1375 5.5392 54.1375 5.97128C54.1375 6.4034 53.7872 6.75369 53.3552 6.75369C52.923 6.75369 52.5728 6.4034 52.5728 5.97128C52.5728 5.5392 52.923 5.18896 53.3552 5.18896Z" fill="#030712"/>
<path d="M15.7916 16.6679L19.2504 11.8345H20.2504L16.7916 16.6679H15.7916ZM19.2081 16.6679L22.6669 11.8345H23.667L20.2082 16.6679H19.2081ZM22.6247 16.6679L26.0835 11.8345H27.0836L23.6247 16.6679H22.6247ZM26.0412 16.6679L29.5 11.8345H30.5001L27.0412 16.6679H26.0412ZM29.4578 16.6679L32.9166 11.8345H33.9167L30.4578 16.6679H29.4578ZM32.8742 16.6679L36.3332 11.8345H37.3332L33.8743 16.6679H32.8742ZM12.375 16.6679L15.8338 11.8345H16.8339L13.3751 16.6679H12.375Z" fill="#030712"/>
<path d="M69.1759 58.7995C69.1759 59.0756 68.9519 59.2995 68.6759 59.2995C68.3997 59.2995 68.1758 59.0756 68.1758 58.7995C68.1758 56.3678 69.1615 54.1663 70.7549 52.5728C72.3485 50.9793 74.55 49.9937 76.9816 49.9937C79.4131 49.9937 81.6146 50.9793 83.2082 52.5729C84.8017 54.1663 85.7874 56.3679 85.7874 58.7995C85.7874 59.0756 85.5635 59.2995 85.2874 59.2995C85.0113 59.2995 84.7873 59.0756 84.7873 58.7995C84.7873 56.6439 83.9136 54.6924 82.5011 53.2799C81.0886 51.8674 79.1371 50.9937 76.9816 50.9937C74.8261 50.9937 72.8745 51.8674 71.4621 53.2799C70.0495 54.6924 69.1759 56.6439 69.1759 58.7995Z" fill="#030712"/>
</svg>
